<svg width="64" height="264" viewBox="0 0 64 264" fill="none" xmlns="http://www.w3.org/2000/svg">
<path fill-rule="evenodd" clip-rule="evenodd" d="M26.4528 6.37988C26.7656 3.87769 28.8925 2 31.4141 2H33.5864C36.108 2 38.2349 3.87769 38.5477 6.37988L39.0003 10V18.375V34.625V38V39V42V49V52.803C39.0003 53.5898 39.186 54.3657 39.5423 55.0674L40.1591 56.2815C40.7017 57.3499 40.8427 58.5774 40.5563 59.741L40.1452 61.4114C40.1194 61.5159 40.0972 61.6211 40.0783 61.7268C40.0582 61.8391 40.0419 61.9521 40.0296 62.0654C40.0101 62.2449 40.0003 62.4253 40.0003 62.6062V63V66V67V132V137V138V141V197V220V221V224V234V237.5C40.0003 246.446 47.119 253.728 56.0003 253.993V254H58.0003C60.2094 254 62.0003 255.791 62.0003 258C62.0004 260.209 60.2095 262 58.0003 262H6.00018C3.79108 262 2.00018 260.209 2.00018 258C2.00006 255.791 3.79095 254 6.00018 254H9.00031V253.993C17.8629 253.729 24.9702 246.476 25.0002 237.557L25.0003 237.5V234V224V221V220V212V197V185V180C25.0003 180.552 24.5526 181 24.0003 181C23.4481 181 23.0003 180.552 23.0003 180V123C23.0003 122.448 23.4481 122 24.0003 122C24.5526 122 25.0003 122.448 25.0003 123V118.5H24.5003C24.3901 118.5 24.2881 118.464 24.2055 118.404C24.0811 118.313 24.0003 118.166 24.0003 118C24.0003 117.724 24.2242 117.5 24.5003 117.5H25.0003V111.5H24.5003C24.2242 111.5 24.0003 111.276 24.0003 111C24.0003 110.724 24.2242 110.5 24.5003 110.5H25.0003V76H24.0003H23.0003V72V70H24.0003H25.0003V67V66V63V62.6064C25.0003 62.4275 24.9907 62.2488 24.9716 62.0713C24.9477 61.8491 24.9089 61.6284 24.8554 61.4111L24.4443 59.741C24.1578 58.5774 24.2988 57.3499 24.8414 56.2815L25.4582 55.0674C25.5001 54.9851 25.5395 54.9016 25.5766 54.8174C25.4138 54.9324 25.2149 55 25.0003 55H24.0003H21.0003C20.4481 55 20.0003 54.5522 20.0003 54V49C20.0003 48.4478 20.4481 48 21.0003 48H24.0003H25.0003C25.5526 48 26.0003 48.4478 26.0003 49V43C26.0003 43.5522 25.5526 44 25.0003 44H24.0003H21.0003C20.4481 44 20.0003 43.5522 20.0003 43V38C20.0003 37.4478 20.4481 37 21.0003 37H24.0003H25.0003C25.5526 37 26.0003 37.4478 26.0003 38V34.625V18.375V10L26.4528 6.37988Z" fill="#97A0D9"/>
<path fill-rule="evenodd" clip-rule="evenodd" d="M26.0003 10L26.4528 6.37988C26.7656 3.87769 28.8925 2 31.4141 2H33.5864C36.108 2 38.2349 3.87769 38.5477 6.37988L39.0003 10V52.803C39.0003 53.5898 39.186 54.3657 39.5423 55.0674L40.1591 56.2815C40.7017 57.3499 40.8427 58.5774 40.5563 59.741L40.1452 61.4114C40.1194 61.5159 40.0972 61.6211 40.0783 61.7268C40.0582 61.8391 40.0419 61.9521 40.0296 62.0654C40.0101 62.2449 40.0003 62.4253 40.0003 62.6062V237.5C40.0003 246.446 47.119 253.728 56.0003 253.993V254H58.0003C60.2094 254 62.0003 255.791 62.0003 258C62.0004 260.209 60.2095 262 58.0003 262H6.00018C3.79108 262 2.00018 260.209 2.00018 258C2.00006 255.791 3.79095 254 6.00018 254H9.00031V253.993C17.8629 253.729 24.9702 246.476 25.0002 237.557L25.0003 237.5V180C25.0003 180.552 24.5526 181 24.0003 181C23.4481 181 23.0003 180.552 23.0003 180V123C23.0003 122.448 23.4481 122 24.0003 122C24.5526 122 25.0003 122.448 25.0003 123V118.5H24.5003C24.3901 118.5 24.2881 118.464 24.2055 118.404C24.0811 118.313 24.0003 118.166 24.0003 118C24.0003 117.724 24.2242 117.5 24.5003 117.5H25.0003V111.5H24.5003C24.2242 111.5 24.0003 111.276 24.0003 111C24.0003 110.724 24.2242 110.5 24.5003 110.5H25.0003V76H23.0003V70H25.0003V62.6064C25.0003 62.4275 24.9907 62.2488 24.9716 62.0713C24.9477 61.8491 24.9089 61.6284 24.8554 61.4111L24.4443 59.741C24.2202 58.8309 24.2576 57.8816 24.5442 57C24.624 56.7545 24.7232 56.5142 24.8414 56.2815L25.4582 55.0674C25.5001 54.9851 25.5395 54.9016 25.5766 54.8174C25.4817 54.8844 25.3746 54.9353 25.2593 54.9661C25.2593 54.9661 25.2592 54.9662 25.2593 54.9661C25.1767 54.9882 25.0898 55 25.0003 55H21.0003C20.4481 55 20.0003 54.5522 20.0003 54V49C20.0003 48.4478 20.4481 48 21.0003 48H25.0003C25.5526 48 26.0003 48.4478 26.0003 49V43C26.0003 43.5522 25.5526 44 25.0003 44H21.0003C20.4481 44 20.0003 43.5522 20.0003 43V38C20.0003 37.4478 20.4481 37 21.0003 37H25.0003C25.5526 37 26.0003 37.4478 26.0003 38V10ZM24.0003 35V9.87548L24.4683 6.13184C24.9061 2.6288 27.8838 0 31.4141 0H33.5864C37.1166 0 40.0943 2.62876 40.5322 6.13175C40.5322 6.13178 40.5322 6.13172 40.5322 6.13175L41.0003 9.87545V52.803C41.0003 53.2751 41.1117 53.7406 41.3254 54.1615C41.3254 54.1616 41.3253 54.1614 41.3254 54.1615L41.9422 55.3756C42.7018 56.8712 42.8993 58.59 42.4984 60.2189L42.0872 61.8894C42.0722 61.9504 42.0587 62.0141 42.047 62.0792C42.0351 62.1458 42.0252 62.214 42.0179 62.2818C42.0062 62.3892 42.0003 62.4973 42.0003 62.6062V237.5C42.0003 245.361 48.2561 251.761 56.0598 251.994L56.2761 252H58.0003C61.3139 252 64.0003 254.686 64.0003 258C64.0005 261.314 61.3141 264 58.0003 264H6.00018C2.68655 264 0.000183115 261.314 0.000183115 258C9.3598e-09 254.686 2.68641 252 6.00018 252H8.72454L8.94077 251.994C16.7273 251.762 22.9728 245.389 23.0002 237.552C23.0002 237.551 23.0002 237.551 23.0002 237.55L23.0003 237.5V182.829C21.8351 182.417 21.0003 181.306 21.0003 180V123C21.0003 121.694 21.8351 120.583 23.0003 120.171V120C22.3975 119.548 22.0003 118.821 22.0003 118C22.0003 117.182 22.3931 116.456 23.0003 116V113C22.3931 112.544 22.0003 111.818 22.0003 111C22.0003 110.182 22.3931 109.456 23.0003 109V78H21.0003V68H23.0003V62.6064C23.0003 62.4996 22.9946 62.3923 22.9831 62.2854C22.9687 62.152 22.9454 62.0195 22.9134 61.8892M22.9134 61.8892L22.5023 60.2191C22.5023 60.2191 22.5023 60.2192 22.5023 60.2191C22.2404 59.1553 22.2337 58.0532 22.4721 57H21.0003C19.3435 57 18.0003 55.6568 18.0003 54V49C18.0003 47.3432 19.3435 46 21.0003 46C19.3435 46 18.0003 44.6568 18.0003 43V38C18.0003 36.3432 19.3435 35 21.0003 35H24.0003" fill="white"/>
<path d="M26.4527 6.37983C26.7655 3.87768 28.8925 2 31.4141 2H33.5863C36.1079 2 38.2349 3.87768 38.5477 6.37983L39.0002 10V18.375V34.625V52.8029C39.0002 53.5899 39.1859 54.3657 39.5423 55.0673L40.1591 56.2816C40.7017 57.3499 40.8427 58.5775 40.5563 59.7409L40.1452 61.4113C40.0489 61.8023 40.0003 62.2036 40.0003 62.6063V67V132V197L40.0001 249C40.0001 251.761 42.2387 254 45.0001 254H58.0004C60.2095 254 62.0003 255.791 62.0004 258V258C62.0004 260.209 60.2095 262 58.0004 262H6.00001C3.7909 262 2.00005 260.209 2 258V258C1.99995 255.791 3.79083 254 6.00001 254H20.0001C22.7615 254 25.0001 251.761 25.0001 249L25.0002 197V132V67V62.6064C25.0002 62.2036 24.9516 61.8023 24.8553 61.4112L24.4441 59.741C24.1577 58.5775 24.2987 57.3498 24.8413 56.2815L25.4581 55.0673C25.8144 54.3657 26.0002 53.5899 26.0002 52.8029V34.625V18.375V10L26.4527 6.37983Z" fill="#0E0C14"/>
<path fill-rule="evenodd" clip-rule="evenodd" d="M9.00018 253.993C17.8816 253.728 25.0002 246.445 25.0002 237.5V234H40.0002V237.5C40.0002 246.445 47.1188 253.728 56.0002 253.993V258H9.00018V253.993Z" fill="#0E0C14"/>
<path fill-rule="evenodd" clip-rule="evenodd" d="M28.0002 11C28.2763 11 28.5002 11.2239 28.5002 11.5V53.4516C28.5002 54.5756 28.0536 55.6536 27.2588 56.4484L27.1403 56.567C26.2255 57.4817 25.9988 58.8792 26.5773 60.0362C26.8554 60.5924 27.0002 61.2057 27.0002 61.8275V238.428C27.0002 247.518 20.0965 255.122 11.0483 255.998C10.7735 256.024 10.5291 255.823 10.5025 255.548C10.4759 255.273 10.6771 255.029 10.952 255.002C19.4876 254.176 26.0002 247.003 26.0002 238.428V61.8275C26.0002 61.3609 25.8915 60.9008 25.6829 60.4834C24.9118 58.9414 25.2141 57.079 26.4332 55.8599L26.5517 55.7413C27.159 55.1341 27.5002 54.3104 27.5002 53.4516V11.5C27.5002 11.2239 27.724 11 28.0002 11Z" fill="#3A3268"/>
<path fill-rule="evenodd" clip-rule="evenodd" d="M35.0002 10C36.3809 10 37.5002 11.1193 37.5002 12.5V53.5979C37.5002 54.0817 37.6264 54.557 37.8664 54.977C39.0769 57.0953 39.2235 59.6588 38.2624 61.9013L38.2359 61.9632C38.0804 62.3261 38.0002 62.7167 38.0002 63.1115V237.716C38.0002 242.357 39.8439 246.808 43.1258 250.09L44.768 251.732C45.7443 252.709 45.7443 254.291 44.768 255.268C43.7916 256.244 42.2087 256.244 41.2324 255.268L39.5903 253.626C35.3707 249.406 33.0002 243.683 33.0002 237.716V63.1115C33.0002 62.0396 33.2179 60.9788 33.6401 59.9936L33.6667 59.9317C34.0101 59.1305 33.9577 58.2145 33.5252 57.4577C32.8535 56.2822 32.5002 54.9518 32.5002 53.5979V12.5C32.5002 11.1193 33.6195 10 35.0002 10Z" fill="#241F39"/>
<path d="M5.00018 256C5.00018 255.448 5.4479 255 6.00018 255H59.0002C59.5525 255 60.0002 255.448 60.0002 256V256C60.0002 256.552 59.5525 257 59.0002 257H6.00018C5.4479 257 5.00018 256.552 5.00018 256V256Z" fill="#585662"/>
<path fill-rule="evenodd" clip-rule="evenodd" d="M6.00018 255C5.4479 255 5.00018 255.448 5.00018 256C5.00018 256.552 5.4479 257 6.00018 257H59.0002C59.5525 257 60.0002 256.552 60.0002 256C60.0002 255.448 59.5525 255 59.0002 255H6.00018Z" fill="#3A3268"/>
<path d="M25.0002 220H40.0002V224H25.0002V220Z" fill="#D9DAEC"/>
<path d="M25.0002 137H40.0002V141H25.0002V137Z" fill="#D9DAEC"/>
<path d="M25.0002 62H40.0002V66H25.0002V62Z" fill="#D9DAEC"/>
<path d="M26.0002 49H39.0002V53H26.0002V49Z" fill="#D9DAEC"/>
<path d="M26.0002 38H39.0002V42H26.0002V38Z" fill="#D9DAEC"/>
<path d="M27.0002 220H33.0002V224H27.0002V220Z" fill="#C5BBDD"/>
<path d="M27.0002 137H33.0002V141H27.0002V137Z" fill="#C5BBDD"/>
<path d="M27.0002 62H33.0002V66H27.0002V62Z" fill="#C5BBDD"/>
<path d="M28.0002 49H33.0002V53H28.0002V49Z" fill="#C5BBDD"/>
<path d="M28.0002 38H33.0002V42H28.0002V38Z" fill="#C5BBDD"/>
<path d="M38.0002 220H40.0002V224H38.0002V220Z" fill="#7B8BAA"/>
<path d="M38.0002 137H40.0002V141H38.0002V137Z" fill="#7B8BAA"/>
<path d="M38.0002 62H40.0002V66H38.0002V62Z" fill="#7B8BAA"/>
<path d="M37.0002 49H39.0002V53H37.0002V49Z" fill="#7B8BAA"/>
<path d="M37.0002 38H39.0002V49H37.0002V38Z" fill="#7B8BAA"/>
<path d="M25.0002 220H27.0002V221H25.0002V220Z" fill="#F1EBFF"/>
<path d="M25.0002 137H27.0002V138H25.0002V137Z" fill="#F1EBFF"/>
<path d="M25.0002 62H27.0002V63H25.0002V62Z" fill="#F1EBFF"/>
<path d="M26.0002 42H28.0002V50H26.0002V42Z" fill="#D9DAEC"/>
<path d="M26.0002 38H28.0002V39H26.0002V38Z" fill="#F1EBFF"/>
<path d="M33.0002 220H38.0002V221H33.0002V220Z" fill="#F1EBFF"/>
<path d="M33.0002 137H38.0002V138H33.0002V137Z" fill="#F1EBFF"/>
<path d="M33.0002 62H38.0002V63H33.0002V62Z" fill="#F1EBFF"/>
<path d="M33.0002 49H37.0002V50H33.0002V49Z" fill="#F1EBFF"/>
<path d="M33.0002 38H37.0002V39H33.0002V38Z" fill="#F1EBFF"/>
<path d="M27.0002 220H33.0002V221H27.0002V220Z" fill="#CDD5FF"/>
<path d="M27.0002 137H33.0002V138H27.0002V137Z" fill="#CDD5FF"/>
<path d="M27.0002 62H33.0002V63H27.0002V62Z" fill="#CDD5FF"/>
<path d="M28.0002 49H33.0002V50H28.0002V49Z" fill="#CDD5FF"/>
<path d="M28.0002 38H33.0002V39H28.0002V38Z" fill="#CDD5FF"/>
<path d="M38.0002 220H40.0002V221H38.0002V220Z" fill="#97A0D9"/>
<path d="M38.0002 137H40.0002V138H38.0002V137Z" fill="#97A0D9"/>
<path d="M38.0002 62H40.0002V63H38.0002V62Z" fill="#97A0D9"/>
<path d="M37.0002 38H39.0002V39H37.0002V38Z" fill="#97A0D9"/>
<path fill-rule="evenodd" clip-rule="evenodd" d="M26.0002 49C26.0002 48.4477 25.5525 48 25.0002 48H21.0002C20.4479 48 20.0002 48.4477 20.0002 49V54C20.0002 54.5523 20.4479 55 21.0002 55H25.0002C25.5525 55 26.0002 54.5523 26.0002 54V49Z" fill="#C5BBDD"/>
<path fill-rule="evenodd" clip-rule="evenodd" d="M26.0002 38C26.0002 37.4477 25.5525 37 25.0002 37H21.0002C20.4479 37 20.0002 37.4477 20.0002 38V43C20.0002 43.5523 20.4479 44 21.0002 44H25.0002C25.5525 44 26.0002 43.5523 26.0002 43V38Z" fill="#C5BBDD"/>
<path fill-rule="evenodd" clip-rule="evenodd" d="M24.0002 55H25.0002C25.5525 55 26.0002 54.5523 26.0002 54V49C26.0002 48.4477 25.5525 48 25.0002 48H24.0002V55Z" fill="#F1EBFF"/>
<path fill-rule="evenodd" clip-rule="evenodd" d="M24.0002 44H25.0002C25.5525 44 26.0002 43.5523 26.0002 43V38C26.0002 37.4477 25.5525 37 25.0002 37H24.0002V44Z" fill="#F1EBFF"/>
<path fill-rule="evenodd" clip-rule="evenodd" d="M20.0002 54C20.0002 54.5523 20.4479 55 21.0002 55H25.0002C25.5525 55 26.0002 54.5523 26.0002 54H20.0002Z" fill="#CDD5FF"/>
<path fill-rule="evenodd" clip-rule="evenodd" d="M20.0002 43C20.0002 43.5523 20.4479 44 21.0002 44H25.0002C25.5525 44 26.0002 43.5523 26.0002 43H20.0002Z" fill="#CDD5FF"/>
<path fill-rule="evenodd" clip-rule="evenodd" d="M32.655 18C35.2128 18 37.3582 16.0696 37.6273 13.5259L38.0002 10L27.0002 10L27.3731 13.5259C27.6422 16.0696 29.7875 18 32.3454 18L32.655 18Z" fill="#0E0C14"/>
<path d="M31.0002 180C31.0002 179.448 31.4479 179 32.0002 179V179C32.5525 179 33.0002 179.448 33.0002 180V216C33.0002 216.552 32.5525 217 32.0002 217V217C31.4479 217 31.0002 216.552 31.0002 216V180Z" fill="#D9DAEC"/>
<path d="M23.0002 123C23.0002 122.448 23.4479 122 24.0002 122V122C24.5525 122 25.0002 122.448 25.0002 123V180C25.0002 180.552 24.5525 181 24.0002 181V181C23.4479 181 23.0002 180.552 23.0002 180V123Z" fill="#D9DAEC"/>
<path d="M23.0002 70H25.0002V76H23.0002V70Z" fill="#D9DAEC"/>
<path d="M23.0002 70H24.0002V72H23.0002V70Z" fill="#F1EBFF"/>
<path d="M24.0002 72H25.0002V76H24.0002V72Z" fill="#97A0D9"/>
<path fill-rule="evenodd" clip-rule="evenodd" d="M32.0002 217V179C32.5525 179 33.0002 179.448 33.0002 180V216C33.0002 216.552 32.5525 217 32.0002 217Z" fill="#7B8BAA"/>
<path fill-rule="evenodd" clip-rule="evenodd" d="M24.0002 181V122C24.5525 122 25.0002 122.448 25.0002 123V180C25.0002 180.552 24.5525 181 24.0002 181Z" fill="#7B8BAA"/>
<path fill-rule="evenodd" clip-rule="evenodd" d="M31.0002 216C31.0002 216.552 31.4479 217 32.0002 217C32.5525 217 33.0002 216.552 33.0002 216C33.0002 215.448 32.5525 215 32.0002 215V215.5C32.0002 215.776 31.7763 216 31.5002 216H31.0002Z" fill="#7B8BAA"/>
<path fill-rule="evenodd" clip-rule="evenodd" d="M23.0002 180C23.0002 180.552 23.4479 181 24.0002 181C24.5525 181 25.0002 180.552 25.0002 180C25.0002 179.448 24.5525 179 24.0002 179V179.5C24.0002 179.776 23.7763 180 23.5002 180H23.0002Z" fill="#7B8BAA"/>
<path fill-rule="evenodd" clip-rule="evenodd" d="M32.0002 181C31.4479 181 31.0002 180.552 31.0002 180C31.0002 179.448 31.4479 179 32.0002 179C32.5525 179 33.0002 179.448 33.0002 180L32.5002 180C32.224 180 32.0002 180.224 32.0002 180.5L32.0002 181Z" fill="#D9DAEC"/>
<path fill-rule="evenodd" clip-rule="evenodd" d="M24.0002 124C23.4479 124 23.0002 123.552 23.0002 123C23.0002 122.448 23.4479 122 24.0002 122C24.5525 122 25.0002 122.448 25.0002 123L24.5002 123C24.224 123 24.0002 123.224 24.0002 123.5L24.0002 124Z" fill="#D9DAEC"/>
<path d="M30.0002 88C30.0002 86.3431 31.3433 85 33.0002 85V85C34.657 85 36.0002 86.3431 36.0002 88V88C36.0002 89.6569 34.657 91 33.0002 91V91C31.3433 91 30.0002 89.6569 30.0002 88V88Z" fill="#D9DAEC"/>
<path d="M31.5002 86.5607C31.5002 85.9749 31.9751 85.5 32.5608 85.5H33.4395C34.0253 85.5 34.5002 85.9749 34.5002 86.5607V86.5607C34.5002 86.842 34.3884 87.1117 34.1895 87.3107L33.8537 87.6464C33.6274 87.8728 33.3203 88 33.0002 88V88C32.68 88 32.373 87.8728 32.1466 87.6464L31.8108 87.3107C31.6119 87.1117 31.5002 86.842 31.5002 86.5607V86.5607Z" fill="#97A0D9"/>
<path d="M25.0002 185C25.0002 183.343 26.3433 182 28.0002 182V182C29.657 182 31.0002 183.343 31.0002 185V185C31.0002 186.657 29.657 188 28.0002 188V188C26.3433 188 25.0002 186.657 25.0002 185V185Z" fill="#D9DAEC"/>
<path d="M26.5002 183.561C26.5002 182.975 26.9751 182.5 27.5608 182.5H28.4395C29.0253 182.5 29.5002 182.975 29.5002 183.561V183.561C29.5002 183.842 29.3884 184.112 29.1895 184.311L28.8537 184.646C28.6274 184.873 28.3203 185 28.0002 185V185C27.68 185 27.373 184.873 27.1466 184.646L26.8108 184.311C26.6119 184.112 26.5002 183.842 26.5002 183.561V183.561Z" fill="#97A0D9"/>
<path d="M25.0002 212C25.0002 210.343 26.3433 209 28.0002 209V209C29.657 209 31.0002 210.343 31.0002 212V212C31.0002 213.657 29.657 215 28.0002 215V215C26.3433 215 25.0002 213.657 25.0002 212V212Z" fill="#D9DAEC"/>
<path d="M26.5002 210.561C26.5002 209.975 26.9751 209.5 27.5608 209.5H28.4395C29.0253 209.5 29.5002 209.975 29.5002 210.561V210.561C29.5002 210.842 29.3884 211.112 29.1895 211.311L28.8537 211.646C28.6274 211.873 28.3203 212 28.0002 212V212C27.68 212 27.373 211.873 27.1466 211.646L26.8108 211.311C26.6119 211.112 26.5002 210.842 26.5002 210.561V210.561Z" fill="#97A0D9"/>
<path d="M33.0002 199C33.0002 197.343 34.3433 196 36.0002 196V196C37.657 196 39.0002 197.343 39.0002 199V199C39.0002 200.657 37.657 202 36.0002 202V202C34.3433 202 33.0002 200.657 33.0002 199V199Z" fill="#D9DAEC"/>
<path d="M34.5002 197.561C34.5002 196.975 34.9751 196.5 35.5608 196.5H36.4395C37.0253 196.5 37.5002 196.975 37.5002 197.561V197.561C37.5002 197.842 37.3884 198.112 37.1895 198.311L36.8537 198.646C36.6274 198.873 36.3203 199 36.0002 199V199C35.68 199 35.373 198.873 35.1466 198.646L34.8108 198.311C34.6119 198.112 34.5002 197.842 34.5002 197.561V197.561Z" fill="#97A0D9"/>
<path fill-rule="evenodd" clip-rule="evenodd" d="M35.0002 111C35.0002 109.343 33.657 108 32.0002 108C30.8105 108 29.7826 108.692 29.2975 109.696C29.085 110.136 28.6839 110.5 28.1955 110.5H24.5002C24.224 110.5 24.0002 110.724 24.0002 111C24.0002 111.276 24.224 111.5 24.5002 111.5H28.1955C28.6839 111.5 29.085 111.864 29.2975 112.304C29.7826 113.308 30.8105 114 32.0002 114C33.657 114 35.0002 112.657 35.0002 111ZM30.0002 111C30.0002 109.895 30.8956 109 32.0002 109C33.1048 109 34.0002 109.895 34.0002 111C34.0002 112.105 33.1048 113 32.0002 113C30.8956 113 30.0002 112.105 30.0002 111Z" fill="#D9DAEC"/>
<path fill-rule="evenodd" clip-rule="evenodd" d="M28.0002 111.5H28.1955C28.6839 111.5 29.085 111.864 29.2975 112.304C29.7826 113.308 30.8105 114 32.0002 114C33.657 114 35.0002 112.657 35.0002 111H34.0002C34.0002 112.105 33.1048 113 32.0002 113C30.8956 113 30.0002 112.105 30.0002 111H28.0002H24.0002C24.0002 111.276 24.224 111.5 24.5002 111.5H28.0002Z" fill="#97A0D9"/>
<path fill-rule="evenodd" clip-rule="evenodd" d="M35.0002 125C35.0002 123.343 33.657 122 32.0002 122C30.8105 122 29.7826 122.692 29.2975 123.696C29.085 124.136 28.6839 124.5 28.1955 124.5H24.5002C24.224 124.5 24.0002 124.724 24.0002 125C24.0002 125.276 24.224 125.5 24.5002 125.5H28.1955C28.6839 125.5 29.085 125.864 29.2975 126.304C29.7826 127.308 30.8105 128 32.0002 128C33.657 128 35.0002 126.657 35.0002 125ZM30.0002 125C30.0002 123.895 30.8956 123 32.0002 123C33.1048 123 34.0002 123.895 34.0002 125C34.0002 126.105 33.1048 127 32.0002 127C30.8956 127 30.0002 126.105 30.0002 125Z" fill="#D9D9D9"/>
<path fill-rule="evenodd" clip-rule="evenodd" d="M28.0002 125.5H28.1955C28.6839 125.5 29.085 125.864 29.2975 126.304C29.7826 127.308 30.8105 128 32.0002 128C33.657 128 35.0002 126.657 35.0002 125H34.0002C34.0002 126.105 33.1048 127 32.0002 127C30.8956 127 30.0002 126.105 30.0002 125H28.0002H24.0002C24.0002 125.276 24.224 125.5 24.5002 125.5H28.0002Z" fill="#97A0D9"/>
<path fill-rule="evenodd" clip-rule="evenodd" d="M36.0002 155C36.0002 153.343 34.657 152 33.0002 152C31.8105 152 30.7826 152.692 30.2975 153.696C30.085 154.136 29.6839 154.5 29.1955 154.5H25.5002C25.224 154.5 25.0002 154.724 25.0002 155C25.0002 155.276 25.224 155.5 25.5002 155.5H29.1955C29.6839 155.5 30.085 155.864 30.2975 156.304C30.7826 157.308 31.8105 158 33.0002 158C34.657 158 36.0002 156.657 36.0002 155ZM31.0002 155C31.0002 153.895 31.8956 153 33.0002 153C34.1048 153 35.0002 153.895 35.0002 155C35.0002 156.105 34.1048 157 33.0002 157C31.8956 157 31.0002 156.105 31.0002 155Z" fill="#D9D9D9"/>
<path fill-rule="evenodd" clip-rule="evenodd" d="M29.0002 155.5H29.1955C29.6839 155.5 30.085 155.864 30.2975 156.304C30.7826 157.308 31.8105 158 33.0002 158C34.657 158 36.0002 156.657 36.0002 155H35.0002C35.0002 156.105 34.1048 157 33.0002 157C31.8956 157 31.0002 156.105 31.0002 155H29.0002H25.0002C25.0002 155.276 25.224 155.5 25.5002 155.5H29.0002Z" fill="#97A0D9"/>
<path fill-rule="evenodd" clip-rule="evenodd" d="M36.0002 162C36.0002 160.343 34.657 159 33.0002 159C31.8105 159 30.7826 159.692 30.2975 160.696C30.085 161.136 29.6839 161.5 29.1955 161.5H25.5002C25.224 161.5 25.0002 161.724 25.0002 162C25.0002 162.276 25.224 162.5 25.5002 162.5H29.1955C29.6839 162.5 30.085 162.864 30.2975 163.304C30.7826 164.308 31.8105 165 33.0002 165C34.657 165 36.0002 163.657 36.0002 162ZM31.0002 162C31.0002 160.895 31.8956 160 33.0002 160C34.1048 160 35.0002 160.895 35.0002 162C35.0002 163.105 34.1048 164 33.0002 164C31.8956 164 31.0002 163.105 31.0002 162Z" fill="#D9D9D9"/>
<path fill-rule="evenodd" clip-rule="evenodd" d="M29.0002 162.5H29.1955C29.6839 162.5 30.085 162.864 30.2975 163.304C30.7826 164.308 31.8105 165 33.0002 165C34.657 165 36.0002 163.657 36.0002 162H35.0002C35.0002 163.105 34.1048 164 33.0002 164C31.8956 164 31.0002 163.105 31.0002 162H29.0002H25.0002C25.0002 162.276 25.224 162.5 25.5002 162.5H29.0002Z" fill="#97A0D9"/>
<path fill-rule="evenodd" clip-rule="evenodd" d="M36.0002 169C36.0002 167.343 34.657 166 33.0002 166C31.8105 166 30.7826 166.692 30.2975 167.696C30.085 168.136 29.6839 168.5 29.1955 168.5H25.5002C25.224 168.5 25.0002 168.724 25.0002 169C25.0002 169.276 25.224 169.5 25.5002 169.5H29.1955C29.6839 169.5 30.085 169.864 30.2975 170.304C30.7826 171.308 31.8105 172 33.0002 172C34.657 172 36.0002 170.657 36.0002 169ZM31.0002 169C31.0002 167.895 31.8956 167 33.0002 167C34.1048 167 35.0002 167.895 35.0002 169C35.0002 170.105 34.1048 171 33.0002 171C31.8956 171 31.0002 170.105 31.0002 169Z" fill="#D9D9D9"/>
<path fill-rule="evenodd" clip-rule="evenodd" d="M29.0002 169.5H29.1955C29.6839 169.5 30.085 169.864 30.2975 170.304C30.7826 171.308 31.8105 172 33.0002 172C34.657 172 36.0002 170.657 36.0002 169H35.0002C35.0002 170.105 34.1048 171 33.0002 171C31.8956 171 31.0002 170.105 31.0002 169H29.0002H25.0002C25.0002 169.276 25.224 169.5 25.5002 169.5H29.0002Z" fill="#97A0D9"/>
<path fill-rule="evenodd" clip-rule="evenodd" d="M32.0002 115C33.657 115 35.0002 116.343 35.0002 118C35.0002 119.657 33.657 121 32.0002 121C30.8105 121 29.7826 120.308 29.2975 119.304C29.085 118.864 28.6839 118.5 28.1955 118.5H24.5002C24.224 118.5 24.0002 118.276 24.0002 118C24.0002 117.724 24.224 117.5 24.5002 117.5H28.1955C28.6839 117.5 29.085 117.136 29.2975 116.696C29.7826 115.692 30.8105 115 32.0002 115Z" fill="#D9DAEC"/>
<path fill-rule="evenodd" clip-rule="evenodd" d="M24.0002 118H35.0002C35.0002 119.657 33.657 121 32.0002 121C30.8105 121 29.7826 120.308 29.2975 119.304C29.085 118.864 28.6839 118.5 28.1955 118.5H24.5002C24.224 118.5 24.0002 118.276 24.0002 118Z" fill="#97A0D9"/>
<path fill-rule="evenodd" clip-rule="evenodd" d="M33.0002 144C34.657 144 36.0002 145.343 36.0002 147C36.0002 148.657 34.657 150 33.0002 150C31.8105 150 30.7826 149.308 30.2975 148.304C30.085 147.864 29.6839 147.5 29.1955 147.5H25.5002C25.224 147.5 25.0002 147.276 25.0002 147C25.0002 146.724 25.224 146.5 25.5002 146.5H29.1955C29.6839 146.5 30.085 146.136 30.2975 145.696C30.7826 144.692 31.8105 144 33.0002 144Z" fill="#D9DAEC"/>
<path fill-rule="evenodd" clip-rule="evenodd" d="M25.0002 147H36.0002C36.0002 148.657 34.657 150 33.0002 150C31.8105 150 30.7826 149.308 30.2975 148.304C30.085 147.864 29.6839 147.5 29.1955 147.5H25.5002C25.224 147.5 25.0002 147.276 25.0002 147Z" fill="#97A0D9"/>
</svg>
