<svg width="31" height="305" viewBox="0 0 31 305" fill="none" xmlns="http://www.w3.org/2000/svg">
<path fill-rule="evenodd" clip-rule="evenodd" d="M24 297C25.6569 297 27 298.343 27 300C27 301.657 25.6569 303 24 303H10C8.34315 303 7 301.657 7 300C7 298.694 7.83481 297.583 9 297.171V297V297V289V287C6.23858 287 4 284.761 4 282C4 279.239 6.23858 277 9 277V269V267C6.58104 267 4.56329 265.282 4.10002 263H4C3.44772 263 3 262.552 3 262C3 261.898 3.01542 261.799 3.04406 261.706C3.01576 261.643 3 261.573 3 261.5L3 261L3 242.001L3 242L3 241.999L3 222.002L3 222L3 221.998L3 202.005L3 202L3 201.995L3 182.003L3 182L3 181.997L3 162C2.44772 162 2 161.552 2 161C2 160.448 2.44772 160 3 160L3 143C2.44772 143 2 142.552 2 142C2 141.448 2.44772 141 3 141L3.00001 122.004L3 122L3.00001 121.996V121.5C3.00001 121.224 3.22386 121 3.5 121C3.57326 121 3.64283 121.016 3.70553 121.044C3.79862 121.015 3.89751 121 4 121H4.10002C4.56329 118.718 6.58104 117 9 117V92H8C7.44771 92 7 91.5523 7 91C7 90.4477 7.44772 90 8 90H9V64H8C7.44771 64 7 63.5523 7 63C7 62.4477 7.44772 62 8 62H9V52C6.23858 52 4 49.7614 4 47V27C4 24.2386 6.23858 22 9 22V7C9 4.23858 11.2386 2 14 2H19C21.7614 2 24 4.23857 24 7V22C26.7614 22 29 24.2386 29 27V47C29 49.7614 26.7614 52 24 52V53V62H25C25.5523 62 26 62.4477 26 63C26 63.5523 25.5523 64 25 64H24V65V90H25C25.5523 90 26 90.4477 26 91C26 91.5523 25.5523 92 25 92H24V93V193.133C24 191.955 24.955 191 26.1331 191C27.5619 191 28.5868 192.377 28.1762 193.746L26.2452 200.183C26.0997 200.668 25.6532 201 25.1468 201C24.5134 201 24 200.487 24 199.853V202.732V254.268V254.5C24 253.119 25.1193 252 26.5 252C27.8807 252 29 253.119 29 254.5V259.5C29 260.881 27.8807 262 26.5 262C25.1193 262 24 260.881 24 259.5V263.732V297ZM9 127C7.3644 127 5.91223 126.215 5 125V126L5 139C5.91223 137.785 7.3644 137 9 137V129V127ZM5 145C5.91223 146.215 7.3644 147 9 147V149V157C7.3644 157 5.91223 157.785 5 159L5 146L5 145ZM5 206V208L5 219C5.91222 217.785 7.3644 217 9 217V209V206.9C8.67689 206.966 8.34247 207 8 207C6.87439 207 5.83566 206.628 5 206ZM9 197.1V189V187C7.3644 187 5.91223 186.215 5 185L5 198C5.83566 197.372 6.87439 197 8 197C8.34247 197 8.67689 197.034 9 197.1ZM9 169V177C7.3644 177 5.91223 177.785 5 179L5 166L5 165C5.91223 166.215 7.3644 167 9 167V169ZM4.99999 259C5.91222 257.785 7.3644 257 9 257V249V247C7.3644 247 5.91223 246.215 5 245L5 246L4.99999 259ZM5 239L5 226L5 225C5.91223 226.215 7.3644 227 9 227V229V237C7.3644 237 5.91222 237.785 5 239Z" fill="#87899B"/>
<path fill-rule="evenodd" clip-rule="evenodd" d="M3 242L3 239.004L3 239L3 222L3 219.004L3 219L3 202L3 198.005L3 198L3 185L3 184.996L3 182.003L3 182L3 181.997L3 179.004L3 179L3 162C2.44772 162 2 161.552 2 161C2 160.448 2.44772 160 3 160L3 143C2.44772 143 2 142.552 2 142C2 141.448 2.44772 141 3 141L3 139V125C3 124.999 3 124.997 3.00001 124.996L3.00001 122.004L3 122L3.00001 121.996V121.5C3.00001 121.224 3.22386 121 3.5 121C3.57326 121 3.64283 121.016 3.70553 121.044C3.79862 121.015 3.89751 121 4 121H4.10002C4.56329 118.718 6.58104 117 9 117V92H8C7.44771 92 7 91.5523 7 91C7 90.4477 7.44772 90 8 90H9V64H8C7.44771 64 7 63.5523 7 63C7 62.4477 7.44772 62 8 62H9V52C6.23858 52 4 49.7614 4 47V27C4 24.2386 6.23858 22 9 22V7C9 4.23858 11.2386 2 14 2H19C21.7614 2 24 4.23857 24 7V22C26.7614 22 29 24.2386 29 27V47C29 49.7614 26.7614 52 24 52V62H25C25.5523 62 26 62.4477 26 63C26 63.5523 25.5523 64 25 64H24V90H25C25.5523 90 26 90.4477 26 91C26 91.5523 25.5523 92 25 92H24V193.133C24 192 24.8839 191.073 26 191.004C26.044 191.001 26.0884 191 26.1331 191C27.5619 191 28.5868 192.377 28.1762 193.746L26.2452 200.183C26.1954 200.349 26.1105 200.497 26 200.62C25.7873 200.856 25.48 201 25.1468 201C24.5134 201 24 200.487 24 199.853V254.5C24 254.422 24.0036 254.344 24.0107 254.268C24.1125 253.163 24.9328 252.267 26 252.05C26.1616 252.017 26.3288 252 26.5 252C27.8807 252 29 253.119 29 254.5V259.5C29 260.881 27.8807 262 26.5 262C26.3288 262 26.1616 261.983 26 261.95C24.8589 261.718 24 260.709 24 259.5V297C25.6569 297 27 298.343 27 300C27 301.657 25.6569 303 24 303H10C8.34315 303 7 301.657 7 300C7 298.694 7.83481 297.583 9 297.171V287C6.23858 287 4 284.761 4 282C4 279.239 6.23858 277 9 277V267C6.58104 267 4.56329 265.282 4.10002 263H4C3.44772 263 3 262.552 3 262C3 261.898 3.01542 261.799 3.04406 261.706C3.01576 261.643 3 261.573 3 261.5L3 259.004L2.99999 259L3 242ZM1.01136 261.738C1.00384 261.66 1 261.58 1 261.5L0.999999 241.999L1 241.997L1 222.003L0.999997 221.998L1 221.996L0.999999 201.999L1 182.003L0.999995 181.997L1 181.996L1 163.236C0.386252 162.687 0 161.889 0 161C0 160.111 0.386252 159.313 1 158.764L1 144.236C0.386252 143.687 0 142.889 0 142C0 141.111 0.386252 140.313 1 139.764M1.01136 261.738C1.00383 261.825 1 261.912 1 262C1 263.11 1.60263 264.079 2.49852 264.598C3.28709 266.569 4.94527 268.099 7 268.71V275.29C4.10851 276.15 2 278.829 2 282C2 285.171 4.10851 287.85 7 288.71V296C5.78662 296.911 5 298.362 5 300C5 302.761 7.23858 305 10 305H24C26.7614 305 29 302.761 29 300C29 297.95 27.7659 296.188 26 295.416V263.973C26.1642 263.991 26.331 264 26.5 264C28.9853 264 31 261.985 31 259.5V254.5C31 252.015 28.9853 250 26.5 250C26.331 250 26.1642 250.009 26 250.027V202.882C27.0176 202.596 27.846 201.807 28.1608 200.757L30.0918 194.321C30.8874 191.669 28.9017 189 26.1331 189C26.0886 189 26.0442 189.001 26 189.002V93.8293C27.1652 93.4175 28 92.3062 28 91C28 89.6938 27.1652 88.5825 26 88.1707V65.8293C27.1652 65.4175 28 64.3062 28 63C28 61.6938 27.1652 60.5825 26 60.1707V53.7101C28.8915 52.8496 31 50.171 31 47V27C31 23.829 28.8915 21.1504 26 20.2899V7C26 3.134 22.866 0 19 0H14C10.134 0 7 3.13401 7 7V20.2899C4.10851 21.1504 2 23.829 2 27V47C2 50.171 4.10851 52.8496 7 53.7101V60.1707C5.83481 60.5825 5 61.6938 5 63C5 64.3062 5.83481 65.4175 7 65.8293V88.1707C5.83481 88.5825 5 89.6938 5 91C5 92.3062 5.83481 93.4175 7 93.8293V115.29C5.02738 115.877 3.42024 117.31 2.59719 119.168C1.66265 119.53 1.00001 120.438 1.00001 121.5V121.996L1 122.003M5 139C5.51562 138.313 6.20375 137.764 7 137.416C7.61246 137.148 8.2889 137 9 137V127C8.2889 127 7.61246 126.852 7 126.584C6.64281 126.428 6.30737 126.231 5.99951 126C5.62109 125.716 5.28432 125.379 5 125L5 139ZM5 179C5.51562 178.313 6.20375 177.764 7 177.416C7.61246 177.148 8.28889 177 9 177V167C8.2889 167 7.61246 166.852 7 166.584C6.64281 166.428 6.30737 166.231 5.99951 166C5.62109 165.716 5.28432 165.379 5 165L5 179ZM5 159C5.51562 158.313 6.20375 157.764 7 157.416C7.61246 157.148 8.28889 157 9 157V147C8.2889 147 7.61246 146.852 7 146.584C6.64281 146.428 6.30737 146.231 5.99951 146C5.62109 145.716 5.28432 145.379 5 145L5 159ZM4.99999 259C5.51562 258.313 6.20374 257.764 6.99999 257.416C7.61246 257.148 8.28889 257 9 257V247C8.2889 247 7.61246 246.852 7 246.584C6.64281 246.428 6.30737 246.231 5.99951 246C5.62108 245.716 5.28432 245.379 5 245L4.99999 259ZM5 206C5.58141 206.437 6.26112 206.75 7 206.9C7.32311 206.966 7.65753 207 8 207C8.34247 207 8.67689 206.966 9 206.9V217C8.28889 217 7.61246 217.148 7 217.416C6.20374 217.764 5.51562 218.313 5 219L5 206ZM5 225L5 239C5.51562 238.313 6.20374 237.764 7 237.416C7.61246 237.148 8.28889 237 9 237V227C8.2889 227 7.61246 226.852 7 226.584C6.64281 226.428 6.30737 226.231 5.99951 226C5.62108 225.716 5.28432 225.379 5 225ZM5 198C5.58141 197.563 6.26112 197.25 7 197.1C7.32311 197.034 7.65753 197 8 197C8.34247 197 8.67689 197.034 9 197.1V187C8.28889 187 7.61246 186.852 7 186.584C6.20375 186.236 5.51562 185.687 5 185L5 198Z" fill="white"/>
<path fill-rule="evenodd" clip-rule="evenodd" d="M14 302C11.2386 302 9 299.761 9 297L9 7C9 4.23858 11.2386 2 14 2H19C21.7614 2 24 4.23857 24 7L24 297C24 299.761 21.7614 302 19 302H14Z" fill="#B3B4BF"/>
<path d="M3 122C3 121.448 3.44772 121 4 121H22C22.5523 121 23 121.448 23 122V122C23 122.552 22.5523 123 22 123H4C3.44772 123 3 122.552 3 122V122Z" fill="#B3B4BF"/>
<path d="M2 142C2 141.448 2.44772 141 3 141H21C21.5523 141 22 141.448 22 142V142C22 142.552 21.5523 143 21 143H3C2.44772 143 2 142.552 2 142V142Z" fill="#B3B4BF"/>
<path d="M2 161C2 160.448 2.44772 160 3 160H21C21.5523 160 22 160.448 22 161V161C22 161.552 21.5523 162 21 162H3C2.44772 162 2 161.552 2 161V161Z" fill="#B3B4BF"/>
<path d="M3 182C3 181.448 3.44772 181 4 181H22C22.5523 181 23 181.448 23 182V182C23 182.552 22.5523 183 22 183H4C3.44772 183 3 182.552 3 182V182Z" fill="#B3B4BF"/>
<path d="M3 202C3 201.448 3.44772 201 4 201H22C22.5523 201 23 201.448 23 202V202C23 202.552 22.5523 203 22 203H4C3.44772 203 3 202.552 3 202V202Z" fill="#B3B4BF"/>
<path d="M3 222C3 221.448 3.44772 221 4 221H22C22.5523 221 23 221.448 23 222V222C23 222.552 22.5523 223 22 223H4C3.44772 223 3 222.552 3 222V222Z" fill="#B3B4BF"/>
<path d="M3 262C3 261.448 3.44772 261 4 261H22C22.5523 261 23 261.448 23 262V262C23 262.552 22.5523 263 22 263H4C3.44772 263 3 262.552 3 262V262Z" fill="#B3B4BF"/>
<path d="M3 242C3 241.448 3.44772 241 4 241H22C22.5523 241 23 241.448 23 242V242C23 242.552 22.5523 243 22 243H4C3.44772 243 3 242.552 3 242V242Z" fill="#B3B4BF"/>
<path d="M4 121C4.55229 121 5 121.448 5 122L4.99999 261C4.99999 261.552 4.55228 262 4 262V262C3.44771 262 3 261.552 3 261L3.00001 122C3.00001 121.448 3.44772 121 4 121V121Z" fill="#B3B4BF"/>
<path d="M3.5 121C3.77614 121 4 121.224 4 121.5L3.99999 261.5C3.99999 261.776 3.77614 262 3.5 262V262C3.22386 262 3 261.776 3 261.5L3.00001 121.5C3.00001 121.224 3.22386 121 3.5 121V121Z" fill="#D9D9DC"/>
<path d="M3.5 121C3.77614 121 4 121.224 4 121.5L3.99999 261.5C3.99999 261.776 3.77614 262 3.5 262V262C3.22386 262 3 261.776 3 261.5L3.00001 121.5C3.00001 121.224 3.22386 121 3.5 121V121Z" fill="#D9D9DC"/>
<path d="M9.50001 52C9.77614 52 10 52.2239 10 52.5L9.99999 297.5C9.99999 297.776 9.77613 298 9.49999 298V298C9.22386 298 9 297.776 9 297.5L9.00001 52.5C9.00001 52.2239 9.22387 52 9.50001 52V52Z" fill="#D9D9DC"/>
<path d="M9.50001 52C9.77614 52 10 52.2239 10 52.5L9.99999 297.5C9.99999 297.776 9.77613 298 9.49999 298V298C9.22386 298 9 297.776 9 297.5L9.00001 52.5C9.00001 52.2239 9.22387 52 9.50001 52V52Z" fill="#D9D9DC"/>
<path d="M10.5 5C10.7761 5 11 5.22386 11 5.5L11 22.5C11 22.7761 10.7761 23 10.5 23V23C10.2239 23 10 22.7761 10 22.5L10 5.5C10 5.22386 10.2239 5 10.5 5V5Z" fill="#D9D9DC"/>
<path d="M10.5 5C10.7761 5 11 5.22386 11 5.5L11 22.5C11 22.7761 10.7761 23 10.5 23V23C10.2239 23 10 22.7761 10 22.5L10 5.5C10 5.22386 10.2239 5 10.5 5V5Z" fill="#D9D9DC"/>
<path d="M24 254.5C24 253.119 25.1193 252 26.5 252V252C27.8807 252 29 253.119 29 254.5V259.5C29 260.881 27.8807 262 26.5 262V262C25.1193 262 24 260.881 24 259.5V254.5Z" fill="#B3B4BF"/>
<path d="M24 193.133C24 191.955 24.955 191 26.1331 191V191C27.5619 191 28.5868 192.377 28.1762 193.746L26.2452 200.183C26.0997 200.668 25.6532 201 25.1468 201V201C24.5134 201 24 200.487 24 199.853V193.133Z" fill="#B3B4BF"/>
<path d="M24 193.133C24 191.955 24.955 191 26.1331 191V191C27.5619 191 28.5868 192.377 28.1762 193.746L26.2452 200.183C26.0997 200.668 25.6532 201 25.1468 201V201C24.5134 201 24 200.487 24 199.853V193.133Z" fill="#B3B4BF"/>
<path d="M16 299C16 299.552 15.5523 300 15 300L9 300C8.44772 300 8 299.552 8 299V299C8 298.448 8.44772 298 9 298L15 298C15.5523 298 16 298.448 16 299V299Z" fill="#F0F0F0"/>
<path d="M4 121C4.55228 121 5 121.448 5 122V122C5 122.552 4.55228 123 4 123V123C3.44772 123 3 122.552 3 122V122C3 121.448 3.44772 121 4 121V121Z" fill="#F0F0F0"/>
<path d="M4 141C4.55228 141 5 141.448 5 142V142C5 142.552 4.55228 143 4 143V143C3.44772 143 3 142.552 3 142V142C3 141.448 3.44772 141 4 141V141Z" fill="#F0F0F0"/>
<path d="M4 160C4.55228 160 5 160.448 5 161V161C5 161.552 4.55228 162 4 162V162C3.44772 162 3 161.552 3 161V161C3 160.448 3.44772 160 4 160V160Z" fill="#F0F0F0"/>
<path d="M13 5C13.5523 5 14 5.44772 14 6L14 22C14 22.5523 13.5523 23 13 23V23C12.4477 23 12 22.5523 12 22L12 6C12 5.44772 12.4477 5 13 5V5Z" fill="#F0F0F0"/>
<path d="M12 52C12.5523 52 13 52.4477 13 53L13 296C13 296.552 12.5523 297 12 297V297C11.4477 297 11 296.552 11 296L11 53C11 52.4477 11.4477 52 12 52V52Z" fill="#F0F0F0"/>
<path d="M19 5C20.6569 5 22 6.34314 22 7.99999L22 294C22 295.657 20.6568 297 19 297V297C17.3431 297 16 295.657 16 294L16 8.00001C16 6.34316 17.3432 5 19 5V5Z" fill="#8E91AE"/>
<path fill-rule="evenodd" clip-rule="evenodd" d="M9 129C11.7614 129 14 126.761 14 124C14 121.239 11.7614 119 9 119V129Z" fill="#87899B"/>
<path fill-rule="evenodd" clip-rule="evenodd" d="M9 149C11.7614 149 14 146.761 14 144C14 141.239 11.7614 139 9 139V149Z" fill="#87899B"/>
<path fill-rule="evenodd" clip-rule="evenodd" d="M5 146C4.44772 146 4 145.552 4 145V143C4 142.448 4.44772 142 5 142V146Z" fill="#87899B"/>
<path fill-rule="evenodd" clip-rule="evenodd" d="M5 126C4.44772 126 4 125.552 4 125V123C4 122.448 4.44772 122 5 122V126Z" fill="#87899B"/>
<path fill-rule="evenodd" clip-rule="evenodd" d="M5 166C4.44772 166 4 165.552 4 165V163C4 162.448 4.44772 162 5 162V166Z" fill="#87899B"/>
<path fill-rule="evenodd" clip-rule="evenodd" d="M5 208C4.44772 208 4 207.552 4 207V205C4 204.448 4.44772 204 5 204V208Z" fill="#87899B"/>
<path fill-rule="evenodd" clip-rule="evenodd" d="M5 246C4.44772 246 4 245.552 4 245V243C4 242.448 4.44772 242 5 242V246Z" fill="#87899B"/>
<path fill-rule="evenodd" clip-rule="evenodd" d="M5 226C4.44772 226 4 225.552 4 225V223C4 222.448 4.44772 222 5 222V226Z" fill="#87899B"/>
<path fill-rule="evenodd" clip-rule="evenodd" d="M9 169C11.7614 169 14 166.761 14 164C14 161.239 11.7614 159 9 159V169Z" fill="#87899B"/>
<path fill-rule="evenodd" clip-rule="evenodd" d="M9 189C11.7614 189 14 186.761 14 184C14 181.239 11.7614 179 9 179V189Z" fill="#87899B"/>
<path fill-rule="evenodd" clip-rule="evenodd" d="M9 209C11.7614 209 14 206.761 14 204C14 201.239 11.7614 199 9 199V209Z" fill="#87899B"/>
<path fill-rule="evenodd" clip-rule="evenodd" d="M9 229C11.7614 229 14 226.761 14 224C14 221.239 11.7614 219 9 219V229Z" fill="#87899B"/>
<path fill-rule="evenodd" clip-rule="evenodd" d="M9 249C11.7614 249 14 246.761 14 244C14 241.239 11.7614 239 9 239V249Z" fill="#87899B"/>
<path fill-rule="evenodd" clip-rule="evenodd" d="M9 269C11.7614 269 14 266.761 14 264C14 261.239 11.7614 259 9 259V269Z" fill="#87899B"/>
<path fill-rule="evenodd" clip-rule="evenodd" d="M9 289C11.7614 289 14 286.761 14 284C14 281.239 11.7614 279 9 279V289Z" fill="#87899B"/>
<path d="M4 282C4 279.239 6.23858 277 9 277V277C11.7614 277 14 279.239 14 282V282C14 284.761 11.7614 287 9 287V287C6.23858 287 4 284.761 4 282V282Z" fill="#B3B4BF"/>
<path d="M4 262C4 259.239 6.23858 257 9 257V257C11.7614 257 14 259.239 14 262V262C14 264.761 11.7614 267 9 267V267C6.23858 267 4 264.761 4 262V262Z" fill="#B3B4BF"/>
<path d="M4 242C4 239.239 6.23858 237 9 237V237C11.7614 237 14 239.239 14 242V242C14 244.761 11.7614 247 9 247V247C6.23858 247 4 244.761 4 242V242Z" fill="#B3B4BF"/>
<path d="M4 222C4 219.239 6.23858 217 9 217V217C11.7614 217 14 219.239 14 222V222C14 224.761 11.7614 227 9 227V227C6.23858 227 4 224.761 4 222V222Z" fill="#B3B4BF"/>
<path d="M3 202C3 199.239 5.23858 197 8 197V197C10.7614 197 13 199.239 13 202V202C13 204.761 10.7614 207 8 207V207C5.23858 207 3 204.761 3 202V202Z" fill="#B3B4BF"/>
<path d="M4 182C4 179.239 6.23858 177 9 177V177C11.7614 177 14 179.239 14 182V182C14 184.761 11.7614 187 9 187V187C6.23858 187 4 184.761 4 182V182Z" fill="#B3B4BF"/>
<path d="M4 162C4 159.239 6.23858 157 9 157V157C11.7614 157 14 159.239 14 162V162C14 164.761 11.7614 167 9 167V167C6.23858 167 4 164.761 4 162V162Z" fill="#B3B4BF"/>
<path d="M4 122C4 119.239 6.23858 117 9 117V117C11.7614 117 14 119.239 14 122V122C14 124.761 11.7614 127 9 127V127C6.23858 127 4 124.761 4 122V122Z" fill="#B3B4BF"/>
<path fill-rule="evenodd" clip-rule="evenodd" d="M12 121.5C12.2761 121.5 12.5 121.724 12.5 122C12.5 123.933 10.933 125.5 9 125.5C8.72386 125.5 8.5 125.276 8.5 125C8.5 124.724 8.72386 124.5 9 124.5C10.3807 124.5 11.5 123.381 11.5 122C11.5 121.724 11.7239 121.5 12 121.5Z" fill="#F0F0F0"/>
<path fill-rule="evenodd" clip-rule="evenodd" d="M12 161.5C12.2761 161.5 12.5 161.724 12.5 162C12.5 163.933 10.933 165.5 9 165.5C8.72386 165.5 8.5 165.276 8.5 165C8.5 164.724 8.72386 164.5 9 164.5C10.3807 164.5 11.5 163.381 11.5 162C11.5 161.724 11.7239 161.5 12 161.5Z" fill="#F0F0F0"/>
<path fill-rule="evenodd" clip-rule="evenodd" d="M12 181.5C12.2761 181.5 12.5 181.724 12.5 182C12.5 183.933 10.933 185.5 9 185.5C8.72386 185.5 8.5 185.276 8.5 185C8.5 184.724 8.72386 184.5 9 184.5C10.3807 184.5 11.5 183.381 11.5 182C11.5 181.724 11.7239 181.5 12 181.5Z" fill="#F0F0F0"/>
<path fill-rule="evenodd" clip-rule="evenodd" d="M12 201.5C12.2761 201.5 12.5 201.724 12.5 202C12.5 203.933 10.933 205.5 9 205.5C8.72386 205.5 8.5 205.276 8.5 205C8.5 204.724 8.72386 204.5 9 204.5C10.3807 204.5 11.5 203.381 11.5 202C11.5 201.724 11.7239 201.5 12 201.5Z" fill="#F0F0F0"/>
<path fill-rule="evenodd" clip-rule="evenodd" d="M12 221.5C12.2761 221.5 12.5 221.724 12.5 222C12.5 223.933 10.933 225.5 9 225.5C8.72386 225.5 8.5 225.276 8.5 225C8.5 224.724 8.72386 224.5 9 224.5C10.3807 224.5 11.5 223.381 11.5 222C11.5 221.724 11.7239 221.5 12 221.5Z" fill="#F0F0F0"/>
<path fill-rule="evenodd" clip-rule="evenodd" d="M12 241.5C12.2761 241.5 12.5 241.724 12.5 242C12.5 243.933 10.933 245.5 9 245.5C8.72386 245.5 8.5 245.276 8.5 245C8.5 244.724 8.72386 244.5 9 244.5C10.3807 244.5 11.5 243.381 11.5 242C11.5 241.724 11.7239 241.5 12 241.5Z" fill="#F0F0F0"/>
<path fill-rule="evenodd" clip-rule="evenodd" d="M12 261.5C12.2761 261.5 12.5 261.724 12.5 262C12.5 263.933 10.933 265.5 9 265.5C8.72386 265.5 8.5 265.276 8.5 265C8.5 264.724 8.72386 264.5 9 264.5C10.3807 264.5 11.5 263.381 11.5 262C11.5 261.724 11.7239 261.5 12 261.5Z" fill="#F0F0F0"/>
<path fill-rule="evenodd" clip-rule="evenodd" d="M12 281.5C12.2761 281.5 12.5 281.724 12.5 282C12.5 283.933 10.933 285.5 9 285.5C8.72386 285.5 8.5 285.276 8.5 285C8.5 284.724 8.72386 284.5 9 284.5C10.3807 284.5 11.5 283.381 11.5 282C11.5 281.724 11.7239 281.5 12 281.5Z" fill="#F0F0F0"/>
<path fill-rule="evenodd" clip-rule="evenodd" d="M6 122.5C5.72386 122.5 5.5 122.276 5.5 122C5.5 120.067 7.067 118.5 9 118.5C9.27614 118.5 9.5 118.724 9.5 119C9.5 119.276 9.27614 119.5 9 119.5C7.61929 119.5 6.5 120.619 6.5 122C6.5 122.276 6.27614 122.5 6 122.5Z" fill="#87899B"/>
<path fill-rule="evenodd" clip-rule="evenodd" d="M6 162.5C5.72386 162.5 5.5 162.276 5.5 162C5.5 160.067 7.067 158.5 9 158.5C9.27614 158.5 9.5 158.724 9.5 159C9.5 159.276 9.27614 159.5 9 159.5C7.61929 159.5 6.5 160.619 6.5 162C6.5 162.276 6.27614 162.5 6 162.5Z" fill="#87899B"/>
<path fill-rule="evenodd" clip-rule="evenodd" d="M6 182.5C5.72386 182.5 5.5 182.276 5.5 182C5.5 180.067 7.067 178.5 9 178.5C9.27614 178.5 9.5 178.724 9.5 179C9.5 179.276 9.27614 179.5 9 179.5C7.61929 179.5 6.5 180.619 6.5 182C6.5 182.276 6.27614 182.5 6 182.5Z" fill="#87899B"/>
<path fill-rule="evenodd" clip-rule="evenodd" d="M6 202.5C5.72386 202.5 5.5 202.276 5.5 202C5.5 200.067 7.067 198.5 9 198.5C9.27614 198.5 9.5 198.724 9.5 199C9.5 199.276 9.27614 199.5 9 199.5C7.61929 199.5 6.5 200.619 6.5 202C6.5 202.276 6.27614 202.5 6 202.5Z" fill="#87899B"/>
<path fill-rule="evenodd" clip-rule="evenodd" d="M6 222.5C5.72386 222.5 5.5 222.276 5.5 222C5.5 220.067 7.067 218.5 9 218.5C9.27614 218.5 9.5 218.724 9.5 219C9.5 219.276 9.27614 219.5 9 219.5C7.61929 219.5 6.5 220.619 6.5 222C6.5 222.276 6.27614 222.5 6 222.5Z" fill="#87899B"/>
<path fill-rule="evenodd" clip-rule="evenodd" d="M6 242.5C5.72386 242.5 5.5 242.276 5.5 242C5.5 240.067 7.067 238.5 9 238.5C9.27614 238.5 9.5 238.724 9.5 239C9.5 239.276 9.27614 239.5 9 239.5C7.61929 239.5 6.5 240.619 6.5 242C6.5 242.276 6.27614 242.5 6 242.5Z" fill="#87899B"/>
<path fill-rule="evenodd" clip-rule="evenodd" d="M6 262.5C5.72386 262.5 5.5 262.276 5.5 262C5.5 260.067 7.067 258.5 9 258.5C9.27614 258.5 9.5 258.724 9.5 259C9.5 259.276 9.27614 259.5 9 259.5C7.61929 259.5 6.5 260.619 6.5 262C6.5 262.276 6.27614 262.5 6 262.5Z" fill="#87899B"/>
<path fill-rule="evenodd" clip-rule="evenodd" d="M6 282.5C5.72386 282.5 5.5 282.276 5.5 282C5.5 280.067 7.067 278.5 9 278.5C9.27614 278.5 9.5 278.724 9.5 279C9.5 279.276 9.27614 279.5 9 279.5C7.61929 279.5 6.5 280.619 6.5 282C6.5 282.276 6.27614 282.5 6 282.5Z" fill="#87899B"/>
<path d="M4 142C4 139.239 6.23858 137 9 137V137C11.7614 137 14 139.239 14 142V142C14 144.761 11.7614 147 9 147V147C6.23858 147 4 144.761 4 142V142Z" fill="#B3B4BF"/>
<path fill-rule="evenodd" clip-rule="evenodd" d="M12 141.5C12.2761 141.5 12.5 141.724 12.5 142C12.5 143.933 10.933 145.5 9 145.5C8.72386 145.5 8.5 145.276 8.5 145C8.5 144.724 8.72386 144.5 9 144.5C10.3807 144.5 11.5 143.381 11.5 142C11.5 141.724 11.7239 141.5 12 141.5Z" fill="#F0F0F0"/>
<path fill-rule="evenodd" clip-rule="evenodd" d="M6 142.5C5.72386 142.5 5.5 142.276 5.5 142C5.5 140.067 7.067 138.5 9 138.5C9.27614 138.5 9.5 138.724 9.5 139C9.5 139.276 9.27614 139.5 9 139.5C7.61929 139.5 6.5 140.619 6.5 142C6.5 142.276 6.27614 142.5 6 142.5Z" fill="#87899B"/>
<path d="M25 192.382C25 192.148 25.1323 191.934 25.3416 191.829L25.5528 191.724C25.8343 191.583 26.1657 191.583 26.4472 191.724L26.6584 191.829C26.8677 191.934 27 192.148 27 192.382V192.382C27 192.723 26.7233 193 26.382 193H25.618C25.2767 193 25 192.723 25 192.382V192.382Z" fill="#F0F0F0"/>
<path d="M25 254C25 253.448 25.4477 253 26 253V253C26.5523 253 27 253.448 27 254V255C27 255.552 26.5523 256 26 256V256C25.4477 256 25 255.552 25 255V254Z" fill="#F0F0F0"/>
<path d="M9 64C9 63.4477 9.44772 63 10 63H24V65H10C9.44772 65 9 64.5523 9 64V64Z" fill="#87899B"/>
<path d="M9 52C9 51.4477 9.44772 51 10 51H24V53H10C9.44772 53 9 52.5523 9 52V52Z" fill="#87899B"/>
<path d="M9 92C9 91.4477 9.44772 91 10 91H24V93H10C9.44772 93 9 92.5523 9 92V92Z" fill="#87899B"/>
<path d="M7 91C7 90.4477 7.44772 90 8 90H25C25.5523 90 26 90.4477 26 91V91C26 91.5523 25.5523 92 25 92H8C7.44771 92 7 91.5523 7 91V91Z" fill="#B3B4BF"/>
<path d="M8 90C8.55228 90 9 90.4477 9 91V91C9 91.5523 8.55228 92 8 92V92C7.44772 92 7 91.5523 7 91V91C7 90.4477 7.44772 90 8 90V90Z" fill="#F0F0F0"/>
<path d="M7 63C7 62.4477 7.44772 62 8 62H25C25.5523 62 26 62.4477 26 63V63C26 63.5523 25.5523 64 25 64H8C7.44771 64 7 63.5523 7 63V63Z" fill="#B3B4BF"/>
<path d="M8 62C8.55228 62 9 62.4477 9 63V63C9 63.5523 8.55228 64 8 64V64C7.44772 64 7 63.5523 7 63V63C7 62.4477 7.44772 62 8 62V62Z" fill="#F0F0F0"/>
<path d="M25 62C25.5523 62 26 62.4477 26 63V63C26 63.5523 25.5523 64 25 64V64C24.4477 64 24 63.5523 24 63V63C24 62.4477 24.4477 62 25 62V62Z" fill="#8E91AE"/>
<path d="M25 90C25.5523 90 26 90.4477 26 91V91C26 91.5523 25.5523 92 25 92V92C24.4477 92 24 91.5523 24 91V91C24 90.4477 24.4477 90 25 90V90Z" fill="#8E91AE"/>
<path d="M25 90C25.5523 90 26 90.4477 26 91V91C26 91.5523 25.5523 92 25 92V92C24.4477 92 24 91.5523 24 91V91C24 90.4477 24.4477 90 25 90V90Z" fill="#8E91AE"/>
<path d="M7 300C7 298.343 8.34315 297 10 297H24C25.6569 297 27 298.343 27 300V300C27 301.657 25.6569 303 24 303H10C8.34315 303 7 301.657 7 300V300Z" fill="#B3B4BF"/>
<path d="M16 299C16 299.552 15.5523 300 15 300L9 300C8.44772 300 8 299.552 8 299V299C8 298.448 8.44772 298 9 298L15 298C15.5523 298 16 298.448 16 299V299Z" fill="#F0F0F0"/>
<path d="M25 301.5C25 302.328 24.3284 303 23.5 303L10.5 303C9.67157 303 9 302.328 9 301.5V301.5C9 300.672 9.67157 300 10.5 300L23.5 300C24.3284 300 25 300.672 25 301.5V301.5Z" fill="#8E91AE"/>
<path d="M4 27C4 24.2386 6.23858 22 9 22H24C26.7614 22 29 24.2386 29 27V47C29 49.7614 26.7614 52 24 52H9C6.23858 52 4 49.7614 4 47V27Z" fill="#B3B4BF"/>
<path d="M9 27C9.55228 27 10 27.4477 10 28L10 46C10 46.5523 9.55228 47 9 47V47C8.44771 47 8 46.5523 8 46L8 28C8 27.4477 8.44772 27 9 27V27Z" fill="#F0F0F0"/>
<path d="M6.5 27C6.77614 27 7 27.2239 7 27.5L7 46.5C7 46.7761 6.77614 47 6.5 47V47C6.22386 47 6 46.7761 6 46.5L6 27.5C6 27.2239 6.22386 27 6.5 27V27Z" fill="#D9D9DC"/>
<path fill-rule="evenodd" clip-rule="evenodd" d="M24 254.268C23.4022 254.613 23 255.26 23 256V262C23 262.74 23.4022 263.387 24 263.732V254.268ZM24.9894 254H26.0106C26.0071 254 26.0035 254 26 254H25C24.9965 254 24.9929 254 24.9894 254Z" fill="#87899B"/>
<path fill-rule="evenodd" clip-rule="evenodd" d="M24 193.268C23.4022 193.613 23 194.26 23 195V201C23 201.74 23.4022 202.387 24 202.732V193.268ZM24.9894 193H26.0106C26.0071 193 26.0035 193 26 193H25C24.9965 193 24.9929 193 24.9894 193Z" fill="#87899B"/>
<path d="M24 52C25.6569 52 27 50.6569 27 49L27 25C27 23.3431 25.6569 22 24 22V22C22.3431 22 21 23.3431 21 25L21 49C21 50.6569 22.3431 52 24 52V52Z" fill="#8E91AE"/>
<path d="M15 32.5C15 30.567 16.567 29 18.5 29V29C20.433 29 22 30.567 22 32.5V39.5C22 41.433 20.433 43 18.5 43V43C16.567 43 15 41.433 15 39.5V32.5Z" fill="#87899B"/>
<path fill-rule="evenodd" clip-rule="evenodd" d="M15.5761 30.5757C15.212 31.1279 15 31.7893 15 32.5002V39.5002C15 41.4332 16.567 43.0002 18.5 43.0002C19.2107 43.0002 19.8718 42.7884 20.4239 42.4245C20.788 41.8723 21 41.2109 21 40.5V33.5C21 31.567 19.433 30 17.5 30C16.7893 30 16.1282 30.2118 15.5761 30.5757Z" fill="#3E4267"/>
</svg>
