<svg width="193" height="450" viewBox="0 0 193 450" fill="none" xmlns="http://www.w3.org/2000/svg">
<path fill-rule="evenodd" clip-rule="evenodd" d="M57.0148 15.5176C53.4932 17.1528 49.6573 18 45.7747 18H20.882C20.0474 16.5083 18.4522 15.5 16.6215 15.5C14.7186 15.5 12.9893 16.6064 12.192 18.334L11.8862 18.9966C11.025 20.8623 9.25574 22.1465 7.21484 22.3867L5.50598 22.5874C3.50671 22.8227 2 24.5171 2 26.5303C2 28.7227 3.77734 30.5 5.96985 30.5H14C16.2213 30.5 18.217 29.5342 19.5903 28H48.6717C51.3613 28 54.0298 27.6055 56.6043 26.8296L65.4914 24.1514C75.5568 21.1182 85.7277 27.5747 87.672 37.4585C88.4551 42.2363 87.3278 47.4863 86.2736 52.3965L86.2718 52.4053L85.5 56L85.1283 58.416C81.3201 83.1694 78.4445 108.049 76.5056 133H65.5C65.3975 133 65.2986 133.015 65.2056 133.044C65.1429 133.016 65.0733 133 65 133C64.7239 133 64.5 133.224 64.5 133.5V345.5C64.5 345.776 64.7239 346 65 346C65.0733 346 65.1429 345.984 65.2056 345.956C65.2986 345.985 65.3975 346 65.5 346H73.5V404.5C73.5 428.524 92.9756 448 117 448C141.024 448 160.5 428.524 160.5 404.5V400L160.498 399.874L160.5 399.5V383.057L162.275 303.624L165.5 223L165.5 222.956L165.836 221.131C167.167 213.906 173.224 208.536 180.5 208.03V210C180.5 212.761 182.739 215 185.5 215C188.261 215 190.5 212.761 190.5 210V155C190.5 152.239 188.261 150 185.5 150C182.739 150 180.5 152.239 180.5 155V158H180.47L180.04 158.001L180 158C179.984 158 179.968 158.001 179.953 158.002C175.496 158.039 171.146 158.524 166.946 159.415C155.114 161.802 144.13 167.495 135.317 175.92C122.66 188.019 115.5 204.767 115.5 222.276V223L115.5 223.071L115.503 223.159L115.505 223.232L115.51 223.318L115.516 223.406L116.118 238.44L120.003 349.175C120.028 349.895 120.204 350.574 120.5 351.182V399.5C120.5 401.433 118.933 403 117 403C115.067 403 113.5 401.433 113.5 399.5V370.5C113.5 370.135 113.461 369.78 113.387 369.437L112.781 208.579C112.707 188.91 112.052 169.255 110.82 149.638L110.498 142.433C109.528 120.753 105.408 88.3813 104.619 82.3115C104.53 81.6221 104.432 80.9443 104.327 80.2602L100.49 55.3184L99.0903 39.7842C97.2459 19.3115 75.6587 6.86181 57.0148 15.5176ZM67.5 135H66.5V344H67.5V135ZM73.5 338.5H69.5V328.347H73.5V338.5ZM69.5 242.5H73.5V232.347H69.5V242.5ZM73.5243 203.5H69.5V193.347H73.6467L73.6237 194.746L73.6011 196.255C73.5864 197.29 73.5732 198.325 73.5618 199.36C73.5464 200.74 73.5339 202.12 73.5243 203.5ZM69.5 325.5H73.5V315.347H69.5V325.5ZM73.5 229.5H69.5V219.347H73.5V229.5ZM69.5 190.5H73.6995C73.7671 187.115 73.8519 183.731 73.9539 180.347H69.5V190.5ZM73.5 312.5H69.5V245.347H73.5V312.5ZM69.5 216.5H73.5V210.473C73.5 209.098 73.5028 207.723 73.5085 206.347H69.5V216.5ZM74.0438 177.5H69.5V167.347H74.4304C74.2844 170.73 74.1555 174.115 74.0438 177.5ZM74.5573 164.5H69.5V154.347H75.0763C74.8861 157.73 74.7131 161.115 74.5573 164.5ZM69.5 151.5H75.2404C75.4404 148.115 75.6577 144.73 75.8921 141.347H69.5V151.5ZM76.0934 138.5H69.5V135H76.3522C76.2963 135.738 76.2413 136.476 76.1871 137.214L76.0934 138.5ZM69.5 344H73.5V341.347H69.5V344Z" fill="#0E0C14"/>
<path fill-rule="evenodd" clip-rule="evenodd" d="M56.1726 13.7034C76.0723 4.4646 99.1136 17.7529 101.082 39.6046L102.476 55.0762L106.304 79.956C106.411 80.6532 106.511 81.3465 106.603 82.0534C107.39 88.111 111.522 120.566 112.496 142.343L112.817 149.531C114.051 169.181 114.707 188.869 114.781 208.571L114.784 209.308C117.423 196.109 124.055 183.918 133.935 174.475C143.021 165.789 154.343 159.919 166.54 157.456C170.415 156.635 174.413 156.149 178.5 156.029V155C178.5 151.134 181.634 148 185.5 148C189.366 148 192.5 151.134 192.5 155V210C192.5 213.866 189.366 217 185.5 217C181.747 217 178.684 214.047 178.508 210.338C173.116 211.56 168.835 215.889 167.803 221.493L167.495 223.166L164.275 303.669L164.273 303.704L162.5 383.079V399.508L162.498 399.882L162.5 399.975L162.5 399.987V404.5C162.5 429.629 142.129 450 117 450C91.871 450 71.5 429.629 71.5 404.5V348H65.5C65.4125 348 65.3252 347.996 65.2383 347.989C65.1595 347.996 65.08 348 65 348C63.6199 348 62.5 346.881 62.5 345.5V133.5C62.5 132.118 63.6199 131 65 131C65.08 131 65.1595 131.004 65.2383 131.011C65.3252 131.004 65.4125 131 65.5 131H74.6567C76.5967 106.617 79.4296 82.3045 83.1516 58.1117L83.5322 55.6375L84.3138 51.9972L84.3157 51.9884L84.3164 51.9853L84.3181 51.9765C85.3891 46.9881 86.4038 42.1399 85.7035 37.8134C83.9673 29.0819 74.9668 23.3846 66.0685 26.0661L57.1814 28.7444C54.4202 29.5765 51.5574 29.9998 48.6717 29.9998H20.4225C18.7332 31.5501 16.4765 32.4998 14 32.4998H5.96985C2.67281 32.4998 0 29.8271 0 26.5301C0 23.5027 2.26579 20.9549 5.27216 20.601L6.98104 20.4003C6.98122 20.4002 6.98086 20.4003 6.98104 20.4003C8.33035 20.2412 9.50076 19.392 10.0702 18.1584C10.0702 18.1583 10.0702 18.1584 10.0702 18.1584L10.376 17.4958C11.5003 15.0599 13.9385 13.4998 16.6215 13.4998C18.7588 13.4998 20.6665 14.4752 21.9264 15.9998H45.7747C49.3663 15.9998 52.9149 15.2161 56.1726 13.7034ZM20.882 17.9998C20.0474 16.5081 18.4522 15.4998 16.6215 15.4998C14.7186 15.4998 12.9893 16.6063 12.192 18.3338L11.8862 18.9964C11.025 20.8621 9.25574 22.1463 7.21484 22.3866L5.50598 22.5872C3.50671 22.8226 2 24.5169 2 26.5301C2 28.7225 3.77734 30.4998 5.96985 30.4998H14C16.2213 30.4998 18.217 29.534 19.5903 27.9998H48.6717C51.3613 27.9998 54.0298 27.6053 56.6043 26.8294L65.4914 24.1512C75.5568 21.118 85.7277 27.5745 87.672 37.4583C88.455 42.2356 87.328 47.4849 86.274 52.3945L86.2736 52.3963L86.2718 52.4051L85.5 55.9998L85.1283 58.4158C81.3201 83.1693 78.4445 108.049 76.5056 133H65.5C65.3975 133 65.2986 133.015 65.2056 133.044C65.1429 133.015 65.0733 133 65 133C64.7239 133 64.5 133.223 64.5 133.5V345.5C64.5 345.776 64.7239 346 65 346C65.0733 346 65.1429 345.984 65.2056 345.956C65.2986 345.985 65.3975 346 65.5 346H73.5V404.5C73.5 428.524 92.9756 448 117 448C141.024 448 160.5 428.524 160.5 404.5V400L160.498 399.873L160.5 399.5V383.057L162.275 303.624L165.5 223L165.5 222.956L165.836 221.131C167.043 214.579 172.136 209.553 178.5 208.295C179.154 208.166 179.822 208.077 180.5 208.03V210C180.5 210.012 180.5 210.023 180.5 210.035C180.519 212.78 182.75 215 185.5 215C188.261 215 190.5 212.761 190.5 210V155C190.5 152.239 188.261 150 185.5 150C182.739 150 180.5 152.239 180.5 155V158H180.47L180.04 158.001L180 158C179.984 158 179.968 158.001 179.953 158.002C175.496 158.039 171.146 158.524 166.946 159.415C155.114 161.802 144.13 167.495 135.317 175.92C122.66 188.019 115.5 204.767 115.5 222.276V223L115.5 223.071L115.503 223.159L115.505 223.232L115.51 223.318L115.516 223.406L116.118 238.44L120.003 349.175C120.028 349.895 120.204 350.574 120.5 351.182V399.5C120.5 401.433 118.933 403 117 403C115.067 403 113.5 401.433 113.5 399.5V370.5C113.5 370.135 113.461 369.78 113.387 369.437L112.781 208.578C112.707 188.91 112.052 169.255 110.82 149.638L110.498 142.432C109.528 120.753 105.408 88.3812 104.619 82.3114C104.53 81.6219 104.432 80.9442 104.327 80.2601L100.49 55.3182L99.0903 39.784C97.2459 19.3114 75.6587 6.86165 57.0148 15.5174C53.4932 17.1527 49.6573 17.9998 45.7747 17.9998H20.882ZM115.386 369.237C115.461 369.648 115.5 370.07 115.5 370.5V399.5C115.5 400.328 116.172 401 117 401C117.828 401 118.5 400.328 118.5 399.5V351.601C118.207 350.869 118.033 350.075 118.004 349.245L114.987 263.247L115.386 369.237ZM69.5 344H73.5V341.347H69.5V344ZM69.5 135V138.5H76.0934L76.1871 137.214C76.1923 137.143 76.1976 137.071 76.2028 137C76.2519 136.333 76.3017 135.666 76.3522 135H69.5ZM73.6467 193.347L73.6237 194.746L73.6011 196.255C73.5864 197.289 73.5732 198.325 73.5618 199.36C73.5464 200.74 73.5339 202.119 73.5243 203.5H69.5V193.347H73.6467ZM71.6144 195.347H71.5V201.5H71.5402C71.5466 200.779 71.5539 200.058 71.5619 199.338C71.5734 198.3 71.5865 197.263 71.6013 196.226L71.6144 195.347ZM73.5 338.5H69.5V328.347H73.5V338.5ZM73.5 229.5H69.5V219.347H73.5V229.5ZM71.7409 188.5C71.7859 186.449 71.8372 184.398 71.8948 182.347H71.5V188.5H71.7409ZM73.9539 180.347C73.9338 181.014 73.9143 181.68 73.8956 182.347C73.8191 185.064 73.7538 187.782 73.6995 190.5H69.5V180.347H73.9539ZM73.5 312.5H69.5V245.347H73.5V312.5ZM73.5085 206.347H69.5V216.5H73.5V210.473C73.5 209.764 73.5007 209.056 73.5022 208.347C73.5037 207.68 73.5057 207.014 73.5085 206.347ZM71.5 208.347V210.473C71.5 209.764 71.5007 209.056 71.5022 208.347H71.5ZM72.1106 175.5C72.1822 173.449 72.2601 171.398 72.3444 169.347H71.5V175.5H72.1106ZM74.0438 177.5C74.1335 174.782 74.2342 172.064 74.3461 169.347C74.3735 168.68 74.4016 168.014 74.4304 167.347H69.5V177.5H74.0438ZM72.649 162.5H71.5V156.347H72.9629C72.852 158.398 72.7474 160.449 72.649 162.5ZM69.5 154.347V164.5H74.5573C74.6824 161.782 74.8186 159.064 74.9659 156.347C75.002 155.68 75.0388 155.014 75.0763 154.347H69.5ZM75.2404 151.5C75.401 148.782 75.5727 146.064 75.7555 143.347C75.8004 142.68 75.8459 142.014 75.8921 141.347H69.5V151.5H75.2404ZM71.5 149.5H73.3569C73.4819 147.449 73.6133 145.397 73.751 143.347H71.5V149.5ZM66.5 135H67.5V344H66.5V135ZM69.5 242.5V232.347H73.5V242.5H69.5ZM69.5 325.5V315.347H73.5V325.5H69.5Z" fill="white"/>
<path fill-rule="evenodd" clip-rule="evenodd" d="M60.8289 24.9258C70.1616 20.2594 80.7042 24.0006 85.6508 31.9432C89.3812 37.933 87.7531 45.5061 86.2718 52.4053L85.5 56L85.1283 58.416C77.3874 108.732 73.5 159.565 73.5 210.473V399.5C73.5 423.524 92.9756 443 117 443C141.024 443 160.5 423.524 160.5 399.5V348L165.5 223C165.5 214.716 172.216 208 180.5 208V158C144.602 158 115.5 187.102 115.5 223L120.5 348V399.5C120.5 401.433 118.933 403 117 403C115.067 403 113.5 401.433 113.5 399.5L112.781 208.579C112.594 158.929 108.709 109.361 101.16 60.288L100.5 56L99.5089 49.0762C98.8372 44.383 98.7863 39.5745 97.6572 34.9698C93.3706 17.4889 73.5204 7.39972 56.3568 15.9815C53.7019 17.309 50.7743 18.0001 47.806 18.0001H18.5C15.7386 18.0001 13.5 20.2387 13.5 23.0001V23.0001C13.5 25.7615 15.7386 28.0001 18.5 28.0001H47.806C52.3268 28.0001 56.7854 26.9475 60.8289 24.9258Z" fill="#FFBE32"/>
<path fill-rule="evenodd" clip-rule="evenodd" d="M108.5 365.5C111.261 365.5 113.5 367.739 113.5 370.5V399.5C113.5 401.433 115.067 403 117 403C118.933 403 120.5 401.433 120.5 399.5V395C120.5 392.239 122.739 390 125.5 390C128.261 390 130.5 392.239 130.5 395V399.5C130.5 406.956 124.456 413 117 413C109.544 413 103.5 406.956 103.5 399.5V370.5C103.5 367.739 105.739 365.5 108.5 365.5Z" fill="#FFD88F"/>
<path fill-rule="evenodd" clip-rule="evenodd" d="M78.5 288.5C81.2614 288.5 83.5 290.739 83.5 293.5V383C83.5 385.761 81.2614 388 78.5 388C75.7386 388 73.5 385.761 73.5 383V293.5C73.5 290.739 75.7386 288.5 78.5 288.5Z" fill="#FBCB65"/>
<path fill-rule="evenodd" clip-rule="evenodd" d="M157.612 288.501C160.372 288.563 162.56 290.851 162.499 293.612L160.499 383.112C160.437 385.872 158.149 388.06 155.388 387.999C152.628 387.937 150.44 385.649 150.501 382.888L152.501 293.388C152.563 290.628 154.851 288.44 157.612 288.501Z" fill="#FBCB65"/>
<path fill-rule="evenodd" clip-rule="evenodd" d="M89.7598 39.5224C90.5757 39.6659 91.1208 40.4436 90.9773 41.2595L89.5 40.9998L88.0227 40.74C88.1661 39.9241 88.9439 39.379 89.7598 39.5224ZM79 121C77.5053 120.873 77.5054 120.873 77.5054 120.873L77.5262 120.629C77.5399 120.469 77.5601 120.232 77.5866 119.926C77.6394 119.314 77.7167 118.425 77.8148 117.316C78.0109 115.097 78.2901 111.998 78.6221 108.471C79.2859 101.422 80.1626 92.6541 81.0114 85.815C82.1104 76.9603 83.8643 65.6869 85.3411 56.6396C86.0799 52.1132 86.7501 48.1391 87.2357 45.2965C87.4785 43.8751 87.6752 42.7365 87.8112 41.9529C87.8792 41.5612 87.932 41.2582 87.9678 41.053L88.0227 40.74C88.0227 40.7397 88.0227 40.74 89.5 40.9998C90.9773 41.2595 90.9774 41.2594 90.9773 41.2595L90.9231 41.5694C90.8874 41.7735 90.8348 42.0754 90.767 42.466C90.6314 43.2471 90.4352 44.3831 90.1929 45.8016C89.7082 48.6387 89.0392 52.6054 88.3019 57.1228C86.8263 66.1631 85.0802 77.3897 83.9886 86.1845C83.1455 92.9774 82.2722 101.709 81.6089 108.752C81.2775 112.272 80.9989 115.366 80.8031 117.58C80.7052 118.687 80.6281 119.574 80.5754 120.184C80.5491 120.489 80.5289 120.725 80.5153 120.884L80.4947 121.125C80.4947 121.125 80.4947 121.126 79 121ZM79 121L77.5054 120.873C77.4355 121.698 78.0481 122.425 78.8735 122.494C79.699 122.564 80.4249 121.951 80.4947 121.125L79 121Z" fill="#FBCB65"/>
<path fill-rule="evenodd" clip-rule="evenodd" d="M80.2286 119.011C81.6035 119.137 82.6158 120.354 82.4895 121.729L80.0004 121.5C82.4895 121.729 82.4895 121.729 82.4895 121.729L82.4646 122.002C82.4482 122.182 82.4241 122.448 82.3931 122.793C82.331 123.483 82.2415 124.487 82.1316 125.741C81.9117 128.249 81.6104 131.759 81.2848 135.763C80.6329 143.777 79.8856 153.745 79.497 161.623C78.9012 173.701 78.7873 181.95 78.6435 192.366C78.6021 195.364 78.5582 198.542 78.4996 202.042C78.2355 217.829 78.2354 238.057 78.3015 254.351C78.3346 262.495 78.3841 269.651 78.4255 274.771C78.4461 277.332 78.4647 279.382 78.4782 280.793C78.4849 281.499 78.4903 282.044 78.494 282.413L78.4998 282.973C78.4998 282.973 78.4998 282.973 76.0073 283L78.4998 282.973C78.5146 284.353 77.4074 285.485 76.0268 285.5C74.6461 285.515 73.5149 284.408 73.5001 283.027L76 283C73.5001 283.027 73.5001 283.027 73.5001 283.027L73.4943 282.463C73.4905 282.094 73.4851 281.547 73.4784 280.841C73.4649 279.428 73.4463 277.375 73.4256 274.812C73.3843 269.686 73.3346 262.523 73.3015 254.371C73.2354 238.071 73.2353 217.8 73.5003 201.958C73.5584 198.487 73.602 195.326 73.6433 192.336C73.7873 181.9 73.9026 173.55 74.503 161.377C74.8957 153.415 75.6484 143.383 76.3012 135.357C76.6279 131.341 76.9301 127.821 77.1506 125.304C77.2609 124.046 77.3508 123.039 77.4132 122.345C77.4443 121.999 77.4686 121.731 77.4851 121.549L77.5103 121.273C77.5104 121.273 77.5109 121.272 80.0004 121.5L77.5104 121.272C77.6367 119.897 78.8537 118.884 80.2286 119.011Z" fill="#FBCB65"/>
<path fill-rule="evenodd" clip-rule="evenodd" d="M78.5 392.5C81.2614 392.5 83.5 394.739 83.5 397.5V404.5C83.5 423.002 98.4985 438 117 438C135.502 438 150.5 423.002 150.5 404.5V400C150.5 397.239 152.739 395 155.5 395C158.261 395 160.5 397.239 160.5 400V404.5C160.5 428.524 141.024 448 117 448C92.9756 448 73.5 428.524 73.5 404.5V397.5C73.5 394.739 75.7386 392.5 78.5 392.5Z" fill="#E7A922"/>
<path fill-rule="evenodd" clip-rule="evenodd" d="M96.1024 40.0534C94.4443 21.6494 75.0383 10.4572 58.2781 18.2387C54.3607 20.0575 50.0937 20.9998 45.7746 20.9998H18.5C17.6716 20.9998 17 20.3282 17 19.4998C17 18.6714 17.6716 17.9998 18.5 17.9998H45.7746C49.6573 17.9998 53.4932 17.1527 57.0148 15.5177C75.6587 6.8616 97.2459 19.3118 99.0903 39.7842L100.49 55.3182L104.327 80.2605C104.432 80.9444 104.53 81.6221 104.619 82.3116C105.408 88.3815 109.528 120.753 110.498 142.433C110.695 146.823 110.945 152.448 111.146 156.976L111.499 164.933C111.499 164.933 111.499 164.934 110 165L111.499 164.933C111.535 165.76 110.894 166.462 110.066 166.498C109.239 166.535 108.538 165.894 108.501 165.066L108.673 165.058C108.501 165.066 108.501 165.066 108.501 165.066L108.501 165.064L108.149 157.109C107.948 152.581 107.698 146.957 107.502 142.567C106.538 121.035 102.436 88.7866 101.644 82.6984C101.558 82.0352 101.464 81.3809 101.362 80.7167L97.5174 55.7279C97.5127 55.6968 97.5089 55.6656 97.5061 55.6344L96.1024 40.0534Z" fill="#FFD88F"/>
<path fill-rule="evenodd" clip-rule="evenodd" d="M97.913 40.8005C96.5227 21.3351 76.21 9.1717 58.3942 17.1364C54.9077 18.695 51.1487 19.5526 47.3311 19.6601L17.5141 20.5C17.238 20.5078 17.008 20.2903 17.0002 20.0143C16.9924 19.7383 17.2099 19.5082 17.4859 19.5004L47.303 18.6605C50.9894 18.5567 54.6194 17.7286 57.9861 16.2235C76.4355 7.97549 97.4707 20.5715 98.9105 40.7292L99.9057 54.6627C99.9669 55.5193 100.055 56.3588 100.173 57.2093C101.038 63.4278 104.845 91.0036 106.997 109.944C108.248 120.957 109.124 133.217 109.687 142.721C109.968 147.473 110.171 151.538 110.304 154.415C110.371 155.853 110.419 156.994 110.452 157.776C110.46 157.984 110.468 158.166 110.474 158.322C110.479 158.46 110.484 158.577 110.488 158.672L110.499 158.977L110.5 158.98C110.5 158.981 110.5 158.982 110 159L110.5 158.982C110.51 159.258 110.294 159.49 110.019 159.5C109.743 159.51 109.511 159.295 109.5 159.019L109.532 159.017C109.5 159.019 109.5 159.019 109.5 159.019L109.5 159.018L109.489 158.711C109.481 158.508 109.469 158.208 109.453 157.818C109.42 157.037 109.372 155.897 109.305 154.461C109.172 151.588 108.969 147.527 108.688 142.78C108.126 133.283 107.252 121.044 106.003 110.057C103.853 91.1308 100.048 63.567 99.183 57.347C99.0616 56.4744 98.9711 55.6128 98.9083 54.734L97.913 40.8005Z" fill="#FFF6E2"/>
<path fill-rule="evenodd" clip-rule="evenodd" d="M111.5 392C112.328 392 113 392.672 113 393.5V399.5C113 401.709 114.791 403.5 117 403.5C119.209 403.5 121 401.709 121 399.5V397C121 396.172 121.672 395.5 122.5 395.5C123.328 395.5 124 396.172 124 397V399.5C124 403.366 120.866 406.5 117 406.5C113.134 406.5 110 403.366 110 399.5V393.5C110 392.672 110.672 392 111.5 392Z" fill="#FFF6E2"/>
<path fill-rule="evenodd" clip-rule="evenodd" d="M185.492 162.712C185.651 165.469 183.545 167.833 180.788 167.992L176.51 168.239C163.674 168.979 151.521 174.265 142.226 183.149C131.543 193.361 125.5 207.497 125.5 222.276V223C125.5 225.762 123.261 228 120.5 228C117.739 228 115.5 225.762 115.5 223V222.276C115.5 204.767 122.66 188.019 135.317 175.92C146.328 165.395 160.727 159.133 175.934 158.255L180.212 158.008C182.969 157.849 185.333 159.955 185.492 162.712Z" fill="#FFD88F"/>
<path fill-rule="evenodd" clip-rule="evenodd" d="M180.53 163C152.001 163.57 127.68 183.842 121.979 211.802L121.47 214.3C121.304 215.112 120.512 215.635 119.7 215.47C118.889 215.304 118.365 214.512 118.53 213.701L119.04 211.202C125.02 181.868 150.538 160.599 180.47 160L180.53 163Z" fill="#FFF6E2"/>
<path fill-rule="evenodd" clip-rule="evenodd" d="M120.825 230.003C123.584 229.906 125.9 232.065 125.997 234.825L129.997 348.825C130.094 351.584 127.935 353.9 125.175 353.997C122.416 354.094 120.1 351.935 120.003 349.175L116.003 235.175C115.906 232.416 118.065 230.1 120.825 230.003Z" fill="#FBCB65"/>
<path fill-rule="evenodd" clip-rule="evenodd" d="M106.97 175.5C109.731 175.483 111.983 177.708 112 180.47L113 345.97C113.017 348.731 110.792 350.983 108.03 351C105.269 351.017 103.017 348.792 103 346.03L102 180.53C101.983 177.769 104.208 175.517 106.97 175.5Z" fill="#FBCB65"/>
<path d="M64.5 134C64.5 133.448 64.9477 133 65.5 133H83.5C84.0523 133 84.5 133.448 84.5 134V134C84.5 134.552 84.0523 135 83.5 135H65.5C64.9477 135 64.5 134.552 64.5 134V134Z" fill="#FFBE32"/>
<path d="M65.5 134C65.5 133.448 65.9477 133 66.5 133H84.5C85.0523 133 85.5 133.448 85.5 134V134C85.5 134.552 85.0523 135 84.5 135H66.5C65.9477 135 65.5 134.552 65.5 134V134Z" fill="#FFBE32"/>
<path d="M64.5 345C64.5 344.448 64.9477 344 65.5 344H83.5C84.0523 344 84.5 344.448 84.5 345V345C84.5 345.552 84.0523 346 83.5 346H65.5C64.9477 346 64.5 345.552 64.5 345V345Z" fill="#E7A922"/>
<path d="M65.5 133C66.0523 133 66.5 133.448 66.5 134L66.5 345C66.5 345.552 66.0523 346 65.5 346V346C64.9477 346 64.5 345.552 64.5 345L64.5 134C64.5 133.448 64.9477 133 65.5 133V133Z" fill="#E7A922"/>
<path d="M68.5 133C69.0523 133 69.5 133.448 69.5 134L69.5 345C69.5 345.552 69.0523 346 68.5 346V346C67.9477 346 67.5 345.552 67.5 345L67.5 134C67.5 133.448 67.9477 133 68.5 133V133Z" fill="#E7A922"/>
<path d="M65 133C65.2761 133 65.5 133.224 65.5 133.5L65.5 345.5C65.5 345.776 65.2761 346 65 346V346C64.7239 346 64.5 345.776 64.5 345.5L64.5 133.5C64.5 133.224 64.7239 133 65 133V133Z" fill="#FFD88F"/>
<path d="M68 133C68.2761 133 68.5 133.224 68.5 133.5L68.5 345.5C68.5 345.776 68.2761 346 68 346V346C67.7239 346 67.5 345.776 67.5 345.5L67.5 133.5C67.5 133.224 67.7239 133 68 133V133Z" fill="#FFD88F"/>
<path d="M65.5 133C66.0523 133 66.5 133.448 66.5 134V134C66.5 134.552 66.0523 135 65.5 135V135C64.9477 135 64.5 134.552 64.5 134V134C64.5 133.448 64.9477 133 65.5 133V133Z" fill="#FFF6E2"/>
<path d="M65.5 133C66.0523 133 66.5 133.448 66.5 134V134C66.5 134.552 66.0523 135 65.5 135V135C64.9477 135 64.5 134.552 64.5 134V134C64.5 133.448 64.9477 133 65.5 133V133Z" fill="#FFF6E2"/>
<path d="M68.5 133C69.0523 133 69.5 133.448 69.5 134V134C69.5 134.552 69.0523 135 68.5 135V135C67.9477 135 67.5 134.552 67.5 134V134C67.5 133.448 67.9477 133 68.5 133V133Z" fill="#FFF6E2"/>
<path fill-rule="evenodd" clip-rule="evenodd" d="M88.0562 134.983C91.0687 134.983 93.5107 137.425 93.5107 140.438C93.5107 143.45 91.0687 145.892 88.0562 145.892C85.9024 145.892 84.0401 144.644 83.1535 142.831C82.7568 142.02 82.0158 141.347 81.1129 141.347H77.7664H68.4199C67.9178 141.347 67.5108 140.94 67.5108 140.438C67.5108 139.936 67.9178 139.529 68.4199 139.529H77.7664H81.1129C82.0157 139.529 82.7568 138.856 83.1535 138.044C84.0401 136.232 85.9023 134.983 88.0562 134.983Z" fill="#E7A922"/>
<path fill-rule="evenodd" clip-rule="evenodd" d="M88.0562 134C91.0687 134 93.5107 136.442 93.5107 139.455C93.5107 142.467 91.0687 144.909 88.0562 144.909C85.9023 144.909 84.0401 143.661 83.1535 141.848C82.7568 141.037 82.0157 140.364 81.1128 140.364H77.7664H68.4091C67.907 140.364 67.5 139.956 67.5 139.454C67.5 138.952 67.907 138.545 68.4091 138.545H77.7664H81.1129C82.0158 138.545 82.7568 137.872 83.1535 137.061C84.0402 135.248 85.9024 134 88.0562 134Z" fill="#FFD88F"/>
<path fill-rule="evenodd" clip-rule="evenodd" d="M73.5108 139.455H93.5107C93.5107 139.455 93.5107 139.455 93.5107 139.455C93.5107 142.467 91.0687 144.909 88.0562 144.909C85.9023 144.909 84.0401 143.661 83.1535 141.848C82.7568 141.037 82.0157 140.364 81.1128 140.364H74.4199C73.9178 140.364 73.5108 139.957 73.5108 139.455Z" fill="#FFBE32"/>
<path fill-rule="evenodd" clip-rule="evenodd" d="M67.5108 139.455H93.5107C93.5107 142.467 91.0687 144.909 88.0562 144.909C85.9023 144.909 84.0401 143.661 83.1535 141.848C82.7568 141.037 82.0157 140.364 81.1128 140.364H77.7664H68.4199C67.9178 140.364 67.5108 139.957 67.5108 139.455Z" fill="#FFBE32"/>
<path d="M82.0107 138.5C82.2869 138.5 82.5107 138.724 82.5107 139C82.5107 139.276 82.2869 139.5 82.0107 139.5L68.5108 139.5C68.2347 139.5 68.0108 139.276 68.0108 139C68.0108 138.724 68.2347 138.5 68.5108 138.5L82.0107 138.5Z" fill="#FFF6E2"/>
<path fill-rule="evenodd" clip-rule="evenodd" d="M91.433 137.078C89.7363 134.957 86.4779 135.062 84.9203 137.287C84.762 137.513 84.4502 137.568 84.224 137.41C83.9978 137.251 83.9428 136.94 84.1011 136.713C86.0413 133.942 90.1003 133.812 92.2138 136.454L92.4012 136.688C92.5737 136.903 92.5387 137.218 92.3231 137.391C92.1074 137.563 91.7928 137.528 91.6203 137.312L91.433 137.078Z" fill="#FFF6E2"/>
<path fill-rule="evenodd" clip-rule="evenodd" d="M85.0884 141.922C86.7851 144.043 90.0435 143.938 91.6011 141.713C91.7594 141.487 92.0712 141.432 92.2974 141.59C92.5237 141.749 92.5787 142.06 92.4203 142.287C90.4801 145.058 86.4211 145.188 84.3076 142.546L84.1203 142.312C83.9478 142.097 83.9827 141.782 84.1984 141.609C84.414 141.437 84.7286 141.472 84.9011 141.688L85.0884 141.922Z" fill="#FBCB65"/>
<path fill-rule="evenodd" clip-rule="evenodd" d="M88.0562 147.983C91.0687 147.983 93.5107 150.425 93.5107 153.438C93.5107 156.45 91.0687 158.892 88.0562 158.892C85.9024 158.892 84.0401 157.644 83.1535 155.831C82.7568 155.02 82.0158 154.347 81.1129 154.347H77.7664H68.4199C67.9178 154.347 67.5108 153.94 67.5108 153.438C67.5108 152.936 67.9178 152.529 68.4199 152.529H77.7664H81.1129C82.0157 152.529 82.7568 151.856 83.1535 151.044C84.0401 149.232 85.9023 147.983 88.0562 147.983Z" fill="#E7A922"/>
<path fill-rule="evenodd" clip-rule="evenodd" d="M88.0562 147C91.0687 147 93.5107 149.442 93.5107 152.455C93.5107 155.467 91.0687 157.909 88.0562 157.909C85.9023 157.909 84.0401 156.661 83.1535 154.848C82.7568 154.037 82.0157 153.364 81.1128 153.364H77.7664H68.4091C67.907 153.364 67.5 152.956 67.5 152.454C67.5 151.952 67.907 151.545 68.4091 151.545H77.7664H81.1129C82.0158 151.545 82.7568 150.872 83.1535 150.061C84.0402 148.248 85.9024 147 88.0562 147Z" fill="#FFD88F"/>
<path fill-rule="evenodd" clip-rule="evenodd" d="M73.5108 152.455H93.5107C93.5107 152.455 93.5107 152.455 93.5107 152.455C93.5107 155.467 91.0687 157.909 88.0562 157.909C85.9023 157.909 84.0401 156.661 83.1535 154.848C82.7568 154.037 82.0157 153.364 81.1128 153.364H74.4199C73.9178 153.364 73.5108 152.957 73.5108 152.455Z" fill="#FFBE32"/>
<path fill-rule="evenodd" clip-rule="evenodd" d="M67.5108 152.455H93.5107C93.5107 155.467 91.0687 157.909 88.0562 157.909C85.9023 157.909 84.0401 156.661 83.1535 154.848C82.7568 154.037 82.0157 153.364 81.1128 153.364H77.7664H68.4199C67.9178 153.364 67.5108 152.957 67.5108 152.455Z" fill="#FFBE32"/>
<path d="M82.0107 151.5C82.2869 151.5 82.5107 151.724 82.5107 152C82.5107 152.276 82.2869 152.5 82.0107 152.5L68.5108 152.5C68.2347 152.5 68.0108 152.276 68.0108 152C68.0108 151.724 68.2347 151.5 68.5108 151.5L82.0107 151.5Z" fill="#FFF6E2"/>
<path fill-rule="evenodd" clip-rule="evenodd" d="M91.433 150.078C89.7363 147.957 86.4779 148.062 84.9203 150.287C84.762 150.513 84.4502 150.568 84.224 150.41C83.9978 150.251 83.9428 149.94 84.1011 149.713C86.0413 146.942 90.1003 146.812 92.2138 149.454L92.4012 149.688C92.5737 149.903 92.5387 150.218 92.3231 150.391C92.1074 150.563 91.7928 150.528 91.6203 150.312L91.433 150.078Z" fill="#FFF6E2"/>
<path fill-rule="evenodd" clip-rule="evenodd" d="M85.0884 154.922C86.7851 157.043 90.0435 156.938 91.6011 154.713C91.7594 154.487 92.0712 154.432 92.2974 154.59C92.5237 154.749 92.5787 155.06 92.4203 155.287C90.4801 158.058 86.4211 158.188 84.3076 155.546L84.1203 155.312C83.9478 155.097 83.9827 154.782 84.1984 154.609C84.414 154.437 84.7286 154.472 84.9011 154.688L85.0884 154.922Z" fill="#FBCB65"/>
<path fill-rule="evenodd" clip-rule="evenodd" d="M88.0562 160.983C91.0687 160.983 93.5107 163.425 93.5107 166.438C93.5107 169.45 91.0687 171.892 88.0562 171.892C85.9024 171.892 84.0401 170.644 83.1535 168.831C82.7568 168.02 82.0158 167.347 81.1129 167.347H77.7664H68.4199C67.9178 167.347 67.5108 166.94 67.5108 166.438C67.5108 165.936 67.9178 165.529 68.4199 165.529H77.7664H81.1129C82.0157 165.529 82.7568 164.856 83.1535 164.044C84.0401 162.232 85.9023 160.983 88.0562 160.983Z" fill="#E7A922"/>
<path fill-rule="evenodd" clip-rule="evenodd" d="M88.0562 160C91.0687 160 93.5107 162.442 93.5107 165.455C93.5107 168.467 91.0687 170.909 88.0562 170.909C85.9023 170.909 84.0401 169.661 83.1535 167.848C82.7568 167.037 82.0157 166.364 81.1128 166.364H77.7664H68.4091C67.907 166.364 67.5 165.956 67.5 165.454C67.5 164.952 67.907 164.545 68.4091 164.545H77.7664H81.1129C82.0158 164.545 82.7568 163.872 83.1535 163.061C84.0402 161.248 85.9024 160 88.0562 160Z" fill="#FFD88F"/>
<path fill-rule="evenodd" clip-rule="evenodd" d="M73.5108 165.455H93.5107C93.5107 165.455 93.5107 165.455 93.5107 165.455C93.5107 168.467 91.0687 170.909 88.0562 170.909C85.9023 170.909 84.0401 169.661 83.1535 167.848C82.7568 167.037 82.0157 166.364 81.1128 166.364H74.4199C73.9178 166.364 73.5108 165.957 73.5108 165.455Z" fill="#FFBE32"/>
<path fill-rule="evenodd" clip-rule="evenodd" d="M67.5108 165.455H93.5107C93.5107 168.467 91.0687 170.909 88.0562 170.909C85.9023 170.909 84.0401 169.661 83.1535 167.848C82.7568 167.037 82.0157 166.364 81.1128 166.364H77.7664H68.4199C67.9178 166.364 67.5108 165.957 67.5108 165.455Z" fill="#FFBE32"/>
<path d="M82.0107 164.5C82.2869 164.5 82.5107 164.724 82.5107 165C82.5107 165.276 82.2869 165.5 82.0107 165.5L68.5108 165.5C68.2347 165.5 68.0108 165.276 68.0108 165C68.0108 164.724 68.2347 164.5 68.5108 164.5L82.0107 164.5Z" fill="#FFF6E2"/>
<path fill-rule="evenodd" clip-rule="evenodd" d="M91.433 163.078C89.7363 160.957 86.4779 161.062 84.9203 163.287C84.762 163.513 84.4502 163.568 84.224 163.41C83.9978 163.251 83.9428 162.94 84.1011 162.713C86.0413 159.942 90.1003 159.812 92.2138 162.454L92.4012 162.688C92.5737 162.903 92.5387 163.218 92.3231 163.391C92.1074 163.563 91.7928 163.528 91.6203 163.312L91.433 163.078Z" fill="#FFF6E2"/>
<path fill-rule="evenodd" clip-rule="evenodd" d="M85.0884 167.922C86.7851 170.043 90.0435 169.938 91.6011 167.713C91.7594 167.487 92.0712 167.432 92.2974 167.59C92.5237 167.749 92.5787 168.06 92.4203 168.287C90.4801 171.058 86.4211 171.188 84.3076 168.546L84.1203 168.312C83.9478 168.097 83.9827 167.782 84.1984 167.609C84.414 167.437 84.7286 167.472 84.9011 167.688L85.0884 167.922Z" fill="#FBCB65"/>
<path d="M73.5 373H113.5V384H73.5V373Z" fill="#FFBE32"/>
<path d="M73.5 374H113.5V379H73.5V374Z" fill="#FFD88F"/>
<path d="M73.5 381H113.5V384H73.5V381Z" fill="#FBCB65"/>
<path d="M73.5 375H113.5V376H73.5V375Z" fill="#FFF6E2"/>
<path d="M120.5 374H160.5V385H120.5V374Z" fill="#FFBE32"/>
<path d="M120.5 373H160.5V378H120.5V373Z" fill="#FFD88F"/>
<path d="M120.5 380H160.5V383H120.5V380Z" fill="#FBCB65"/>
<path d="M120.5 374H160.5V375H120.5V374Z" fill="#FFF6E2"/>
<path fill-rule="evenodd" clip-rule="evenodd" d="M88.0003 40.53C87.769 28.9655 76.5663 20.8138 65.4914 24.1514L56.6043 26.8297C54.0298 27.6056 51.3614 28 48.6717 28H17.5V25H48.6717C51.0674 25 53.4442 24.6488 55.7387 23.9573L64.6258 21.279C77.6023 17.3683 90.7287 26.9197 90.9997 40.47L91.0297 41.9697L88.0303 42.0297L88.0003 40.53Z" fill="#E7A922"/>
<path fill-rule="evenodd" clip-rule="evenodd" d="M181.147 207.998C173.586 208.22 167.207 213.692 165.836 221.132L165.417 223.406C164.917 226.121 162.31 227.917 159.594 227.417C156.878 226.917 155.082 224.31 155.583 221.594L156.002 219.32C158.226 207.245 168.58 198.363 180.853 198.002L181.147 207.998Z" fill="#E7A922"/>
<path fill-rule="evenodd" clip-rule="evenodd" d="M160.703 217.504C163.462 217.616 165.608 219.943 165.496 222.703L162.496 296.703C162.384 299.462 160.057 301.608 157.297 301.496C154.538 301.384 152.392 299.057 152.504 296.298L155.504 222.298C155.616 219.538 157.943 217.392 160.703 217.504Z" fill="#FBCB65"/>
<path d="M73.5 383H113.5V384H73.5V383Z" fill="#E7A922"/>
<path d="M73.5 384H113.5V385H73.5V384Z" fill="#FFBE32"/>
<path d="M120.5 383H160.5V384H120.5V383Z" fill="#E7A922"/>
<path d="M88.5 183C88.5 177.477 92.9772 173 98.5 173V173C104.023 173 108.5 177.477 108.5 183V183C108.5 188.523 104.023 193 98.5 193V193C92.9772 193 88.5 188.523 88.5 183V183Z" fill="#FBCB65"/>
<path fill-rule="evenodd" clip-rule="evenodd" d="M101.446 179.502C99.7014 177.866 96.9597 177.957 95.3276 179.706C94.3856 180.715 92.8036 180.77 91.7942 179.828C90.7848 178.886 90.7303 177.304 91.6724 176.294C95.1916 172.524 101.103 172.326 104.866 175.854L105.21 176.176C106.217 177.12 106.268 178.703 105.324 179.71C104.38 180.717 102.797 180.768 101.79 179.824L101.446 179.502Z" fill="#FFD88F"/>
<path fill-rule="evenodd" clip-rule="evenodd" d="M94.1857 190.957C96.7378 193.35 100.748 193.216 103.134 190.659C103.323 190.457 103.639 190.446 103.841 190.634C104.043 190.823 104.054 191.139 103.866 191.341C101.101 194.303 96.4574 194.458 93.5017 191.687L93.158 191.365C92.9566 191.176 92.9464 190.859 93.1352 190.658C93.3241 190.457 93.6405 190.446 93.842 190.635L94.1857 190.957Z" fill="#513D11"/>
<path fill-rule="evenodd" clip-rule="evenodd" d="M99 190C102.59 190 105.5 187.09 105.5 183.5C105.5 182.672 106.172 182 107 182C107.828 182 108.5 182.672 108.5 183.5C108.5 188.747 104.247 193 99 193L98.5 193C92.9772 193 88.5 188.523 88.5 183L88.5 182.5C88.5 181.672 89.1716 181 90 181C90.8284 181 91.5 181.672 91.5 182.5L91.5 183C91.5 186.866 94.634 190 98.5 190L99 190Z" fill="#FFBE32"/>
<path fill-rule="evenodd" clip-rule="evenodd" d="M99 192C103.694 192 107.5 188.194 107.5 183.5C107.5 183.224 107.724 183 108 183C108.276 183 108.5 183.224 108.5 183.5C108.5 188.747 104.247 193 99 193L98.5 193C92.9772 193 88.5 188.523 88.5 183L88.5 182.5C88.5 182.224 88.7239 182 89 182C89.2761 182 89.5 182.224 89.5 182.5L89.5 183C89.5 187.971 93.5294 192 98.5 192L99 192Z" fill="#E7A922"/>
<path fill-rule="evenodd" clip-rule="evenodd" d="M102.814 177.043C100.262 174.65 96.2525 174.784 93.8655 177.341C93.6771 177.543 93.3607 177.554 93.1588 177.366C92.957 177.177 92.9461 176.861 93.1345 176.659C95.8988 173.697 100.543 173.542 103.498 176.313L103.842 176.635C104.043 176.824 104.054 177.141 103.865 177.342C103.676 177.543 103.359 177.554 103.158 177.365L102.814 177.043Z" fill="#FFF6E2"/>
<path d="M88.5 207C88.5 201.477 92.9772 197 98.5 197V197C104.023 197 108.5 201.477 108.5 207V207C108.5 212.523 104.023 217 98.5 217V217C92.9772 217 88.5 212.523 88.5 207V207Z" fill="#FBCB65"/>
<path fill-rule="evenodd" clip-rule="evenodd" d="M101.446 203.502C99.7014 201.866 96.9597 201.957 95.3276 203.706C94.3856 204.715 92.8036 204.77 91.7942 203.828C90.7848 202.886 90.7303 201.304 91.6724 200.294C95.1916 196.524 101.103 196.326 104.866 199.854L105.21 200.176C106.217 201.12 106.268 202.703 105.324 203.71C104.38 204.717 102.797 204.768 101.79 203.824L101.446 203.502Z" fill="#FFD88F"/>
<path fill-rule="evenodd" clip-rule="evenodd" d="M94.1857 214.957C96.7378 217.35 100.748 217.216 103.134 214.659C103.323 214.457 103.639 214.446 103.841 214.634C104.043 214.823 104.054 215.139 103.866 215.341C101.101 218.303 96.4574 218.458 93.5017 215.687L93.158 215.365C92.9566 215.176 92.9464 214.859 93.1352 214.658C93.3241 214.457 93.6405 214.446 93.842 214.635L94.1857 214.957Z" fill="#513D11"/>
<path fill-rule="evenodd" clip-rule="evenodd" d="M99 214C102.59 214 105.5 211.09 105.5 207.5C105.5 206.672 106.172 206 107 206C107.828 206 108.5 206.672 108.5 207.5C108.5 212.747 104.247 217 99 217L98.5 217C92.9772 217 88.5 212.523 88.5 207L88.5 206.5C88.5 205.672 89.1716 205 90 205C90.8284 205 91.5 205.672 91.5 206.5L91.5 207C91.5 210.866 94.634 214 98.5 214L99 214Z" fill="#FFBE32"/>
<path fill-rule="evenodd" clip-rule="evenodd" d="M99 216C103.694 216 107.5 212.194 107.5 207.5C107.5 207.224 107.724 207 108 207C108.276 207 108.5 207.224 108.5 207.5C108.5 212.747 104.247 217 99 217L98.5 217C92.9772 217 88.5 212.523 88.5 207L88.5 206.5C88.5 206.224 88.7239 206 89 206C89.2761 206 89.5 206.224 89.5 206.5L89.5 207C89.5 211.971 93.5294 216 98.5 216L99 216Z" fill="#E7A922"/>
<path fill-rule="evenodd" clip-rule="evenodd" d="M102.814 201.043C100.262 198.65 96.2525 198.784 93.8655 201.341C93.6771 201.543 93.3607 201.554 93.1588 201.366C92.957 201.177 92.9461 200.861 93.1345 200.659C95.8988 197.697 100.543 197.542 103.498 200.313L103.842 200.635C104.043 200.824 104.054 201.141 103.865 201.342C103.676 201.543 103.359 201.554 103.158 201.365L102.814 201.043Z" fill="#FFF6E2"/>
<path d="M88.5 231C88.5 225.477 92.9772 221 98.5 221V221C104.023 221 108.5 225.477 108.5 231V231C108.5 236.523 104.023 241 98.5 241V241C92.9772 241 88.5 236.523 88.5 231V231Z" fill="#FBCB65"/>
<path fill-rule="evenodd" clip-rule="evenodd" d="M101.446 227.502C99.7014 225.866 96.9597 225.957 95.3276 227.706C94.3856 228.715 92.8036 228.77 91.7942 227.828C90.7848 226.886 90.7303 225.304 91.6724 224.294C95.1916 220.524 101.103 220.326 104.866 223.854L105.21 224.176C106.217 225.12 106.268 226.703 105.324 227.71C104.38 228.717 102.797 228.768 101.79 227.824L101.446 227.502Z" fill="#FFD88F"/>
<path fill-rule="evenodd" clip-rule="evenodd" d="M94.1857 238.957C96.7378 241.35 100.748 241.216 103.134 238.659C103.323 238.457 103.639 238.446 103.841 238.634C104.043 238.823 104.054 239.139 103.866 239.341C101.101 242.303 96.4574 242.458 93.5017 239.687L93.158 239.365C92.9566 239.176 92.9464 238.859 93.1352 238.658C93.3241 238.457 93.6405 238.446 93.842 238.635L94.1857 238.957Z" fill="#513D11"/>
<path fill-rule="evenodd" clip-rule="evenodd" d="M99 238C102.59 238 105.5 235.09 105.5 231.5C105.5 230.672 106.172 230 107 230C107.828 230 108.5 230.672 108.5 231.5C108.5 236.747 104.247 241 99 241L98.5 241C92.9772 241 88.5 236.523 88.5 231L88.5 230.5C88.5 229.672 89.1716 229 90 229C90.8284 229 91.5 229.672 91.5 230.5L91.5 231C91.5 234.866 94.634 238 98.5 238L99 238Z" fill="#FFBE32"/>
<path fill-rule="evenodd" clip-rule="evenodd" d="M99 240C103.694 240 107.5 236.194 107.5 231.5C107.5 231.224 107.724 231 108 231C108.276 231 108.5 231.224 108.5 231.5C108.5 236.747 104.247 241 99 241L98.5 241C92.9772 241 88.5 236.523 88.5 231L88.5 230.5C88.5 230.224 88.7239 230 89 230C89.2761 230 89.5 230.224 89.5 230.5L89.5 231C89.5 235.971 93.5294 240 98.5 240L99 240Z" fill="#E7A922"/>
<path fill-rule="evenodd" clip-rule="evenodd" d="M102.814 225.043C100.262 222.65 96.2525 222.784 93.8655 225.341C93.6771 225.543 93.3607 225.554 93.1588 225.366C92.957 225.177 92.9461 224.861 93.1345 224.659C95.8988 221.697 100.543 221.542 103.498 224.313L103.842 224.635C104.043 224.824 104.054 225.141 103.865 225.342C103.676 225.543 103.359 225.554 103.158 225.365L102.814 225.043Z" fill="#FFF6E2"/>
<path d="M88.5 255C88.5 249.477 92.9772 245 98.5 245V245C104.023 245 108.5 249.477 108.5 255V255C108.5 260.523 104.023 265 98.5 265V265C92.9772 265 88.5 260.523 88.5 255V255Z" fill="#FBCB65"/>
<path fill-rule="evenodd" clip-rule="evenodd" d="M101.446 251.502C99.7014 249.866 96.9597 249.957 95.3276 251.706C94.3856 252.715 92.8036 252.77 91.7942 251.828C90.7848 250.886 90.7303 249.304 91.6724 248.294C95.1916 244.524 101.103 244.326 104.866 247.854L105.21 248.176C106.217 249.12 106.268 250.703 105.324 251.71C104.38 252.717 102.797 252.768 101.79 251.824L101.446 251.502Z" fill="#FFD88F"/>
<path fill-rule="evenodd" clip-rule="evenodd" d="M94.1857 262.957C96.7378 265.35 100.748 265.216 103.134 262.659C103.323 262.457 103.639 262.446 103.841 262.634C104.043 262.823 104.054 263.139 103.866 263.341C101.101 266.303 96.4574 266.458 93.5017 263.687L93.158 263.365C92.9566 263.176 92.9464 262.859 93.1352 262.658C93.3241 262.457 93.6405 262.446 93.842 262.635L94.1857 262.957Z" fill="#513D11"/>
<path fill-rule="evenodd" clip-rule="evenodd" d="M99 262C102.59 262 105.5 259.09 105.5 255.5C105.5 254.672 106.172 254 107 254C107.828 254 108.5 254.672 108.5 255.5C108.5 260.747 104.247 265 99 265L98.5 265C92.9772 265 88.5 260.523 88.5 255L88.5 254.5C88.5 253.672 89.1716 253 90 253C90.8284 253 91.5 253.672 91.5 254.5L91.5 255C91.5 258.866 94.634 262 98.5 262L99 262Z" fill="#FFBE32"/>
<path fill-rule="evenodd" clip-rule="evenodd" d="M99 264C103.694 264 107.5 260.194 107.5 255.5C107.5 255.224 107.724 255 108 255C108.276 255 108.5 255.224 108.5 255.5C108.5 260.747 104.247 265 99 265L98.5 265C92.9772 265 88.5 260.523 88.5 255L88.5 254.5C88.5 254.224 88.7239 254 89 254C89.2761 254 89.5 254.224 89.5 254.5L89.5 255C89.5 259.971 93.5294 264 98.5 264L99 264Z" fill="#E7A922"/>
<path fill-rule="evenodd" clip-rule="evenodd" d="M102.814 249.043C100.262 246.65 96.2525 246.784 93.8655 249.341C93.6771 249.543 93.3607 249.554 93.1588 249.366C92.957 249.177 92.9461 248.861 93.1345 248.659C95.8988 245.697 100.543 245.542 103.498 248.313L103.842 248.635C104.043 248.824 104.054 249.141 103.865 249.342C103.676 249.543 103.359 249.554 103.158 249.365L102.814 249.043Z" fill="#FFF6E2"/>
<path d="M88.5 279C88.5 273.477 92.9772 269 98.5 269V269C104.023 269 108.5 273.477 108.5 279V279C108.5 284.523 104.023 289 98.5 289V289C92.9772 289 88.5 284.523 88.5 279V279Z" fill="#FBCB65"/>
<path fill-rule="evenodd" clip-rule="evenodd" d="M101.446 275.502C99.7014 273.866 96.9597 273.957 95.3276 275.706C94.3856 276.715 92.8036 276.77 91.7942 275.828C90.7848 274.886 90.7303 273.304 91.6724 272.294C95.1916 268.524 101.103 268.326 104.866 271.854L105.21 272.176C106.217 273.12 106.268 274.703 105.324 275.71C104.38 276.717 102.797 276.768 101.79 275.824L101.446 275.502Z" fill="#FFD88F"/>
<path fill-rule="evenodd" clip-rule="evenodd" d="M94.1857 286.957C96.7378 289.35 100.748 289.216 103.134 286.659C103.323 286.457 103.639 286.446 103.841 286.634C104.043 286.823 104.054 287.139 103.866 287.341C101.101 290.303 96.4574 290.458 93.5017 287.687L93.158 287.365C92.9566 287.176 92.9464 286.859 93.1352 286.658C93.3241 286.457 93.6405 286.446 93.842 286.635L94.1857 286.957Z" fill="#513D11"/>
<path fill-rule="evenodd" clip-rule="evenodd" d="M99 286C102.59 286 105.5 283.09 105.5 279.5C105.5 278.672 106.172 278 107 278C107.828 278 108.5 278.672 108.5 279.5C108.5 284.747 104.247 289 99 289L98.5 289C92.9772 289 88.5 284.523 88.5 279L88.5 278.5C88.5 277.672 89.1716 277 90 277C90.8284 277 91.5 277.672 91.5 278.5L91.5 279C91.5 282.866 94.634 286 98.5 286L99 286Z" fill="#FFBE32"/>
<path fill-rule="evenodd" clip-rule="evenodd" d="M99 288C103.694 288 107.5 284.194 107.5 279.5C107.5 279.224 107.724 279 108 279C108.276 279 108.5 279.224 108.5 279.5C108.5 284.747 104.247 289 99 289L98.5 289C92.9772 289 88.5 284.523 88.5 279L88.5 278.5C88.5 278.224 88.7239 278 89 278C89.2761 278 89.5 278.224 89.5 278.5L89.5 279C89.5 283.971 93.5294 288 98.5 288L99 288Z" fill="#E7A922"/>
<path fill-rule="evenodd" clip-rule="evenodd" d="M102.814 273.043C100.262 270.65 96.2525 270.784 93.8655 273.341C93.6771 273.543 93.3607 273.554 93.1588 273.366C92.957 273.177 92.9461 272.861 93.1345 272.659C95.8988 269.697 100.543 269.542 103.498 272.313L103.842 272.635C104.043 272.824 104.054 273.141 103.865 273.342C103.676 273.543 103.359 273.554 103.158 273.365L102.814 273.043Z" fill="#FFF6E2"/>
<path d="M88.5 303C88.5 297.477 92.9772 293 98.5 293V293C104.023 293 108.5 297.477 108.5 303V303C108.5 308.523 104.023 313 98.5 313V313C92.9772 313 88.5 308.523 88.5 303V303Z" fill="#FBCB65"/>
<path fill-rule="evenodd" clip-rule="evenodd" d="M101.446 299.502C99.7014 297.866 96.9597 297.957 95.3276 299.706C94.3856 300.715 92.8036 300.77 91.7942 299.828C90.7848 298.886 90.7303 297.304 91.6724 296.294C95.1916 292.524 101.103 292.326 104.866 295.854L105.21 296.176C106.217 297.12 106.268 298.703 105.324 299.71C104.38 300.717 102.797 300.768 101.79 299.824L101.446 299.502Z" fill="#FFD88F"/>
<path fill-rule="evenodd" clip-rule="evenodd" d="M94.1857 310.957C96.7378 313.35 100.748 313.216 103.134 310.659C103.323 310.457 103.639 310.446 103.841 310.634C104.043 310.823 104.054 311.139 103.866 311.341C101.101 314.303 96.4574 314.458 93.5017 311.687L93.158 311.365C92.9566 311.176 92.9464 310.859 93.1352 310.658C93.3241 310.457 93.6405 310.446 93.842 310.635L94.1857 310.957Z" fill="#513D11"/>
<path fill-rule="evenodd" clip-rule="evenodd" d="M99 310C102.59 310 105.5 307.09 105.5 303.5C105.5 302.672 106.172 302 107 302C107.828 302 108.5 302.672 108.5 303.5C108.5 308.747 104.247 313 99 313L98.5 313C92.9772 313 88.5 308.523 88.5 303L88.5 302.5C88.5 301.672 89.1716 301 90 301C90.8284 301 91.5 301.672 91.5 302.5L91.5 303C91.5 306.866 94.634 310 98.5 310L99 310Z" fill="#FFBE32"/>
<path fill-rule="evenodd" clip-rule="evenodd" d="M99 312C103.694 312 107.5 308.194 107.5 303.5C107.5 303.224 107.724 303 108 303C108.276 303 108.5 303.224 108.5 303.5C108.5 308.747 104.247 313 99 313L98.5 313C92.9772 313 88.5 308.523 88.5 303L88.5 302.5C88.5 302.224 88.7239 302 89 302C89.2761 302 89.5 302.224 89.5 302.5L89.5 303C89.5 307.971 93.5294 312 98.5 312L99 312Z" fill="#E7A922"/>
<path fill-rule="evenodd" clip-rule="evenodd" d="M102.814 297.043C100.262 294.65 96.2525 294.784 93.8655 297.341C93.6771 297.543 93.3607 297.554 93.1588 297.366C92.957 297.177 92.9461 296.861 93.1345 296.659C95.8988 293.697 100.543 293.542 103.498 296.313L103.842 296.635C104.043 296.824 104.054 297.141 103.865 297.342C103.676 297.543 103.359 297.554 103.158 297.365L102.814 297.043Z" fill="#FFF6E2"/>
<path d="M88.5 326C88.5 320.477 92.9772 316 98.5 316V316C104.023 316 108.5 320.477 108.5 326V326C108.5 331.523 104.023 336 98.5 336V336C92.9772 336 88.5 331.523 88.5 326V326Z" fill="#FBCB65"/>
<path fill-rule="evenodd" clip-rule="evenodd" d="M101.446 322.502C99.7014 320.866 96.9597 320.957 95.3276 322.706C94.3856 323.715 92.8036 323.77 91.7942 322.828C90.7848 321.886 90.7303 320.304 91.6724 319.294C95.1916 315.524 101.103 315.326 104.866 318.854L105.21 319.176C106.217 320.12 106.268 321.703 105.324 322.71C104.38 323.717 102.797 323.768 101.79 322.824L101.446 322.502Z" fill="#FFD88F"/>
<path fill-rule="evenodd" clip-rule="evenodd" d="M94.1857 333.957C96.7378 336.35 100.748 336.216 103.134 333.659C103.323 333.457 103.639 333.446 103.841 333.634C104.043 333.823 104.054 334.139 103.866 334.341C101.101 337.303 96.4574 337.458 93.5017 334.687L93.158 334.365C92.9566 334.176 92.9464 333.859 93.1352 333.658C93.3241 333.457 93.6405 333.446 93.842 333.635L94.1857 333.957Z" fill="#513D11"/>
<path fill-rule="evenodd" clip-rule="evenodd" d="M99 333C102.59 333 105.5 330.09 105.5 326.5C105.5 325.672 106.172 325 107 325C107.828 325 108.5 325.672 108.5 326.5C108.5 331.747 104.247 336 99 336L98.5 336C92.9772 336 88.5 331.523 88.5 326L88.5 325.5C88.5 324.672 89.1716 324 90 324C90.8284 324 91.5 324.672 91.5 325.5L91.5 326C91.5 329.866 94.634 333 98.5 333L99 333Z" fill="#FFBE32"/>
<path fill-rule="evenodd" clip-rule="evenodd" d="M99 335C103.694 335 107.5 331.194 107.5 326.5C107.5 326.224 107.724 326 108 326C108.276 326 108.5 326.224 108.5 326.5C108.5 331.747 104.247 336 99 336L98.5 336C92.9772 336 88.5 331.523 88.5 326L88.5 325.5C88.5 325.224 88.7239 325 89 325C89.2761 325 89.5 325.224 89.5 325.5L89.5 326C89.5 330.971 93.5294 335 98.5 335L99 335Z" fill="#E7A922"/>
<path fill-rule="evenodd" clip-rule="evenodd" d="M102.814 320.043C100.262 317.65 96.2525 317.784 93.8655 320.341C93.6771 320.543 93.3607 320.554 93.1588 320.366C92.957 320.177 92.9461 319.861 93.1345 319.659C95.8988 316.697 100.543 316.542 103.498 319.313L103.842 319.635C104.043 319.824 104.054 320.141 103.865 320.342C103.676 320.543 103.359 320.554 103.158 320.365L102.814 320.043Z" fill="#FFF6E2"/>
<path d="M130.5 317C130.5 311.477 134.977 307 140.5 307V307C146.023 307 150.5 311.477 150.5 317V317C150.5 322.523 146.023 327 140.5 327V327C134.977 327 130.5 322.523 130.5 317V317Z" fill="#FBCB65"/>
<path fill-rule="evenodd" clip-rule="evenodd" d="M143.446 313.502C141.701 311.866 138.96 311.957 137.328 313.706C136.386 314.715 134.804 314.77 133.794 313.828C132.785 312.886 132.73 311.304 133.672 310.294C137.192 306.524 143.103 306.326 146.866 309.854L147.21 310.176C148.217 311.12 148.268 312.703 147.324 313.71C146.38 314.717 144.797 314.768 143.79 313.824L143.446 313.502Z" fill="#FFD88F"/>
<path fill-rule="evenodd" clip-rule="evenodd" d="M136.186 324.957C138.738 327.35 142.748 327.216 145.134 324.659C145.323 324.457 145.639 324.446 145.841 324.634C146.043 324.823 146.054 325.139 145.866 325.341C143.101 328.303 138.457 328.458 135.502 325.687L135.158 325.365C134.957 325.176 134.946 324.859 135.135 324.658C135.324 324.457 135.641 324.446 135.842 324.635L136.186 324.957Z" fill="#513D11"/>
<path fill-rule="evenodd" clip-rule="evenodd" d="M141 324C144.59 324 147.5 321.09 147.5 317.5C147.5 316.672 148.172 316 149 316C149.828 316 150.5 316.672 150.5 317.5C150.5 322.747 146.247 327 141 327L140.5 327C134.977 327 130.5 322.523 130.5 317L130.5 316.5C130.5 315.672 131.172 315 132 315C132.828 315 133.5 315.672 133.5 316.5L133.5 317C133.5 320.866 136.634 324 140.5 324L141 324Z" fill="#FFBE32"/>
<path fill-rule="evenodd" clip-rule="evenodd" d="M141 326C145.694 326 149.5 322.194 149.5 317.5C149.5 317.224 149.724 317 150 317C150.276 317 150.5 317.224 150.5 317.5C150.5 322.747 146.247 327 141 327L140.5 327C134.977 327 130.5 322.523 130.5 317L130.5 316.5C130.5 316.224 130.724 316 131 316C131.276 316 131.5 316.224 131.5 316.5L131.5 317C131.5 321.971 135.529 326 140.5 326L141 326Z" fill="#E7A922"/>
<path fill-rule="evenodd" clip-rule="evenodd" d="M144.814 311.043C142.262 308.65 138.252 308.784 135.866 311.341C135.677 311.543 135.361 311.554 135.159 311.366C134.957 311.177 134.946 310.861 135.134 310.659C137.899 307.697 142.543 307.542 145.498 310.313L145.842 310.635C146.043 310.824 146.054 311.141 145.865 311.342C145.676 311.543 145.359 311.554 145.158 311.365L144.814 311.043Z" fill="#FFF6E2"/>
<path d="M129.5 343C129.5 337.477 133.977 333 139.5 333V333C145.023 333 149.5 337.477 149.5 343V343C149.5 348.523 145.023 353 139.5 353V353C133.977 353 129.5 348.523 129.5 343V343Z" fill="#FBCB65"/>
<path fill-rule="evenodd" clip-rule="evenodd" d="M142.446 339.502C140.701 337.866 137.96 337.957 136.328 339.706C135.386 340.715 133.804 340.77 132.794 339.828C131.785 338.886 131.73 337.304 132.672 336.294C136.192 332.524 142.103 332.326 145.866 335.854L146.21 336.176C147.217 337.12 147.268 338.703 146.324 339.71C145.38 340.717 143.797 340.768 142.79 339.824L142.446 339.502Z" fill="#FFD88F"/>
<path fill-rule="evenodd" clip-rule="evenodd" d="M135.186 350.957C137.738 353.35 141.748 353.216 144.134 350.659C144.323 350.457 144.639 350.446 144.841 350.634C145.043 350.823 145.054 351.139 144.866 351.341C142.101 354.303 137.457 354.458 134.502 351.687L134.158 351.365C133.957 351.176 133.946 350.859 134.135 350.658C134.324 350.457 134.641 350.446 134.842 350.635L135.186 350.957Z" fill="#513D11"/>
<path fill-rule="evenodd" clip-rule="evenodd" d="M140 350C143.59 350 146.5 347.09 146.5 343.5C146.5 342.672 147.172 342 148 342C148.828 342 149.5 342.672 149.5 343.5C149.5 348.747 145.247 353 140 353L139.5 353C133.977 353 129.5 348.523 129.5 343L129.5 342.5C129.5 341.672 130.172 341 131 341C131.828 341 132.5 341.672 132.5 342.5L132.5 343C132.5 346.866 135.634 350 139.5 350L140 350Z" fill="#FFBE32"/>
<path fill-rule="evenodd" clip-rule="evenodd" d="M140 352C144.694 352 148.5 348.194 148.5 343.5C148.5 343.224 148.724 343 149 343C149.276 343 149.5 343.224 149.5 343.5C149.5 348.747 145.247 353 140 353L139.5 353C133.977 353 129.5 348.523 129.5 343L129.5 342.5C129.5 342.224 129.724 342 130 342C130.276 342 130.5 342.224 130.5 342.5L130.5 343C130.5 347.971 134.529 352 139.5 352L140 352Z" fill="#E7A922"/>
<path fill-rule="evenodd" clip-rule="evenodd" d="M143.814 337.043C141.262 334.65 137.252 334.784 134.866 337.341C134.677 337.543 134.361 337.554 134.159 337.366C133.957 337.177 133.946 336.861 134.134 336.659C136.899 333.697 141.543 333.542 144.498 336.313L144.842 336.635C145.043 336.824 145.054 337.141 144.865 337.342C144.676 337.543 144.359 337.554 144.158 337.365L143.814 337.043Z" fill="#FFF6E2"/>
<path d="M107.5 420C107.5 414.477 111.977 410 117.5 410V410C123.023 410 127.5 414.477 127.5 420V420C127.5 425.523 123.023 430 117.5 430V430C111.977 430 107.5 425.523 107.5 420V420Z" fill="#FBCB65"/>
<path fill-rule="evenodd" clip-rule="evenodd" d="M120.446 416.502C118.701 414.866 115.96 414.957 114.328 416.706C113.386 417.715 111.804 417.77 110.794 416.828C109.785 415.886 109.73 414.304 110.672 413.294C114.192 409.524 120.103 409.326 123.866 412.854L124.21 413.176C125.217 414.12 125.268 415.703 124.324 416.71C123.38 417.717 121.797 417.768 120.79 416.824L120.446 416.502Z" fill="#FFD88F"/>
<path fill-rule="evenodd" clip-rule="evenodd" d="M113.186 427.957C115.738 430.35 119.748 430.216 122.134 427.659C122.323 427.457 122.639 427.446 122.841 427.634C123.043 427.823 123.054 428.139 122.866 428.341C120.101 431.303 115.457 431.458 112.502 428.687L112.158 428.365C111.957 428.176 111.946 427.859 112.135 427.658C112.324 427.457 112.641 427.446 112.842 427.635L113.186 427.957Z" fill="#513D11"/>
<path fill-rule="evenodd" clip-rule="evenodd" d="M118 427C121.59 427 124.5 424.09 124.5 420.5C124.5 419.672 125.172 419 126 419C126.828 419 127.5 419.672 127.5 420.5C127.5 425.747 123.247 430 118 430L117.5 430C111.977 430 107.5 425.523 107.5 420L107.5 419.5C107.5 418.672 108.172 418 109 418C109.828 418 110.5 418.672 110.5 419.5L110.5 420C110.5 423.866 113.634 427 117.5 427L118 427Z" fill="#FFBE32"/>
<path fill-rule="evenodd" clip-rule="evenodd" d="M118 429C122.694 429 126.5 425.194 126.5 420.5C126.5 420.224 126.724 420 127 420C127.276 420 127.5 420.224 127.5 420.5C127.5 425.747 123.247 430 118 430L117.5 430C111.977 430 107.5 425.523 107.5 420L107.5 419.5C107.5 419.224 107.724 419 108 419C108.276 419 108.5 419.224 108.5 419.5L108.5 420C108.5 424.971 112.529 429 117.5 429L118 429Z" fill="#E7A922"/>
<path fill-rule="evenodd" clip-rule="evenodd" d="M121.814 414.043C119.262 411.65 115.252 411.784 112.866 414.341C112.677 414.543 112.361 414.554 112.159 414.366C111.957 414.177 111.946 413.861 112.134 413.659C114.899 410.697 119.543 410.542 122.498 413.313L122.842 413.635C123.043 413.824 123.054 414.141 122.865 414.342C122.676 414.543 122.359 414.554 122.158 414.365L121.814 414.043Z" fill="#FFF6E2"/>
<path d="M130.5 292C130.5 286.477 134.977 282 140.5 282V282C146.023 282 150.5 286.477 150.5 292V292C150.5 297.523 146.023 302 140.5 302V302C134.977 302 130.5 297.523 130.5 292V292Z" fill="#FBCB65"/>
<path fill-rule="evenodd" clip-rule="evenodd" d="M143.446 288.502C141.701 286.866 138.96 286.957 137.328 288.706C136.386 289.715 134.804 289.77 133.794 288.828C132.785 287.886 132.73 286.304 133.672 285.294C137.192 281.524 143.103 281.326 146.866 284.854L147.21 285.176C148.217 286.12 148.268 287.703 147.324 288.71C146.38 289.717 144.797 289.768 143.79 288.824L143.446 288.502Z" fill="#FFD88F"/>
<path fill-rule="evenodd" clip-rule="evenodd" d="M136.186 299.957C138.738 302.35 142.748 302.216 145.134 299.659C145.323 299.457 145.639 299.446 145.841 299.634C146.043 299.823 146.054 300.139 145.866 300.341C143.101 303.303 138.457 303.458 135.502 300.687L135.158 300.365C134.957 300.176 134.946 299.859 135.135 299.658C135.324 299.457 135.641 299.446 135.842 299.635L136.186 299.957Z" fill="#513D11"/>
<path fill-rule="evenodd" clip-rule="evenodd" d="M141 299C144.59 299 147.5 296.09 147.5 292.5C147.5 291.672 148.172 291 149 291C149.828 291 150.5 291.672 150.5 292.5C150.5 297.747 146.247 302 141 302L140.5 302C134.977 302 130.5 297.523 130.5 292L130.5 291.5C130.5 290.672 131.172 290 132 290C132.828 290 133.5 290.672 133.5 291.5L133.5 292C133.5 295.866 136.634 299 140.5 299L141 299Z" fill="#FFBE32"/>
<path fill-rule="evenodd" clip-rule="evenodd" d="M141 301C145.694 301 149.5 297.194 149.5 292.5C149.5 292.224 149.724 292 150 292C150.276 292 150.5 292.224 150.5 292.5C150.5 297.747 146.247 302 141 302L140.5 302C134.977 302 130.5 297.523 130.5 292L130.5 291.5C130.5 291.224 130.724 291 131 291C131.276 291 131.5 291.224 131.5 291.5L131.5 292C131.5 296.971 135.529 301 140.5 301L141 301Z" fill="#E7A922"/>
<path fill-rule="evenodd" clip-rule="evenodd" d="M144.814 286.043C142.262 283.65 138.252 283.784 135.866 286.341C135.677 286.543 135.361 286.554 135.159 286.366C134.957 286.177 134.946 285.861 135.134 285.659C137.899 282.697 142.543 282.542 145.498 285.313L145.842 285.635C146.043 285.824 146.054 286.141 145.865 286.342C145.676 286.543 145.359 286.554 145.158 286.365L144.814 286.043Z" fill="#FFF6E2"/>
<path d="M97.5 193.7C97.5 189.834 100.634 186.7 104.5 186.7V186.7C108.366 186.7 111.5 189.834 111.5 193.7V193.7C111.5 197.566 108.366 200.7 104.5 200.7V200.7C100.634 200.7 97.5 197.566 97.5 193.7V193.7Z" fill="#D9DAEC"/>
<path fill-rule="evenodd" clip-rule="evenodd" d="M106.392 191.434C105.271 190.383 103.51 190.442 102.462 191.565C101.708 192.372 100.443 192.416 99.6354 191.662C98.8279 190.909 98.7842 189.643 99.5379 188.836C102.096 186.095 106.392 185.952 109.127 188.516L107.759 189.975L109.127 188.516L109.368 188.741C110.174 189.497 110.215 190.762 109.459 191.568C108.704 192.374 107.438 192.415 106.632 191.659L106.392 191.434Z" fill="#CDD5FF"/>
<path fill-rule="evenodd" clip-rule="evenodd" d="M101.48 199.271C103.266 200.945 106.073 200.852 107.744 199.062C107.876 198.92 108.097 198.913 108.239 199.045C108.38 199.176 108.388 199.398 108.256 199.539C106.321 201.612 103.07 201.721 101.001 199.781L100.761 199.556C100.62 199.424 100.612 199.202 100.745 199.061C100.877 198.92 101.098 198.913 101.239 199.045L101.48 199.271Z" fill="#513D11"/>
<path fill-rule="evenodd" clip-rule="evenodd" d="M104.5 197.8C106.709 197.8 108.5 196.009 108.5 193.8L108.5 193.7C108.5 192.872 109.172 192.2 110 192.2C110.828 192.2 111.5 192.872 111.5 193.7L111.5 193.8C111.5 197.666 108.366 200.8 104.5 200.8C100.634 200.8 97.5 197.666 97.5 193.8L97.5 193C97.5 192.172 98.1716 191.5 99 191.5C99.8284 191.5 100.5 192.172 100.5 193L100.5 193.8C100.5 196.009 102.291 197.8 104.5 197.8Z" fill="#C5BBDD"/>
<path fill-rule="evenodd" clip-rule="evenodd" d="M104.5 200C107.814 200 110.5 197.314 110.5 194L110.5 193.7C110.5 193.424 110.724 193.2 111 193.2C111.276 193.2 111.5 193.424 111.5 193.7L111.5 194C111.5 197.866 108.366 201 104.5 201C100.634 201 97.5001 197.866 97.5002 194L97.5002 193C97.5003 192.724 97.7241 192.5 98.0003 192.5C98.2764 192.5 98.5003 192.724 98.5002 193L98.5002 194C98.5001 197.314 101.186 200 104.5 200Z" fill="#7B8BAA"/>
<path fill-rule="evenodd" clip-rule="evenodd" d="M107.417 189.639C105.691 188.021 102.98 188.112 101.366 189.841C101.177 190.043 100.861 190.054 100.659 189.866C100.457 189.677 100.446 189.361 100.634 189.159C102.626 187.025 105.972 186.913 108.101 188.91L108.342 189.135C108.543 189.324 108.554 189.641 108.365 189.842C108.176 190.043 107.859 190.054 107.658 189.865L107.417 189.639Z" fill="#F1EBFF"/>
<path d="M98.5 219.7C98.5 215.834 101.634 212.7 105.5 212.7V212.7C109.366 212.7 112.5 215.834 112.5 219.7V219.7C112.5 223.566 109.366 226.7 105.5 226.7V226.7C101.634 226.7 98.5 223.566 98.5 219.7V219.7Z" fill="#D9DAEC"/>
<path fill-rule="evenodd" clip-rule="evenodd" d="M107.392 217.434C106.271 216.383 104.51 216.442 103.462 217.565C102.708 218.372 101.443 218.416 100.635 217.662C99.8279 216.909 99.7842 215.643 100.538 214.836C103.096 212.095 107.392 211.952 110.127 214.516L108.759 215.975L110.127 214.516L110.368 214.741C111.174 215.497 111.215 216.762 110.459 217.568C109.704 218.374 108.438 218.415 107.632 217.659L107.392 217.434Z" fill="#CDD5FF"/>
<path fill-rule="evenodd" clip-rule="evenodd" d="M102.48 225.271C104.266 226.945 107.073 226.852 108.744 225.062C108.876 224.92 109.097 224.913 109.239 225.045C109.38 225.176 109.388 225.398 109.256 225.539C107.321 227.612 104.07 227.721 102.001 225.781L101.761 225.556C101.62 225.424 101.612 225.202 101.745 225.061C101.877 224.92 102.098 224.913 102.239 225.045L102.48 225.271Z" fill="#513D11"/>
<path fill-rule="evenodd" clip-rule="evenodd" d="M105.5 223.8C107.709 223.8 109.5 222.009 109.5 219.8L109.5 219.7C109.5 218.872 110.172 218.2 111 218.2C111.828 218.2 112.5 218.872 112.5 219.7L112.5 219.8C112.5 223.666 109.366 226.8 105.5 226.8C101.634 226.8 98.5 223.666 98.5 219.8L98.5 219C98.5 218.172 99.1716 217.5 100 217.5C100.828 217.5 101.5 218.172 101.5 219L101.5 219.8C101.5 222.009 103.291 223.8 105.5 223.8Z" fill="#C5BBDD"/>
<path fill-rule="evenodd" clip-rule="evenodd" d="M105.5 226C108.814 226 111.5 223.314 111.5 220L111.5 219.7C111.5 219.424 111.724 219.2 112 219.2C112.276 219.2 112.5 219.424 112.5 219.7L112.5 220C112.5 223.866 109.366 227 105.5 227C101.634 227 98.5001 223.866 98.5002 220L98.5002 219C98.5003 218.724 98.7241 218.5 99.0003 218.5C99.2764 218.5 99.5003 218.724 99.5002 219L99.5002 220C99.5001 223.314 102.186 226 105.5 226Z" fill="#7B8BAA"/>
<path fill-rule="evenodd" clip-rule="evenodd" d="M108.417 215.639C106.691 214.021 103.98 214.112 102.366 215.841C102.177 216.043 101.861 216.054 101.659 215.866C101.457 215.677 101.446 215.361 101.634 215.159C103.626 213.025 106.972 212.913 109.101 214.91L109.342 215.135C109.543 215.324 109.554 215.641 109.365 215.842C109.176 216.043 108.859 216.054 108.658 215.865L108.417 215.639Z" fill="#F1EBFF"/>
<path d="M98.5 242.7C98.5 238.834 101.634 235.7 105.5 235.7V235.7C109.366 235.7 112.5 238.834 112.5 242.7V242.7C112.5 246.566 109.366 249.7 105.5 249.7V249.7C101.634 249.7 98.5 246.566 98.5 242.7V242.7Z" fill="#D9DAEC"/>
<path fill-rule="evenodd" clip-rule="evenodd" d="M107.392 240.434C106.271 239.383 104.51 239.442 103.462 240.565C102.708 241.372 101.443 241.416 100.635 240.662C99.8279 239.909 99.7842 238.643 100.538 237.836C103.096 235.095 107.392 234.952 110.127 237.516L108.759 238.975L110.127 237.516L110.368 237.741C111.174 238.497 111.215 239.762 110.459 240.568C109.704 241.374 108.438 241.415 107.632 240.659L107.392 240.434Z" fill="#CDD5FF"/>
<path fill-rule="evenodd" clip-rule="evenodd" d="M102.48 248.271C104.266 249.945 107.073 249.852 108.744 248.062C108.876 247.92 109.097 247.913 109.239 248.045C109.38 248.176 109.388 248.398 109.256 248.539C107.321 250.612 104.07 250.721 102.001 248.781L101.761 248.556C101.62 248.424 101.612 248.202 101.745 248.061C101.877 247.92 102.098 247.913 102.239 248.045L102.48 248.271Z" fill="#513D11"/>
<path fill-rule="evenodd" clip-rule="evenodd" d="M105.5 246.8C107.709 246.8 109.5 245.009 109.5 242.8L109.5 242.7C109.5 241.872 110.172 241.2 111 241.2C111.828 241.2 112.5 241.872 112.5 242.7L112.5 242.8C112.5 246.666 109.366 249.8 105.5 249.8C101.634 249.8 98.5 246.666 98.5 242.8L98.5 242C98.5 241.172 99.1716 240.5 100 240.5C100.828 240.5 101.5 241.172 101.5 242L101.5 242.8C101.5 245.009 103.291 246.8 105.5 246.8Z" fill="#C5BBDD"/>
<path fill-rule="evenodd" clip-rule="evenodd" d="M105.5 249C108.814 249 111.5 246.314 111.5 243L111.5 242.7C111.5 242.424 111.724 242.2 112 242.2C112.276 242.2 112.5 242.424 112.5 242.7L112.5 243C112.5 246.866 109.366 250 105.5 250C101.634 250 98.5001 246.866 98.5002 243L98.5002 242C98.5003 241.724 98.7241 241.5 99.0003 241.5C99.2764 241.5 99.5003 241.724 99.5002 242L99.5002 243C99.5001 246.314 102.186 249 105.5 249Z" fill="#7B8BAA"/>
<path fill-rule="evenodd" clip-rule="evenodd" d="M108.417 238.639C106.691 237.021 103.98 237.112 102.366 238.841C102.177 239.043 101.861 239.054 101.659 238.866C101.457 238.677 101.446 238.361 101.634 238.159C103.626 236.025 106.972 235.913 109.101 237.91L109.342 238.135C109.543 238.324 109.554 238.641 109.365 238.842C109.176 239.043 108.859 239.054 108.658 238.865L108.417 238.639Z" fill="#F1EBFF"/>
<path d="M98.5 265.7C98.5 261.834 101.634 258.7 105.5 258.7V258.7C109.366 258.7 112.5 261.834 112.5 265.7V265.7C112.5 269.566 109.366 272.7 105.5 272.7V272.7C101.634 272.7 98.5 269.566 98.5 265.7V265.7Z" fill="#D9DAEC"/>
<path fill-rule="evenodd" clip-rule="evenodd" d="M107.392 263.434C106.271 262.383 104.51 262.442 103.462 263.565C102.708 264.372 101.443 264.416 100.635 263.662C99.8279 262.909 99.7842 261.643 100.538 260.836C103.096 258.095 107.392 257.952 110.127 260.516L108.759 261.975L110.127 260.516L110.368 260.741C111.174 261.497 111.215 262.762 110.459 263.568C109.704 264.374 108.438 264.415 107.632 263.659L107.392 263.434Z" fill="#CDD5FF"/>
<path fill-rule="evenodd" clip-rule="evenodd" d="M102.48 271.271C104.266 272.945 107.073 272.852 108.744 271.062C108.876 270.92 109.097 270.913 109.239 271.045C109.38 271.176 109.388 271.398 109.256 271.539C107.321 273.612 104.07 273.721 102.001 271.781L101.761 271.556C101.62 271.424 101.612 271.202 101.745 271.061C101.877 270.92 102.098 270.913 102.239 271.045L102.48 271.271Z" fill="#513D11"/>
<path fill-rule="evenodd" clip-rule="evenodd" d="M105.5 269.8C107.709 269.8 109.5 268.009 109.5 265.8L109.5 265.7C109.5 264.872 110.172 264.2 111 264.2C111.828 264.2 112.5 264.872 112.5 265.7L112.5 265.8C112.5 269.666 109.366 272.8 105.5 272.8C101.634 272.8 98.5 269.666 98.5 265.8L98.5 265C98.5 264.172 99.1716 263.5 100 263.5C100.828 263.5 101.5 264.172 101.5 265L101.5 265.8C101.5 268.009 103.291 269.8 105.5 269.8Z" fill="#C5BBDD"/>
<path fill-rule="evenodd" clip-rule="evenodd" d="M105.5 272C108.814 272 111.5 269.314 111.5 266L111.5 265.7C111.5 265.424 111.724 265.2 112 265.2C112.276 265.2 112.5 265.424 112.5 265.7L112.5 266C112.5 269.866 109.366 273 105.5 273C101.634 273 98.5001 269.866 98.5002 266L98.5002 265C98.5003 264.724 98.7241 264.5 99.0003 264.5C99.2764 264.5 99.5003 264.724 99.5002 265L99.5002 266C99.5001 269.314 102.186 272 105.5 272Z" fill="#7B8BAA"/>
<path fill-rule="evenodd" clip-rule="evenodd" d="M108.417 261.639C106.691 260.021 103.98 260.112 102.366 261.841C102.177 262.043 101.861 262.054 101.659 261.866C101.457 261.677 101.446 261.361 101.634 261.159C103.626 259.025 106.972 258.913 109.101 260.91L109.342 261.135C109.543 261.324 109.554 261.641 109.365 261.842C109.176 262.043 108.859 262.054 108.658 261.865L108.417 261.639Z" fill="#F1EBFF"/>
<path d="M84.5 290.7C84.5 286.834 87.634 283.7 91.5 283.7V283.7C95.366 283.7 98.5 286.834 98.5 290.7V290.7C98.5 294.566 95.366 297.7 91.5 297.7V297.7C87.634 297.7 84.5 294.566 84.5 290.7V290.7Z" fill="#D9DAEC"/>
<path fill-rule="evenodd" clip-rule="evenodd" d="M93.3915 288.434C92.2709 287.383 90.5102 287.442 89.4621 288.565C88.7085 289.372 87.4429 289.416 86.6354 288.662C85.8279 287.909 85.7842 286.643 86.5379 285.836C89.0957 283.095 93.3925 282.952 96.1273 285.516L94.7594 286.975L96.1273 285.516L96.3679 285.741C97.1737 286.497 97.2145 287.762 96.4591 288.568C95.7036 289.374 94.4379 289.415 93.6321 288.659L93.3915 288.434Z" fill="#CDD5FF"/>
<path fill-rule="evenodd" clip-rule="evenodd" d="M88.48 296.271C90.2664 297.945 93.0732 297.852 94.7441 296.062C94.876 295.92 95.0975 295.913 95.2388 296.045C95.3801 296.176 95.3877 296.398 95.2558 296.539C93.3208 298.612 90.0702 298.721 88.0012 296.781L87.7606 296.556C87.6196 296.424 87.6124 296.202 87.7446 296.061C87.8768 295.92 88.0983 295.913 88.2394 296.045L88.48 296.271Z" fill="#513D11"/>
<path fill-rule="evenodd" clip-rule="evenodd" d="M91.5 294.8C93.7091 294.8 95.5 293.009 95.5 290.8L95.5 290.7C95.5 289.872 96.1716 289.2 97 289.2C97.8284 289.2 98.5 289.872 98.5 290.7L98.5 290.8C98.5 294.666 95.366 297.8 91.5 297.8C87.634 297.8 84.5 294.666 84.5 290.8L84.5 290C84.5 289.172 85.1716 288.5 86 288.5C86.8284 288.5 87.5 289.172 87.5 290L87.5 290.8C87.5 293.009 89.2909 294.8 91.5 294.8Z" fill="#C5BBDD"/>
<path fill-rule="evenodd" clip-rule="evenodd" d="M91.5001 297C94.8138 297 97.5 294.314 97.5 291L97.5 290.7C97.5 290.424 97.7239 290.2 98 290.2C98.2761 290.2 98.5 290.424 98.5 290.7L98.5 291C98.5 294.866 95.366 298 91.5001 298C87.6341 298 84.5001 294.866 84.5002 291L84.5002 290C84.5003 289.724 84.7241 289.5 85.0003 289.5C85.2764 289.5 85.5003 289.724 85.5002 290L85.5002 291C85.5001 294.314 88.1864 297 91.5001 297Z" fill="#7B8BAA"/>
<path fill-rule="evenodd" clip-rule="evenodd" d="M94.4174 286.639C92.6915 285.021 89.9798 285.112 88.3655 286.841C88.1771 287.043 87.8607 287.054 87.6588 286.866C87.457 286.677 87.4461 286.361 87.6345 286.159C89.6261 284.025 92.9719 283.913 95.1014 285.91L95.342 286.135C95.5434 286.324 95.5536 286.641 95.3648 286.842C95.1759 287.043 94.8595 287.054 94.658 286.865L94.4174 286.639Z" fill="#F1EBFF"/>
<path d="M97.5 315.7C97.5 311.834 100.634 308.7 104.5 308.7V308.7C108.366 308.7 111.5 311.834 111.5 315.7V315.7C111.5 319.566 108.366 322.7 104.5 322.7V322.7C100.634 322.7 97.5 319.566 97.5 315.7V315.7Z" fill="#D9DAEC"/>
<path fill-rule="evenodd" clip-rule="evenodd" d="M106.392 313.434C105.271 312.383 103.51 312.442 102.462 313.565C101.708 314.372 100.443 314.416 99.6354 313.662C98.8279 312.909 98.7842 311.643 99.5379 310.836C102.096 308.095 106.392 307.952 109.127 310.516L107.759 311.975L109.127 310.516L109.368 310.741C110.174 311.497 110.215 312.762 109.459 313.568C108.704 314.374 107.438 314.415 106.632 313.659L106.392 313.434Z" fill="#CDD5FF"/>
<path fill-rule="evenodd" clip-rule="evenodd" d="M101.48 321.271C103.266 322.945 106.073 322.852 107.744 321.062C107.876 320.92 108.097 320.913 108.239 321.045C108.38 321.176 108.388 321.398 108.256 321.539C106.321 323.612 103.07 323.721 101.001 321.781L100.761 321.556C100.62 321.424 100.612 321.202 100.745 321.061C100.877 320.92 101.098 320.913 101.239 321.045L101.48 321.271Z" fill="#513D11"/>
<path fill-rule="evenodd" clip-rule="evenodd" d="M104.5 319.8C106.709 319.8 108.5 318.009 108.5 315.8L108.5 315.7C108.5 314.872 109.172 314.2 110 314.2C110.828 314.2 111.5 314.872 111.5 315.7L111.5 315.8C111.5 319.666 108.366 322.8 104.5 322.8C100.634 322.8 97.5 319.666 97.5 315.8L97.5 315C97.5 314.172 98.1716 313.5 99 313.5C99.8284 313.5 100.5 314.172 100.5 315L100.5 315.8C100.5 318.009 102.291 319.8 104.5 319.8Z" fill="#C5BBDD"/>
<path fill-rule="evenodd" clip-rule="evenodd" d="M104.5 322C107.814 322 110.5 319.314 110.5 316L110.5 315.7C110.5 315.424 110.724 315.2 111 315.2C111.276 315.2 111.5 315.424 111.5 315.7L111.5 316C111.5 319.866 108.366 323 104.5 323C100.634 323 97.5001 319.866 97.5002 316L97.5002 315C97.5003 314.724 97.7241 314.5 98.0003 314.5C98.2764 314.5 98.5003 314.724 98.5002 315L98.5002 316C98.5001 319.314 101.186 322 104.5 322Z" fill="#7B8BAA"/>
<path fill-rule="evenodd" clip-rule="evenodd" d="M107.417 311.639C105.691 310.021 102.98 310.112 101.366 311.841C101.177 312.043 100.861 312.054 100.659 311.866C100.457 311.677 100.446 311.361 100.634 311.159C102.626 309.025 105.972 308.913 108.101 310.91L108.342 311.135C108.543 311.324 108.554 311.641 108.365 311.842C108.176 312.043 107.859 312.054 107.658 311.865L107.417 311.639Z" fill="#F1EBFF"/>
<path fill-rule="evenodd" clip-rule="evenodd" d="M88.0562 173.983C91.0687 173.983 93.5107 176.425 93.5107 179.438C93.5107 182.45 91.0687 184.892 88.0562 184.892C85.9024 184.892 84.0401 183.644 83.1535 181.831C82.7568 181.02 82.0158 180.347 81.1129 180.347H77.7664H68.4199C67.9178 180.347 67.5108 179.94 67.5108 179.438C67.5108 178.936 67.9178 178.529 68.4199 178.529H77.7664H81.1129C82.0157 178.529 82.7568 177.856 83.1535 177.044C84.0401 175.232 85.9023 173.983 88.0562 173.983Z" fill="#E7A922"/>
<path fill-rule="evenodd" clip-rule="evenodd" d="M88.0562 173C91.0687 173 93.5107 175.442 93.5107 178.455C93.5107 181.467 91.0687 183.909 88.0562 183.909C85.9023 183.909 84.0401 182.661 83.1535 180.848C82.7568 180.037 82.0157 179.364 81.1128 179.364H77.7664H68.4091C67.907 179.364 67.5 178.956 67.5 178.454C67.5 177.952 67.907 177.545 68.4091 177.545H77.7664H81.1129C82.0158 177.545 82.7568 176.872 83.1535 176.061C84.0402 174.248 85.9024 173 88.0562 173Z" fill="#FFD88F"/>
<path fill-rule="evenodd" clip-rule="evenodd" d="M73.5108 178.455H93.5107C93.5107 178.455 93.5107 178.455 93.5107 178.455C93.5107 181.467 91.0687 183.909 88.0562 183.909C85.9023 183.909 84.0401 182.661 83.1535 180.848C82.7568 180.037 82.0157 179.364 81.1128 179.364H74.4199C73.9178 179.364 73.5108 178.957 73.5108 178.455Z" fill="#FFBE32"/>
<path fill-rule="evenodd" clip-rule="evenodd" d="M67.5108 178.455H93.5107C93.5107 181.467 91.0687 183.909 88.0562 183.909C85.9023 183.909 84.0401 182.661 83.1535 180.848C82.7568 180.037 82.0157 179.364 81.1128 179.364H77.7664H68.4199C67.9178 179.364 67.5108 178.957 67.5108 178.455Z" fill="#FFBE32"/>
<path d="M82.0107 177.5C82.2869 177.5 82.5107 177.724 82.5107 178C82.5107 178.276 82.2869 178.5 82.0107 178.5L68.5108 178.5C68.2347 178.5 68.0108 178.276 68.0108 178C68.0108 177.724 68.2347 177.5 68.5108 177.5L82.0107 177.5Z" fill="#FFF6E2"/>
<path fill-rule="evenodd" clip-rule="evenodd" d="M91.433 176.078C89.7363 173.957 86.4779 174.062 84.9203 176.287C84.762 176.513 84.4502 176.568 84.224 176.41C83.9978 176.251 83.9428 175.94 84.1011 175.713C86.0413 172.942 90.1003 172.812 92.2138 175.454L92.4012 175.688C92.5737 175.903 92.5387 176.218 92.3231 176.391C92.1074 176.563 91.7928 176.528 91.6203 176.312L91.433 176.078Z" fill="#FFF6E2"/>
<path fill-rule="evenodd" clip-rule="evenodd" d="M85.0884 180.922C86.7851 183.043 90.0435 182.938 91.6011 180.713C91.7594 180.487 92.0712 180.432 92.2974 180.59C92.5237 180.749 92.5787 181.06 92.4203 181.287C90.4801 184.058 86.4211 184.188 84.3076 181.546L84.1203 181.312C83.9478 181.097 83.9827 180.782 84.1984 180.609C84.414 180.437 84.7286 180.472 84.9011 180.688L85.0884 180.922Z" fill="#FBCB65"/>
<path fill-rule="evenodd" clip-rule="evenodd" d="M88.0562 212.983C91.0687 212.983 93.5107 215.425 93.5107 218.438C93.5107 221.45 91.0687 223.892 88.0562 223.892C85.9024 223.892 84.0401 222.644 83.1535 220.831C82.7568 220.02 82.0158 219.347 81.1129 219.347H77.7664H68.4199C67.9178 219.347 67.5108 218.94 67.5108 218.438C67.5108 217.936 67.9178 217.529 68.4199 217.529H77.7664H81.1129C82.0157 217.529 82.7568 216.856 83.1535 216.044C84.0401 214.232 85.9023 212.983 88.0562 212.983Z" fill="#E7A922"/>
<path fill-rule="evenodd" clip-rule="evenodd" d="M88.0562 212C91.0687 212 93.5107 214.442 93.5107 217.455C93.5107 220.467 91.0687 222.909 88.0562 222.909C85.9023 222.909 84.0401 221.661 83.1535 219.848C82.7568 219.037 82.0157 218.364 81.1128 218.364H77.7664H68.4091C67.907 218.364 67.5 217.956 67.5 217.454C67.5 216.952 67.907 216.545 68.4091 216.545H77.7664H81.1129C82.0158 216.545 82.7568 215.872 83.1535 215.061C84.0402 213.248 85.9024 212 88.0562 212Z" fill="#FFD88F"/>
<path fill-rule="evenodd" clip-rule="evenodd" d="M73.5108 217.455H93.5107C93.5107 217.455 93.5107 217.455 93.5107 217.455C93.5107 220.467 91.0687 222.909 88.0562 222.909C85.9023 222.909 84.0401 221.661 83.1535 219.848C82.7568 219.037 82.0157 218.364 81.1128 218.364H74.4199C73.9178 218.364 73.5108 217.957 73.5108 217.455Z" fill="#FFBE32"/>
<path fill-rule="evenodd" clip-rule="evenodd" d="M67.5108 217.455H93.5107C93.5107 220.467 91.0687 222.909 88.0562 222.909C85.9023 222.909 84.0401 221.661 83.1535 219.848C82.7568 219.037 82.0157 218.364 81.1128 218.364H77.7664H68.4199C67.9178 218.364 67.5108 217.957 67.5108 217.455Z" fill="#FFBE32"/>
<path d="M82.0107 216.5C82.2869 216.5 82.5107 216.724 82.5107 217C82.5107 217.276 82.2869 217.5 82.0107 217.5L68.5108 217.5C68.2347 217.5 68.0108 217.276 68.0108 217C68.0108 216.724 68.2347 216.5 68.5108 216.5L82.0107 216.5Z" fill="#FFF6E2"/>
<path fill-rule="evenodd" clip-rule="evenodd" d="M91.433 215.078C89.7363 212.957 86.4779 213.062 84.9203 215.287C84.762 215.513 84.4502 215.568 84.224 215.41C83.9978 215.251 83.9428 214.94 84.1011 214.713C86.0413 211.942 90.1003 211.812 92.2138 214.454L92.4012 214.688C92.5737 214.903 92.5387 215.218 92.3231 215.391C92.1074 215.563 91.7928 215.528 91.6203 215.312L91.433 215.078Z" fill="#FFF6E2"/>
<path fill-rule="evenodd" clip-rule="evenodd" d="M85.0884 219.922C86.7851 222.043 90.0435 221.938 91.6011 219.713C91.7594 219.487 92.0712 219.432 92.2974 219.59C92.5237 219.749 92.5787 220.06 92.4203 220.287C90.4801 223.058 86.4211 223.188 84.3076 220.546L84.1203 220.312C83.9478 220.097 83.9827 219.782 84.1984 219.609C84.414 219.437 84.7286 219.472 84.9011 219.688L85.0884 219.922Z" fill="#FBCB65"/>
<path fill-rule="evenodd" clip-rule="evenodd" d="M88.0562 308.983C91.0687 308.983 93.5107 311.425 93.5107 314.438C93.5107 317.45 91.0687 319.892 88.0562 319.892C85.9024 319.892 84.0401 318.644 83.1535 316.831C82.7568 316.02 82.0158 315.347 81.1129 315.347H77.7664H68.4199C67.9178 315.347 67.5108 314.94 67.5108 314.438C67.5108 313.936 67.9178 313.529 68.4199 313.529H77.7664H81.1129C82.0157 313.529 82.7568 312.856 83.1535 312.044C84.0401 310.232 85.9023 308.983 88.0562 308.983Z" fill="#E7A922"/>
<path fill-rule="evenodd" clip-rule="evenodd" d="M88.0562 308C91.0687 308 93.5107 310.442 93.5107 313.455C93.5107 316.467 91.0687 318.909 88.0562 318.909C85.9023 318.909 84.0401 317.661 83.1535 315.848C82.7568 315.037 82.0157 314.364 81.1128 314.364H77.7664H68.4091C67.907 314.364 67.5 313.956 67.5 313.454C67.5 312.952 67.907 312.545 68.4091 312.545H77.7664H81.1129C82.0158 312.545 82.7568 311.872 83.1535 311.061C84.0402 309.248 85.9024 308 88.0562 308Z" fill="#FFD88F"/>
<path fill-rule="evenodd" clip-rule="evenodd" d="M73.5108 313.455H93.5107C93.5107 313.455 93.5107 313.455 93.5107 313.455C93.5107 316.467 91.0687 318.909 88.0562 318.909C85.9023 318.909 84.0401 317.661 83.1535 315.848C82.7568 315.037 82.0157 314.364 81.1128 314.364H74.4199C73.9178 314.364 73.5108 313.957 73.5108 313.455Z" fill="#FFBE32"/>
<path fill-rule="evenodd" clip-rule="evenodd" d="M67.5108 313.455H93.5107C93.5107 316.467 91.0687 318.909 88.0562 318.909C85.9023 318.909 84.0401 317.661 83.1535 315.848C82.7568 315.037 82.0157 314.364 81.1128 314.364H77.7664H68.4199C67.9178 314.364 67.5108 313.957 67.5108 313.455Z" fill="#FFBE32"/>
<path d="M82.0107 312.5C82.2869 312.5 82.5107 312.724 82.5107 313C82.5107 313.276 82.2869 313.5 82.0107 313.5L68.5108 313.5C68.2347 313.5 68.0108 313.276 68.0108 313C68.0108 312.724 68.2347 312.5 68.5108 312.5L82.0107 312.5Z" fill="#FFF6E2"/>
<path fill-rule="evenodd" clip-rule="evenodd" d="M91.433 311.078C89.7363 308.957 86.4779 309.062 84.9203 311.287C84.762 311.513 84.4502 311.568 84.224 311.41C83.9978 311.251 83.9428 310.94 84.1011 310.713C86.0413 307.942 90.1003 307.812 92.2138 310.454L92.4012 310.688C92.5737 310.903 92.5387 311.218 92.3231 311.391C92.1074 311.563 91.7928 311.528 91.6203 311.312L91.433 311.078Z" fill="#FFF6E2"/>
<path fill-rule="evenodd" clip-rule="evenodd" d="M85.0884 315.922C86.7851 318.043 90.0435 317.938 91.6011 315.713C91.7594 315.487 92.0712 315.432 92.2974 315.59C92.5237 315.749 92.5787 316.06 92.4203 316.287C90.4801 319.058 86.4211 319.188 84.3076 316.546L84.1203 316.312C83.9478 316.097 83.9827 315.782 84.1984 315.609C84.414 315.437 84.7286 315.472 84.9011 315.688L85.0884 315.922Z" fill="#FBCB65"/>
<path fill-rule="evenodd" clip-rule="evenodd" d="M88.0562 186.983C91.0687 186.983 93.5107 189.425 93.5107 192.438C93.5107 195.45 91.0687 197.892 88.0562 197.892C85.9024 197.892 84.0401 196.644 83.1535 194.831C82.7568 194.02 82.0158 193.347 81.1129 193.347H77.7664H68.4199C67.9178 193.347 67.5108 192.94 67.5108 192.438C67.5108 191.936 67.9178 191.529 68.4199 191.529H77.7664H81.1129C82.0157 191.529 82.7568 190.856 83.1535 190.044C84.0401 188.232 85.9023 186.983 88.0562 186.983Z" fill="#E7A922"/>
<path fill-rule="evenodd" clip-rule="evenodd" d="M88.0562 186C91.0687 186 93.5107 188.442 93.5107 191.455C93.5107 194.467 91.0687 196.909 88.0562 196.909C85.9023 196.909 84.0401 195.661 83.1535 193.848C82.7568 193.037 82.0157 192.364 81.1128 192.364H77.7664H68.4091C67.907 192.364 67.5 191.956 67.5 191.454C67.5 190.952 67.907 190.545 68.4091 190.545H77.7664H81.1129C82.0158 190.545 82.7568 189.872 83.1535 189.061C84.0402 187.248 85.9024 186 88.0562 186Z" fill="#FFD88F"/>
<path fill-rule="evenodd" clip-rule="evenodd" d="M73.5108 191.455H93.5107C93.5107 191.455 93.5107 191.455 93.5107 191.455C93.5107 194.467 91.0687 196.909 88.0562 196.909C85.9023 196.909 84.0401 195.661 83.1535 193.848C82.7568 193.037 82.0157 192.364 81.1128 192.364H74.4199C73.9178 192.364 73.5108 191.957 73.5108 191.455Z" fill="#FFBE32"/>
<path fill-rule="evenodd" clip-rule="evenodd" d="M67.5108 191.455H93.5107C93.5107 194.467 91.0687 196.909 88.0562 196.909C85.9023 196.909 84.0401 195.661 83.1535 193.848C82.7568 193.037 82.0157 192.364 81.1128 192.364H77.7664H68.4199C67.9178 192.364 67.5108 191.957 67.5108 191.455Z" fill="#FFBE32"/>
<path d="M82.0107 190.5C82.2869 190.5 82.5107 190.724 82.5107 191C82.5107 191.276 82.2869 191.5 82.0107 191.5L68.5108 191.5C68.2347 191.5 68.0108 191.276 68.0108 191C68.0108 190.724 68.2347 190.5 68.5108 190.5L82.0107 190.5Z" fill="#FFF6E2"/>
<path fill-rule="evenodd" clip-rule="evenodd" d="M91.433 189.078C89.7363 186.957 86.4779 187.062 84.9203 189.287C84.762 189.513 84.4502 189.568 84.224 189.41C83.9978 189.251 83.9428 188.94 84.1011 188.713C86.0413 185.942 90.1003 185.812 92.2138 188.454L92.4012 188.688C92.5737 188.903 92.5387 189.218 92.3231 189.391C92.1074 189.563 91.7928 189.528 91.6203 189.312L91.433 189.078Z" fill="#FFF6E2"/>
<path fill-rule="evenodd" clip-rule="evenodd" d="M85.0884 193.922C86.7851 196.043 90.0435 195.938 91.6011 193.713C91.7594 193.487 92.0712 193.432 92.2974 193.59C92.5237 193.749 92.5787 194.06 92.4203 194.287C90.4801 197.058 86.4211 197.188 84.3076 194.546L84.1203 194.312C83.9478 194.097 83.9827 193.782 84.1984 193.609C84.414 193.437 84.7286 193.472 84.9011 193.688L85.0884 193.922Z" fill="#FBCB65"/>
<path fill-rule="evenodd" clip-rule="evenodd" d="M88.0562 225.983C91.0687 225.983 93.5107 228.425 93.5107 231.438C93.5107 234.45 91.0687 236.892 88.0562 236.892C85.9024 236.892 84.0401 235.644 83.1535 233.831C82.7568 233.02 82.0158 232.347 81.1129 232.347H77.7664H68.4199C67.9178 232.347 67.5108 231.94 67.5108 231.438C67.5108 230.936 67.9178 230.529 68.4199 230.529H77.7664H81.1129C82.0157 230.529 82.7568 229.856 83.1535 229.044C84.0401 227.232 85.9023 225.983 88.0562 225.983Z" fill="#E7A922"/>
<path fill-rule="evenodd" clip-rule="evenodd" d="M88.0562 225C91.0687 225 93.5107 227.442 93.5107 230.455C93.5107 233.467 91.0687 235.909 88.0562 235.909C85.9023 235.909 84.0401 234.661 83.1535 232.848C82.7568 232.037 82.0157 231.364 81.1128 231.364H77.7664H68.4091C67.907 231.364 67.5 230.956 67.5 230.454C67.5 229.952 67.907 229.545 68.4091 229.545H77.7664H81.1129C82.0158 229.545 82.7568 228.872 83.1535 228.061C84.0402 226.248 85.9024 225 88.0562 225Z" fill="#FFD88F"/>
<path fill-rule="evenodd" clip-rule="evenodd" d="M73.5108 230.455H93.5107C93.5107 230.455 93.5107 230.455 93.5107 230.455C93.5107 233.467 91.0687 235.909 88.0562 235.909C85.9023 235.909 84.0401 234.661 83.1535 232.848C82.7568 232.037 82.0157 231.364 81.1128 231.364H74.4199C73.9178 231.364 73.5108 230.957 73.5108 230.455Z" fill="#FFBE32"/>
<path fill-rule="evenodd" clip-rule="evenodd" d="M67.5108 230.455H93.5107C93.5107 233.467 91.0687 235.909 88.0562 235.909C85.9023 235.909 84.0401 234.661 83.1535 232.848C82.7568 232.037 82.0157 231.364 81.1128 231.364H77.7664H68.4199C67.9178 231.364 67.5108 230.957 67.5108 230.455Z" fill="#FFBE32"/>
<path d="M82.0107 229.5C82.2869 229.5 82.5107 229.724 82.5107 230C82.5107 230.276 82.2869 230.5 82.0107 230.5L68.5108 230.5C68.2347 230.5 68.0108 230.276 68.0108 230C68.0108 229.724 68.2347 229.5 68.5108 229.5L82.0107 229.5Z" fill="#FFF6E2"/>
<path fill-rule="evenodd" clip-rule="evenodd" d="M91.433 228.078C89.7363 225.957 86.4779 226.062 84.9203 228.287C84.762 228.513 84.4502 228.568 84.224 228.41C83.9978 228.251 83.9428 227.94 84.1011 227.713C86.0413 224.942 90.1003 224.812 92.2138 227.454L92.4012 227.688C92.5737 227.903 92.5387 228.218 92.3231 228.391C92.1074 228.563 91.7928 228.528 91.6203 228.312L91.433 228.078Z" fill="#FFF6E2"/>
<path fill-rule="evenodd" clip-rule="evenodd" d="M85.0884 232.922C86.7851 235.043 90.0435 234.938 91.6011 232.713C91.7594 232.487 92.0712 232.432 92.2974 232.59C92.5237 232.749 92.5787 233.06 92.4203 233.287C90.4801 236.058 86.4211 236.188 84.3076 233.546L84.1203 233.312C83.9478 233.097 83.9827 232.782 84.1984 232.609C84.414 232.437 84.7286 232.472 84.9011 232.688L85.0884 232.922Z" fill="#FBCB65"/>
<path fill-rule="evenodd" clip-rule="evenodd" d="M88.0562 321.983C91.0687 321.983 93.5107 324.425 93.5107 327.438C93.5107 330.45 91.0687 332.892 88.0562 332.892C85.9024 332.892 84.0401 331.644 83.1535 329.831C82.7568 329.02 82.0158 328.347 81.1129 328.347H77.7664H68.4199C67.9178 328.347 67.5108 327.94 67.5108 327.438C67.5108 326.936 67.9178 326.529 68.4199 326.529H77.7664H81.1129C82.0157 326.529 82.7568 325.856 83.1535 325.044C84.0401 323.232 85.9023 321.983 88.0562 321.983Z" fill="#E7A922"/>
<path fill-rule="evenodd" clip-rule="evenodd" d="M88.0562 321C91.0687 321 93.5107 323.442 93.5107 326.455C93.5107 329.467 91.0687 331.909 88.0562 331.909C85.9023 331.909 84.0401 330.661 83.1535 328.848C82.7568 328.037 82.0157 327.364 81.1128 327.364H77.7664H68.4091C67.907 327.364 67.5 326.956 67.5 326.454C67.5 325.952 67.907 325.545 68.4091 325.545H77.7664H81.1129C82.0158 325.545 82.7568 324.872 83.1535 324.061C84.0402 322.248 85.9024 321 88.0562 321Z" fill="#FFD88F"/>
<path fill-rule="evenodd" clip-rule="evenodd" d="M73.5108 326.455H93.5107C93.5107 326.455 93.5107 326.455 93.5107 326.455C93.5107 329.467 91.0687 331.909 88.0562 331.909C85.9023 331.909 84.0401 330.661 83.1535 328.848C82.7568 328.037 82.0157 327.364 81.1128 327.364H74.4199C73.9178 327.364 73.5108 326.957 73.5108 326.455Z" fill="#FFBE32"/>
<path fill-rule="evenodd" clip-rule="evenodd" d="M67.5108 326.455H93.5107C93.5107 329.467 91.0687 331.909 88.0562 331.909C85.9023 331.909 84.0401 330.661 83.1535 328.848C82.7568 328.037 82.0157 327.364 81.1128 327.364H77.7664H68.4199C67.9178 327.364 67.5108 326.957 67.5108 326.455Z" fill="#FFBE32"/>
<path d="M82.0107 325.5C82.2869 325.5 82.5107 325.724 82.5107 326C82.5107 326.276 82.2869 326.5 82.0107 326.5L68.5108 326.5C68.2347 326.5 68.0108 326.276 68.0108 326C68.0108 325.724 68.2347 325.5 68.5108 325.5L82.0107 325.5Z" fill="#FFF6E2"/>
<path fill-rule="evenodd" clip-rule="evenodd" d="M91.433 324.078C89.7363 321.957 86.4779 322.062 84.9203 324.287C84.762 324.513 84.4502 324.568 84.224 324.41C83.9978 324.251 83.9428 323.94 84.1011 323.713C86.0413 320.942 90.1003 320.812 92.2138 323.454L92.4012 323.688C92.5737 323.903 92.5387 324.218 92.3231 324.391C92.1074 324.563 91.7928 324.528 91.6203 324.312L91.433 324.078Z" fill="#FFF6E2"/>
<path fill-rule="evenodd" clip-rule="evenodd" d="M85.0884 328.922C86.7851 331.043 90.0435 330.938 91.6011 328.713C91.7594 328.487 92.0712 328.432 92.2974 328.59C92.5237 328.749 92.5787 329.06 92.4203 329.287C90.4801 332.058 86.4211 332.188 84.3076 329.546L84.1203 329.312C83.9478 329.097 83.9827 328.782 84.1984 328.609C84.414 328.437 84.7286 328.472 84.9011 328.688L85.0884 328.922Z" fill="#FBCB65"/>
<path fill-rule="evenodd" clip-rule="evenodd" d="M88.0562 199.983C91.0687 199.983 93.5107 202.425 93.5107 205.438C93.5107 208.45 91.0687 210.892 88.0562 210.892C85.9024 210.892 84.0401 209.644 83.1535 207.831C82.7568 207.02 82.0158 206.347 81.1129 206.347H77.7664H68.4199C67.9178 206.347 67.5108 205.94 67.5108 205.438C67.5108 204.936 67.9178 204.529 68.4199 204.529H77.7664H81.1129C82.0157 204.529 82.7568 203.856 83.1535 203.044C84.0401 201.232 85.9023 199.983 88.0562 199.983Z" fill="#E7A922"/>
<path fill-rule="evenodd" clip-rule="evenodd" d="M88.0562 199C91.0687 199 93.5107 201.442 93.5107 204.455C93.5107 207.467 91.0687 209.909 88.0562 209.909C85.9023 209.909 84.0401 208.661 83.1535 206.848C82.7568 206.037 82.0157 205.364 81.1128 205.364H77.7664H68.4091C67.907 205.364 67.5 204.956 67.5 204.454C67.5 203.952 67.907 203.545 68.4091 203.545H77.7664H81.1129C82.0158 203.545 82.7568 202.872 83.1535 202.061C84.0402 200.248 85.9024 199 88.0562 199Z" fill="#FFD88F"/>
<path fill-rule="evenodd" clip-rule="evenodd" d="M73.5108 204.455H93.5107C93.5107 204.455 93.5107 204.455 93.5107 204.455C93.5107 207.467 91.0687 209.909 88.0562 209.909C85.9023 209.909 84.0401 208.661 83.1535 206.848C82.7568 206.037 82.0157 205.364 81.1128 205.364H74.4199C73.9178 205.364 73.5108 204.957 73.5108 204.455Z" fill="#FFBE32"/>
<path fill-rule="evenodd" clip-rule="evenodd" d="M67.5108 204.455H93.5107C93.5107 207.467 91.0687 209.909 88.0562 209.909C85.9023 209.909 84.0401 208.661 83.1535 206.848C82.7568 206.037 82.0157 205.364 81.1128 205.364H77.7664H68.4199C67.9178 205.364 67.5108 204.957 67.5108 204.455Z" fill="#FFBE32"/>
<path d="M82.0107 203.5C82.2869 203.5 82.5107 203.724 82.5107 204C82.5107 204.276 82.2869 204.5 82.0107 204.5L68.5108 204.5C68.2347 204.5 68.0108 204.276 68.0108 204C68.0108 203.724 68.2347 203.5 68.5108 203.5L82.0107 203.5Z" fill="#FFF6E2"/>
<path fill-rule="evenodd" clip-rule="evenodd" d="M91.433 202.078C89.7363 199.957 86.4779 200.062 84.9203 202.287C84.762 202.513 84.4502 202.568 84.224 202.41C83.9978 202.251 83.9428 201.94 84.1011 201.713C86.0413 198.942 90.1003 198.812 92.2138 201.454L92.4012 201.688C92.5737 201.903 92.5387 202.218 92.3231 202.391C92.1074 202.563 91.7928 202.528 91.6203 202.312L91.433 202.078Z" fill="#FFF6E2"/>
<path fill-rule="evenodd" clip-rule="evenodd" d="M85.0884 206.922C86.7851 209.043 90.0435 208.938 91.6011 206.713C91.7594 206.487 92.0712 206.432 92.2974 206.59C92.5237 206.749 92.5787 207.06 92.4203 207.287C90.4801 210.058 86.4211 210.188 84.3076 207.546L84.1203 207.312C83.9478 207.097 83.9827 206.782 84.1984 206.609C84.414 206.437 84.7286 206.472 84.9011 206.688L85.0884 206.922Z" fill="#FBCB65"/>
<path fill-rule="evenodd" clip-rule="evenodd" d="M88.0562 238.983C91.0687 238.983 93.5107 241.425 93.5107 244.438C93.5107 247.45 91.0687 249.892 88.0562 249.892C85.9024 249.892 84.0401 248.644 83.1535 246.831C82.7568 246.02 82.0158 245.347 81.1129 245.347H77.7664H68.4199C67.9178 245.347 67.5108 244.94 67.5108 244.438C67.5108 243.936 67.9178 243.529 68.4199 243.529H77.7664H81.1129C82.0157 243.529 82.7568 242.856 83.1535 242.044C84.0401 240.232 85.9023 238.983 88.0562 238.983Z" fill="#E7A922"/>
<path fill-rule="evenodd" clip-rule="evenodd" d="M88.0562 238C91.0687 238 93.5107 240.442 93.5107 243.455C93.5107 246.467 91.0687 248.909 88.0562 248.909C85.9023 248.909 84.0401 247.661 83.1535 245.848C82.7568 245.037 82.0157 244.364 81.1128 244.364H77.7664H68.4091C67.907 244.364 67.5 243.956 67.5 243.454C67.5 242.952 67.907 242.545 68.4091 242.545H77.7664H81.1129C82.0158 242.545 82.7568 241.872 83.1535 241.061C84.0402 239.248 85.9024 238 88.0562 238Z" fill="#FFD88F"/>
<path fill-rule="evenodd" clip-rule="evenodd" d="M73.5108 243.455H93.5107C93.5107 243.455 93.5107 243.455 93.5107 243.455C93.5107 246.467 91.0687 248.909 88.0562 248.909C85.9023 248.909 84.0401 247.661 83.1535 245.848C82.7568 245.037 82.0157 244.364 81.1128 244.364H74.4199C73.9178 244.364 73.5108 243.957 73.5108 243.455Z" fill="#FFBE32"/>
<path fill-rule="evenodd" clip-rule="evenodd" d="M67.5108 243.455H93.5107C93.5107 246.467 91.0687 248.909 88.0562 248.909C85.9023 248.909 84.0401 247.661 83.1535 245.848C82.7568 245.037 82.0157 244.364 81.1128 244.364H77.7664H68.4199C67.9178 244.364 67.5108 243.957 67.5108 243.455Z" fill="#FFBE32"/>
<path d="M82.0107 242.5C82.2869 242.5 82.5107 242.724 82.5107 243C82.5107 243.276 82.2869 243.5 82.0107 243.5L68.5108 243.5C68.2347 243.5 68.0108 243.276 68.0108 243C68.0108 242.724 68.2347 242.5 68.5108 242.5L82.0107 242.5Z" fill="#FFF6E2"/>
<path fill-rule="evenodd" clip-rule="evenodd" d="M91.433 241.078C89.7363 238.957 86.4779 239.062 84.9203 241.287C84.762 241.513 84.4502 241.568 84.224 241.41C83.9978 241.251 83.9428 240.94 84.1011 240.713C86.0413 237.942 90.1003 237.812 92.2138 240.454L92.4012 240.688C92.5737 240.903 92.5387 241.218 92.3231 241.391C92.1074 241.563 91.7928 241.528 91.6203 241.312L91.433 241.078Z" fill="#FFF6E2"/>
<path fill-rule="evenodd" clip-rule="evenodd" d="M85.0884 245.922C86.7851 248.043 90.0435 247.938 91.6011 245.713C91.7594 245.487 92.0712 245.432 92.2974 245.59C92.5237 245.749 92.5787 246.06 92.4203 246.287C90.4801 249.058 86.4211 249.188 84.3076 246.546L84.1203 246.312C83.9478 246.097 83.9827 245.782 84.1984 245.609C84.414 245.437 84.7286 245.472 84.9011 245.688L85.0884 245.922Z" fill="#FBCB65"/>
<path fill-rule="evenodd" clip-rule="evenodd" d="M88.0562 334.983C91.0687 334.983 93.5107 337.425 93.5107 340.438C93.5107 343.45 91.0687 345.892 88.0562 345.892C85.9024 345.892 84.0401 344.644 83.1535 342.831C82.7568 342.02 82.0158 341.347 81.1129 341.347H77.7664H68.4199C67.9178 341.347 67.5108 340.94 67.5108 340.438C67.5108 339.936 67.9178 339.529 68.4199 339.529H77.7664H81.1129C82.0157 339.529 82.7568 338.856 83.1535 338.044C84.0401 336.232 85.9023 334.983 88.0562 334.983Z" fill="#E7A922"/>
<path fill-rule="evenodd" clip-rule="evenodd" d="M88.0562 334C91.0687 334 93.5107 336.442 93.5107 339.455C93.5107 342.467 91.0687 344.909 88.0562 344.909C85.9023 344.909 84.0401 343.661 83.1535 341.848C82.7568 341.037 82.0157 340.364 81.1128 340.364H77.7664H68.4091C67.907 340.364 67.5 339.956 67.5 339.454C67.5 338.952 67.907 338.545 68.4091 338.545H77.7664H81.1129C82.0158 338.545 82.7568 337.872 83.1535 337.061C84.0402 335.248 85.9024 334 88.0562 334Z" fill="#FFD88F"/>
<path fill-rule="evenodd" clip-rule="evenodd" d="M73.5108 339.455H93.5107C93.5107 339.455 93.5107 339.455 93.5107 339.455C93.5107 342.467 91.0687 344.909 88.0562 344.909C85.9023 344.909 84.0401 343.661 83.1535 341.848C82.7568 341.037 82.0157 340.364 81.1128 340.364H74.4199C73.9178 340.364 73.5108 339.957 73.5108 339.455Z" fill="#FFBE32"/>
<path fill-rule="evenodd" clip-rule="evenodd" d="M67.5108 339.455H93.5107C93.5107 342.467 91.0687 344.909 88.0562 344.909C85.9023 344.909 84.0401 343.661 83.1535 341.848C82.7568 341.037 82.0157 340.364 81.1128 340.364H77.7664H68.4199C67.9178 340.364 67.5108 339.957 67.5108 339.455Z" fill="#FFBE32"/>
<path d="M82.0107 338.5C82.2869 338.5 82.5107 338.724 82.5107 339C82.5107 339.276 82.2869 339.5 82.0107 339.5L68.5108 339.5C68.2347 339.5 68.0108 339.276 68.0108 339C68.0108 338.724 68.2347 338.5 68.5108 338.5L82.0107 338.5Z" fill="#FFF6E2"/>
<path fill-rule="evenodd" clip-rule="evenodd" d="M91.433 337.078C89.7363 334.957 86.4779 335.062 84.9203 337.287C84.762 337.513 84.4502 337.568 84.224 337.41C83.9978 337.251 83.9428 336.94 84.1011 336.713C86.0413 333.942 90.1003 333.812 92.2138 336.454L92.4012 336.688C92.5737 336.903 92.5387 337.218 92.3231 337.391C92.1074 337.563 91.7928 337.528 91.6203 337.312L91.433 337.078Z" fill="#FFF6E2"/>
<path fill-rule="evenodd" clip-rule="evenodd" d="M85.0884 341.922C86.7851 344.043 90.0435 343.938 91.6011 341.713C91.7594 341.487 92.0712 341.432 92.2974 341.59C92.5237 341.749 92.5787 342.06 92.4203 342.287C90.4801 345.058 86.4211 345.188 84.3076 342.546L84.1203 342.312C83.9478 342.097 83.9827 341.782 84.1984 341.609C84.414 341.437 84.7286 341.472 84.9011 341.688L85.0884 341.922Z" fill="#FBCB65"/>
<path d="M180.5 155C180.5 152.239 182.739 150 185.5 150V150C188.261 150 190.5 152.239 190.5 155V210C190.5 212.761 188.261 215 185.5 215V215C182.739 215 180.5 212.761 180.5 210V155Z" fill="#D9D9D9"/>
<path d="M180.5 155C180.5 152.239 182.739 150 185.5 150V150C188.261 150 190.5 152.239 190.5 155V210C190.5 212.761 188.261 215 185.5 215V215C182.739 215 180.5 212.761 180.5 210V155Z" fill="#FFBE32"/>
<path d="M179.5 158.5C179.5 158.224 179.724 158 180 158V158C180.276 158 180.5 158.224 180.5 158.5V202.5C180.5 202.776 180.276 203 180 203V203C179.724 203 179.5 202.776 179.5 202.5V158.5Z" fill="#E7A922"/>
<path d="M180.5 155C180.5 152.239 182.739 150 185.5 150V150C188.261 150 190.5 152.239 190.5 155V160C190.5 162.761 188.261 165 185.5 165V165C182.739 165 180.5 162.761 180.5 160V155Z" fill="#FFD88F"/>
<path d="M180.5 210C180.5 207.239 182.739 205 185.5 205V205C188.261 205 190.5 207.239 190.5 210V210C190.5 212.761 188.261 215 185.5 215V215C182.739 215 180.5 212.761 180.5 210V210Z" fill="#E7A922"/>
<path d="M180.5 178C180.5 175.239 182.739 173 185.5 173V173C188.261 173 190.5 175.239 190.5 178V209C190.5 211.761 188.261 214 185.5 214V214C182.739 214 180.5 211.761 180.5 209V178Z" fill="#FBCB65"/>
<path fill-rule="evenodd" clip-rule="evenodd" d="M185.5 151.5C183.567 151.5 182 153.067 182 155C182 155.276 181.776 155.5 181.5 155.5C181.224 155.5 181 155.276 181 155C181 152.515 183.015 150.5 185.5 150.5C187.985 150.5 190 152.515 190 155C190 155.276 189.776 155.5 189.5 155.5C189.224 155.5 189 155.276 189 155C189 153.067 187.433 151.5 185.5 151.5Z" fill="#FFF6E2"/>
<path d="M19.5 18H21.5V28H19.5V18Z" fill="#E7A922"/>
<path d="M12.1919 18.3342C12.9893 16.6064 14.7186 15.5 16.6215 15.5V15.5C19.3158 15.5 21.5 17.6842 21.5 20.3785V23C21.5 27.1421 18.1421 30.5 14 30.5H13.5H5.96983C3.77735 30.5 2 28.7226 2 26.5302V26.5302C2 24.5171 3.50673 22.8227 5.50599 22.5875L7.21483 22.3865C9.25573 22.1464 11.025 20.8625 11.8862 18.9966L12.1919 18.3342Z" fill="#0E0C14"/>
<path fill-rule="evenodd" clip-rule="evenodd" d="M19 22C19.8284 22 20.5 22.6716 20.5 23.5C20.5 26.8137 17.8137 29.5 14.5 29.5H4.5C3.67157 29.5 3 28.8284 3 28C3 27.1716 3.67157 26.5 4.5 26.5H14.5C16.1569 26.5 17.5 25.1569 17.5 23.5C17.5 22.6716 18.1716 22 19 22Z" fill="#241F39"/>
<path fill-rule="evenodd" clip-rule="evenodd" d="M16.3625 17.5C15.3973 17.5 14.5093 18.0272 14.0471 18.8745L13.1799 20.4644C12.3218 22.0375 10.8685 23.2004 9.14566 23.6927L8.10452 23.9901L4.57071 24.495C4.29735 24.534 4.04408 24.3441 4.00503 24.0707C3.96598 23.7973 4.15592 23.5441 4.42929 23.505L7.89548 23.0099L8.87093 22.7312C10.3362 22.3125 11.5722 21.3234 12.302 19.9856L13.1692 18.3957C13.8066 17.2271 15.0314 16.5 16.3625 16.5H17.5C18.8807 16.5 20 17.6193 20 19C20 19.2761 19.7761 19.5 19.5 19.5C19.2239 19.5 19 19.2761 19 19C19 18.1716 18.3284 17.5 17.5 17.5H16.3625Z" fill="#3A3268"/>
</svg>
