<svg width="191" height="373" viewBox="0 0 191 373" fill="none" xmlns="http://www.w3.org/2000/svg">
<path fill-rule="evenodd" clip-rule="evenodd" d="M11 56C11 25.6243 35.6243 1 66 1C96.3757 1 121 25.6243 121 56V313C121 340.614 143.386 363 171 363C171.67 363 172.337 362.987 173 362.961V363H174C175.105 363 176 363.896 176 365C176 366.104 175.105 367 174 367H76.9468C70.7444 370.196 63.7079 372 56.25 372C31.2591 372 11 351.741 11 326.75V239H4V240H1V228H4V229H6V228H7V226H6V225H4V226H1V214H4V215H6V214H7V212H6V211H4V212H1V200H4V201H11V56ZM10 225V226H9V228H10V229H11V225H10ZM11 215H10V214H9V212H10V211H11V215ZM31 201C31 198.239 28.7614 196 26 196C23.2415 196 21.0048 198.234 21 200.991V201H31ZM61 215V214H62V212H61V211H41.5V215H61ZM65 215V214H64V212H65V211H68V212H71V214H68V215H65ZM71 200L71.0001 145H70V143H45.4547C42.9518 146.894 41.5 151.527 41.5 156.5V201H68V200H71ZM71 131.904L71.0001 136H70V138H49.6846C54.1249 133.962 60.025 131.5 66.5 131.5C68.0363 131.5 69.5403 131.639 71 131.904ZM66.5 121.5C53.9623 121.5 42.9642 128.092 36.7833 138H22V136H21V109H24V107H71V121.787C69.5267 121.597 68.0247 121.5 66.5 121.5ZM22 143H34.1985C32.4602 147.154 31.5 151.715 31.5 156.5V187.04C29.797 186.369 27.9416 186 26 186C24.2468 186 22.5639 186.301 21 186.854V145H22V143ZM68 229V228H71V226H68V225H65V226H64V228H65V229H68ZM61 226V225H41.5V229H61V228H62V226H61ZM31.5 225H21V229H31.5V225ZM21 326.75V320H24V318H31.0002V336C31.0002 344.284 37.7159 351 46.0001 351C54.2844 351 61.0002 344.284 61.0001 336V318H89V320H91.5V326.75C91.5 346.218 75.718 362 56.25 362C36.782 362 21 346.218 21 326.75ZM24 311H21V239H31L31.0001 313H24V311ZM21 215H31V211H21V215ZM41.0002 336L41.0001 318H51.0001V336C51.0002 338.761 48.7616 341 46.0001 341C43.2388 341 41.0002 338.761 41.0002 336ZM41.0001 313H51.0001L51 270.5C47.3056 269.75 43.907 268.185 41 266.002L41.0001 313ZM89 313H61.0001V302H62V300H91V302H91.5V311H89V313ZM91.5 293H91V295H62V293H61.0001L61 270.5C72.4112 268.184 81 258.095 81 246V136.132C87.3558 140.665 91.5 148.099 91.5 156.5V293ZM41 246V239H50.9999L51 260.146C45.174 258.087 41 252.531 41 246ZM61 260.146L60.9999 239H68V240H71V246C71 252.531 66.8259 258.087 61 260.146ZM21 56V100H24V102H67.4998C67.9559 101.393 68.6821 101 69.5 101H69C66.2386 101 64 98.7615 64 96V86H63.5C61.567 86 60 84.4331 60 82.5C60 80.5669 61.567 79 63.5 79H87.5C89.433 79 91 80.5669 91 82.5C91 84.4331 89.433 86 87.5 86H87V96C87 98.7615 84.7614 101 82 101H82.5C83.3179 101 84.0441 101.393 84.5002 102H108V100H111V56C111 31.1472 90.8528 11 66 11C41.1472 11 21 31.1472 21 56ZM108 109H111V313C111 327.18 105.097 339.98 95.6154 349.08C99.3609 342.491 101.5 334.871 101.5 326.75V156.5C101.5 142.342 93.0937 130.147 81 124.635V107H108V109Z" fill="#FFCE8A"/>
<path fill-rule="evenodd" clip-rule="evenodd" d="M174 361.921V362C175.657 362 177 363.343 177 365C177 366.657 175.657 368 174 368H77.1879C70.9002 371.198 63.7841 373 56.25 373C30.7068 373 10 352.293 10 326.75V240H5V241H0V199H5V200H10V56C10 25.072 35.072 0 66 0C96.928 0 122 25.072 122 56V313C122 340.062 143.938 362 171 362C171.657 362 172.31 361.987 172.961 361.962L174 361.921ZM76.9468 367H174C175.105 367 176 366.104 176 365C176 363.896 175.105 363 174 363H173V362.961C172.667 362.974 172.334 362.984 172 362.99C171.667 362.997 171.334 363 171 363C143.386 363 121 340.614 121 313V56C121 25.6243 96.3757 1 66 1C35.6243 1 11 25.6243 11 56V201H4V200H1V212H4V211H6V212H7V214H6V215H4V214H1V226H4V225H6V226H7V228H6V229H4V228H1V240H4V239H11V326.75C11 351.741 31.2591 372 56.25 372C63.7079 372 70.7444 370.196 76.9468 367ZM60 214V212H42.5V214H60ZM66 214H67V212H66V214ZM65 214H64V212H65V211H68V212H71V214H68V215H65V214ZM68 201V200H71V145H70V143H45.4547C42.9518 146.894 41.5 151.527 41.5 156.5V201H68ZM42.5 200H67V199H70V146H69V144H46.008C43.7826 147.64 42.5 151.919 42.5 156.5V200ZM69 135H70L70 132.753C68.8579 132.586 67.6893 132.5 66.5 132.5C61.2771 132.5 56.4453 134.167 52.5057 137H69V135ZM70 136H71V131.904C69.5403 131.639 68.0363 131.5 66.5 131.5C60.5782 131.5 55.1373 133.559 50.8541 137C50.454 137.321 50.0639 137.655 49.6846 138H70V136ZM23 135V137H36.2336C42.6414 127.074 53.8026 120.5 66.5 120.5C67.6805 120.5 68.8481 120.557 70 120.668V108H25V110H22V135H23ZM21 109H24V107H71V121.787C70.6681 121.744 70.3347 121.706 70 121.673C68.8488 121.558 67.6812 121.5 66.5 121.5C53.9623 121.5 42.9642 128.092 36.7833 138H22V136H21V109ZM23 146H22V185.504C23.2793 185.175 24.6198 185 26 185C27.5613 185 29.0717 185.224 30.5 185.642V156.5C30.5 152.107 31.2875 147.895 32.7297 144H23V146ZM22 143V145H21V186.854C21.3282 186.738 21.6617 186.633 22 186.539C23.2734 186.188 24.6148 186 26 186C27.5678 186 29.0794 186.241 30.5 186.687C30.8387 186.793 31.1722 186.911 31.5 187.04V156.5C31.5 152.096 32.3134 147.882 33.7981 144C33.9266 143.664 34.0601 143.331 34.1985 143H22ZM67 228V226H66V228H67ZM60 226H42.5V228H60V226ZM25 321H22V326.75C22 345.666 37.3343 361 56.25 361C75.1657 361 90.5 345.666 90.5 326.75V321H88V319H62.0001V336C62.0002 344.836 54.8367 352 46.0001 352C37.1636 352 30.0002 344.836 30.0002 336V319H25V321ZM31.0002 318V336C31.0002 344.284 37.7159 351 46.0001 351C54.2844 351 61.0002 344.284 61.0001 336V318H89V320H91.5V326.75C91.5 346.218 75.718 362 56.25 362C36.782 362 21 346.218 21 326.75V320H24V318H31.0002ZM25 310V312H30.0001L30 240H22V310H25ZM21 311V239H31L31.0001 313H24V311H21ZM63 303H62L62.0001 312H88V310H90.5V303H90V301H63V303ZM91 300V302H91.5V311H89V313H61.0001V302H62V300H91ZM91.5 156.5C91.5 148.548 87.787 141.463 82 136.884C81.6732 136.625 81.3398 136.374 81 136.132V246C81 258.095 72.4112 268.184 61 270.5L61.0001 293H62V295H91V293H91.5V156.5ZM90.5 292V156.5C90.5 149.155 87.2008 142.579 82 138.176V246C82 258.295 73.4667 268.595 62 271.304L62 292H63V294H90V292H90.5ZM67 241V240H61.9999L62 258.653C66.7309 256.406 70 251.583 70 246V241H67ZM71 240V246C71 252.151 67.2977 257.437 62 259.752C61.6726 259.895 61.3391 260.027 61 260.146L60.9999 239H68V240H71ZM84.1352 101.609C84.2703 101.726 84.3927 101.857 84.5002 102H108V100H111V56C111 31.1472 90.8528 11 66 11C41.1472 11 21 31.1472 21 56V100H24V102H67.4998C67.5406 101.946 67.5835 101.893 67.6284 101.843C67.9811 101.445 68.4588 101.16 69 101.05C69.1616 101.017 69.3288 101 69.5 101H69C68.4274 101 67.8773 100.904 67.365 100.727C65.4065 100.049 64 98.1889 64 96V86H63.5C61.567 86 60 84.4331 60 82.5C60 80.5669 61.567 79 63.5 79H87.5C89.433 79 91 80.5669 91 82.5C91 84.4331 89.433 86 87.5 86H87V96C87 97.9529 85.8804 99.6443 84.248 100.467C83.7133 100.737 83.1235 100.913 82.5 100.975C82.3355 100.992 82.1687 101 82 101H82.5C83.1253 101 83.6969 101.23 84.1352 101.609ZM85.3178 101H107V99H110V56C110 31.6995 90.3005 12 66 12C41.6995 12 22 31.6995 22 56V99H25V101H65.6822C64.0655 99.9251 63 98.087 63 96V86.9725C60.7501 86.7238 59 84.8164 59 82.5C59 80.0146 61.0148 78 63.5 78H87.5C89.9852 78 92 80.0146 92 82.5C92 84.8164 90.2499 86.7238 88 86.9725V96C88 98.087 86.9345 99.9251 85.3178 101ZM107 110V108H82V123.999C94.1222 129.79 102.5 142.166 102.5 156.5V326.75C102.5 332.637 101.4 338.269 99.3929 343.45C106.034 335.087 110 324.508 110 313V110H107ZM111 109V313C111 325.927 106.094 337.708 98.0434 346.583C97.2631 347.443 96.4532 348.276 95.6154 349.08C96.1821 348.083 96.712 347.063 97.2033 346.02C99.9592 340.174 101.5 333.642 101.5 326.75V156.5C101.5 142.342 93.0937 130.147 81 124.635V107H108V109H111ZM11 215H10V214H9V212H10V211H11V215ZM29.874 200C29.4299 198.275 27.8638 197 26 197C24.1362 197 22.5701 198.275 22.126 200H29.874ZM30.9 200C30.4367 197.718 28.419 196 26 196C23.5811 196 21.5633 197.718 21.1 200C21.035 200.32 21.0006 200.652 21 200.991V201H31C31 200.658 30.9656 200.323 30.9 200ZM68 226V225H65V226H64V228H65V229H68V228H71V226H68ZM61 229V228H62V226H61V225H41.5V229H61ZM30.5 226H22V228H30.5V226ZM22 214H30V212H22V214ZM42.0001 319L42.0002 336C42.0002 338.209 43.7911 340 46.0001 340C48.2093 340 50.0002 338.209 50.0001 336V319H42.0001ZM41.0002 336C41.0002 338.761 43.2388 341 46.0001 341C48.7616 341 51.0002 338.761 51.0001 336V318H41.0001L41.0002 336ZM42.0001 312H50.0001L50 271.304C47.118 270.623 44.4217 269.463 42 267.913L42.0001 312ZM41 266.002L41.0001 313H51.0001L51 270.5C47.7214 269.834 44.6758 268.527 42 266.715C41.6606 266.486 41.3272 266.248 41 266.002ZM42 240V246C42 251.583 45.2691 256.406 50 258.653L49.9999 240H42ZM41 246C41 252.151 44.7023 257.437 50 259.752C50.3274 259.895 50.6609 260.027 51 260.146L50.9999 239H41V246ZM10 226V225H11V229H10V228H9V226H10ZM61 214V215H41.5V211H61V212H62V214H61ZM31.5 225V229H21V225H31.5ZM21 215V211H31V215H21Z" fill="white"/>
<path d="M21 317H24V320H21V317Z" fill="#E7A922"/>
<path d="M21 314H24V317H21V314Z" fill="#FFBE32"/>
<path d="M21 311H24V314H21V311Z" fill="#FFD88F"/>
<path d="M21 314H24V313H21V314Z" fill="#FFF6E2"/>
<path d="M24 313H92V318H24V313Z" fill="#FFD88F"/>
<path d="M24 317H92V318H24V317Z" fill="#E7A922"/>
<path d="M24 316H92V317H24V316Z" fill="#FFBE32"/>
<path d="M24 314H92V315H24V314Z" fill="#FFF6E2"/>
<path d="M24 317H25V318H24V317Z" fill="#C38B10"/>
<path d="M24 316H25V317H24V316Z" fill="#E7A922"/>
<path d="M24 315H25V316H24V315Z" fill="#FFBE32"/>
<path d="M24 313H25V314H24V313Z" fill="#FFBE32"/>
<path d="M24 314H25V315H24V314Z" fill="#FFD88F"/>
<path d="M89 317H92V320H89V317Z" fill="#E7A922"/>
<path d="M89 314H92V317H89V314Z" fill="#FFBE32"/>
<path d="M89 311H92V314H89V311Z" fill="#FFD88F"/>
<path d="M89 314H92V313H89V314Z" fill="#FFF6E2"/>
<path fill-rule="evenodd" clip-rule="evenodd" d="M35.9999 231C38.7614 231 40.9999 233.239 40.9999 236L41.0002 336C41.0002 338.761 43.2387 341 46.0002 341C48.7616 341 51.0002 338.761 51.0001 336L50.9999 236C50.9999 233.239 53.2385 231 55.9999 231C58.7613 231 60.9999 233.239 60.9999 236L61.0001 336C61.0002 344.284 54.2844 351 46.0002 351C37.7159 351 31.0002 344.284 31.0002 336L30.9999 236C30.9999 233.239 33.2385 231 35.9999 231Z" fill="#FFBE32"/>
<path fill-rule="evenodd" clip-rule="evenodd" d="M52.5 312C53.3284 312 54 312.672 54 313.5L54 335.5C54 339.918 50.4183 343.5 46 343.5C41.5817 343.5 38 339.918 38 335.5L37.9999 317.5C37.9999 316.672 38.6715 316 39.4999 316C40.3284 316 40.9999 316.672 40.9999 317.5L41 335.5C41 338.262 43.2386 340.5 46 340.5C48.7614 340.5 51 338.261 51 335.5L51 313.5C51 312.672 51.6716 312 52.5 312Z" fill="#FFD88F"/>
<path fill-rule="evenodd" clip-rule="evenodd" d="M58.5001 333.5C59.8808 333.5 61.0001 334.619 61.0001 336C61.0001 344.284 54.2843 351 46.0001 351C37.7158 351 31.0001 344.284 31.0001 336C31.0001 334.619 32.1194 333.5 33.5001 333.5C34.8808 333.5 36.0001 334.619 36.0001 336C36.0001 341.523 40.4772 346 46.0001 346C51.5229 346 56.0001 341.523 56.0001 336C56.0001 334.619 57.1194 333.5 58.5001 333.5Z" fill="#E7A922"/>
<path d="M53.5 309C52.1193 309 51 307.881 51 306.5L51 271.5C51 270.119 52.1193 269 53.5 269V269C54.8807 269 56 270.119 56 271.5L56 306.5C56 307.881 54.8807 309 53.5 309V309Z" fill="#FBCB65"/>
<path d="M53.5 255C52.1193 255 51 253.881 51 252.5L51 238.5C51 237.119 52.1193 236 53.5 236V236C54.8807 236 56 237.119 56 238.5L56 252.5C56 253.881 54.8807 255 53.5 255V255Z" fill="#FBCB65"/>
<path d="M38.5 312C37.1193 312 36 310.881 36 309.5L36 236.5C36 235.119 37.1193 234 38.5 234V234C39.8807 234 41 235.119 41 236.5L41 309.5C41 310.881 39.8807 312 38.5 312V312Z" fill="#FBCB65"/>
<path d="M34 320.5C34 321.328 33.3284 322 32.5 322V322C31.6716 322 31 321.328 31 320.5L31 235.5C31 234.672 31.6716 234 32.5 234V234C33.3284 234 34 234.672 34 235.5L34 320.5Z" fill="#FFD88F"/>
<path d="M61 321.5C61 322.328 60.3284 323 59.5 323V323C58.6716 323 58 322.328 58 321.5L58 236.5C58 235.672 58.6716 235 59.5 235V235C60.3284 235 61 235.672 61 236.5L61 321.5Z" fill="#FFD88F"/>
<path fill-rule="evenodd" clip-rule="evenodd" d="M52 319.5C52.2762 319.5 52.5 319.724 52.5 320L52.5 325.5C52.5 325.776 52.2762 326 52 326C51.7239 326 51.5 325.776 51.5 325.5L51.5 320C51.5 319.724 51.7239 319.5 52 319.5ZM52 327C52.2762 327 52.5 327.224 52.5 327.5L52.5 336C52.5 339.59 49.5899 342.5 46 342.5C42.4102 342.5 39.5001 339.59 39.5001 336L39.5001 330.5C39.5001 330.224 39.724 330 40.0001 330C40.2763 330 40.5001 330.224 40.5001 330.5L40.5001 336C40.5001 339.038 42.9625 341.5 46 341.5C49.0376 341.5 51.5 339.038 51.5 336L51.5 327.5C51.5 327.224 51.7239 327 52 327Z" fill="#FFF6E2"/>
<path fill-rule="evenodd" clip-rule="evenodd" d="M60 263.5C60.2761 263.5 60.5 263.724 60.5 264L60.5 320.5C60.5 320.776 60.2761 321 60 321C59.7238 321 59.5 320.776 59.5 320.5L59.5 264C59.5 263.724 59.7239 263.5 60 263.5Z" fill="#FFF6E2"/>
<path fill-rule="evenodd" clip-rule="evenodd" d="M32 257.5C32.2761 257.5 32.5 257.724 32.5 258L32.5 314.5C32.5 314.776 32.2761 315 32 315C31.7238 315 31.5 314.776 31.5 314.5L31.5 258C31.5 257.724 31.7239 257.5 32 257.5Z" fill="#FFF6E2"/>
<path d="M61 240L51 240L51 238L61 238L61 240Z" fill="#C38B10"/>
<path d="M61 240L51 240L51 238L61 238L61 240Z" fill="#C38B10"/>
<path d="M61 272L51 272L51 270L61 270L61 272Z" fill="#C38B10"/>
<path d="M41 240L31 240L31 238L41 238L41 240Z" fill="#C38B10"/>
<path d="M41 267L31 267L31 246L41 246L41 267Z" fill="#C38B10"/>
<path fill-rule="evenodd" clip-rule="evenodd" d="M11 56C11 25.6243 35.6243 1 66 1C96.3757 1 121 25.6243 121 56V82H111V56C111 31.1472 90.8528 11 66 11C41.1472 11 21 31.1472 21 56V326.75C21 346.218 36.782 362 56.25 362C75.718 362 91.5 346.218 91.5 326.75V156.5C91.5 142.693 80.3071 131.5 66.5 131.5C52.6929 131.5 41.5 142.693 41.5 156.5V233H31.5V156.5C31.5 137.17 47.17 121.5 66.5 121.5C85.83 121.5 101.5 137.17 101.5 156.5V326.75C101.5 351.741 81.2409 372 56.25 372C31.2591 372 11 351.741 11 326.75V56Z" fill="#FFD88F"/>
<path fill-rule="evenodd" clip-rule="evenodd" d="M14 56.5C14 27.7812 37.2812 4.5 66 4.5C94.7188 4.5 118 27.7812 118 56.5V83.5C118 84.3284 117.328 85 116.5 85C115.672 85 115 84.3284 115 83.5V56.5C115 29.438 93.062 7.5 66 7.5C38.938 7.5 17 29.4381 17 56.5V327C17 327.828 16.3284 328.5 15.5 328.5C14.6716 328.5 14 327.828 14 327V56.5ZM34.5 156.5C34.5 138.827 48.8269 124.5 66.5 124.5C84.1731 124.5 98.5 138.827 98.5 156.5V327C98.5 327.828 97.8284 328.5 97 328.5C96.1716 328.5 95.5 327.828 95.5 327V156.5C95.5 140.484 82.5163 127.5 66.5 127.5C50.4837 127.5 37.5 140.484 37.5 156.5V234.5C37.5 235.328 36.8284 236 36 236C35.1716 236 34.5 235.328 34.5 234.5V156.5Z" fill="#FFBE32"/>
<path fill-rule="evenodd" clip-rule="evenodd" d="M11.5 56.75C11.5 26.7886 35.7886 2.5 65.75 2.5C95.7114 2.5 120 26.7886 120 56.75V58.5C120 58.7761 119.776 59 119.5 59C119.224 59 119 58.7761 119 58.5V56.75C119 27.3408 95.1592 3.5 65.75 3.5C36.3408 3.5 12.5 27.3408 12.5 56.75V95C12.5 95.2761 12.2761 95.5 12 95.5C11.7239 95.5 11.5 95.2761 11.5 95V56.75ZM119.5 60C119.776 60 120 60.2239 120 60.5V70.5C120 70.7761 119.776 71 119.5 71C119.224 71 119 70.7761 119 70.5V60.5C119 60.2239 119.224 60 119.5 60ZM119.5 72.5C119.776 72.5 120 72.7239 120 73V79C120 79.2761 119.776 79.5 119.5 79.5C119.224 79.5 119 79.2761 119 79V73C119 72.7239 119.224 72.5 119.5 72.5ZM12 111.5C12.2761 111.5 12.5 111.724 12.5 112V149.5C12.5 149.776 12.2761 150 12 150C11.7239 150 11.5 149.776 11.5 149.5V112C11.5 111.724 11.7239 111.5 12 111.5ZM32 155.75C32 136.834 47.3342 121.5 66.25 121.5C85.1658 121.5 100.5 136.834 100.5 155.75V291.25C100.5 291.526 100.276 291.75 100 291.75C99.7239 291.75 99.5 291.526 99.5 291.25V155.75C99.5 137.387 84.6135 122.5 66.25 122.5C47.8865 122.5 33 137.387 33 155.75V230C33 230.276 32.7761 230.5 32.5 230.5C32.2239 230.5 32 230.276 32 230V155.75ZM12 167.75C12.2761 167.75 12.5 167.974 12.5 168.25V187C12.5 187.276 12.2761 187.5 12 187.5C11.7239 187.5 11.5 187.276 11.5 187V168.25C11.5 167.974 11.7239 167.75 12 167.75ZM12 252C12.2761 252 12.5 252.224 12.5 252.5V263.5C12.5 263.776 12.2761 264 12 264C11.7239 264 11.5 263.776 11.5 263.5V252.5C11.5 252.224 11.7239 252 12 252ZM12 276.5C12.2761 276.5 12.5 276.724 12.5 277V288.5C12.5 288.776 12.2761 289 12 289C11.7239 289 11.5 288.776 11.5 288.5V277C11.5 276.724 11.7239 276.5 12 276.5Z" fill="#FFF6E2"/>
<path fill-rule="evenodd" clip-rule="evenodd" d="M96 323.75C96.8284 323.75 97.5 324.422 97.5 325.25V326.75C97.5 349.532 79.0317 368 56.25 368C33.4683 368 15 349.532 15 326.75V325.75C15 324.922 15.6716 324.25 16.5 324.25C17.3284 324.25 18 324.922 18 325.75V326.75C18 347.875 35.1251 365 56.25 365C77.3749 365 94.5 347.875 94.5 326.75V325.25C94.5 324.422 95.1716 323.75 96 323.75Z" fill="#FFBE32"/>
<path d="M21 100H24V109H21V100Z" fill="#FFD88F"/>
<path d="M21 106H24V109H21V106Z" fill="#E7A922"/>
<path d="M21 103H24V106H21V103Z" fill="#FFBE32"/>
<path d="M21 100H24V103H21V100Z" fill="#FFD88F"/>
<path d="M21 103H24V102H21V103Z" fill="#FFF6E2"/>
<path d="M108 106H111V109H108V106Z" fill="#E7A922"/>
<path d="M108 103H111V106H108V103Z" fill="#FFBE32"/>
<path d="M108 100H111V103H108V100Z" fill="#FFD88F"/>
<path d="M108 103H111V102H108V103Z" fill="#FFF6E2"/>
<path d="M24 102H108V107H24V102Z" fill="#FFD88F"/>
<path d="M24 106H108V107H24V106Z" fill="#E7A922"/>
<path d="M24 105H108V106H24V105Z" fill="#FFBE32"/>
<path d="M24 103H108V104H24V103Z" fill="#FFF6E2"/>
<path d="M24 106H25V107H24V106Z" fill="#C38B10"/>
<path d="M24 105H25V106H24V105Z" fill="#E7A922"/>
<path d="M24 104H25V105H24V104Z" fill="#FFBE32"/>
<path d="M24 102H25V103H24V102Z" fill="#FFBE32"/>
<path d="M24 103H25V104H24V103Z" fill="#FFD88F"/>
<path d="M61 299H62V302H61V299Z" fill="#E7A922"/>
<path d="M61 296H62V299H61V296Z" fill="#FFBE32"/>
<path d="M61 293H62V296H61V293Z" fill="#FFD88F"/>
<path d="M61 296H62V295H61V296Z" fill="#FFF6E2"/>
<path d="M62.3098 295H92V300H62.3098V295Z" fill="#FFD88F"/>
<path d="M62.3098 299H92V300H62.3098V299Z" fill="#E7A922"/>
<path d="M62.3098 298H92V299H62.3098V298Z" fill="#FFBE32"/>
<path d="M62.3098 296H92V297H62.3098V296Z" fill="#FFF6E2"/>
<path d="M62 299H63V300H62V299Z" fill="#C38B10"/>
<path d="M62 298H63V299H62V298Z" fill="#E7A922"/>
<path d="M62 297H63V298H62V297Z" fill="#FFBE32"/>
<path d="M62 295H63V296H62V295Z" fill="#FFBE32"/>
<path d="M62 296H63V297H62V296Z" fill="#FFD88F"/>
<path d="M90 299H91V300H90V299Z" fill="#C38B10"/>
<path d="M90 298H91V299H90V298Z" fill="#E7A922"/>
<path d="M90 297H91V298H90V297Z" fill="#FFBE32"/>
<path d="M90 295H91V296H90V295Z" fill="#FFBE32"/>
<path d="M90 296H91V297H90V296Z" fill="#FFD88F"/>
<path d="M91 299H92V302H91V299Z" fill="#E7A922"/>
<path d="M91 296H92V299H91V296Z" fill="#FFBE32"/>
<path d="M91 293H92V296H91V293Z" fill="#FFD88F"/>
<path d="M91 296H92V295H91V296Z" fill="#FFF6E2"/>
<path d="M107 106H108V107H107V106Z" fill="#C38B10"/>
<path d="M107 105H108V106H107V105Z" fill="#E7A922"/>
<path d="M107 104H108V105H107V104Z" fill="#FFBE32"/>
<path d="M107 102H108V103H107V102Z" fill="#FFBE32"/>
<path d="M107 103H108V104H107V103Z" fill="#FFD88F"/>
<path d="M66 106H86V107H66V106Z" fill="#C38B10"/>
<path d="M66 105H86V106H66V105Z" fill="#E7A922"/>
<path d="M66 104H86V105H66V104Z" fill="#FFBE32"/>
<path d="M66 102H86V103H66V102Z" fill="#FFBE32"/>
<path d="M66 103H86V104H66V103Z" fill="#FFD88F"/>
<path d="M67 103.5C67 102.119 68.1193 101 69.5 101H82.5C83.8807 101 85 102.119 85 103.5V103.5C85 104.881 83.8807 106 82.5 106H69.5C68.1193 106 67 104.881 67 103.5V103.5Z" fill="#FFE6C2"/>
<path d="M71 235H73V236H71V235Z" fill="#FFBE32"/>
<path fill-rule="evenodd" clip-rule="evenodd" d="M116.5 81C117.328 81 118 81.6716 118 82.5V365.5C118 366.328 117.328 367 116.5 367C115.672 367 115 366.328 115 365.5V82.5C115 81.6716 115.672 81 116.5 81Z" fill="#FFBE32"/>
<path d="M81 106L81 238.5C81 239.881 79.8807 241 78.5 241L-nan -nanL-nan -nanL78.5 241C77.1193 241 76 239.881 76 238.5L76 106L81 106Z" fill="#FFBE32"/>
<path d="M81 106L81 219.5C81 220.328 80.3284 221 79.5 221L-nan -nanL-nan -nanL79.5 221C78.6716 221 78 220.328 78 219.5L78 106L81 106Z" fill="#FBCB65"/>
<path d="M21 76L21 185L17 185L17 76L21 76Z" fill="#FFBE32"/>
<path d="M21 76L21 185L17 185L17 76L21 76Z" fill="#FFBE32"/>
<path d="M21 243L21 336C21 337.105 20.1046 338 19 338V338C17.8954 338 17 337.105 17 336L17 243L21 243Z" fill="#FFBE32"/>
<path d="M95.9999 158L96 334.25C96 335.493 94.9926 336.5 93.75 336.5V336.5C92.5074 336.5 91.5 335.493 91.5 334.25L91.4999 158L95.9999 158Z" fill="#FFBE32"/>
<path d="M101.5 297L101.5 325L96.5003 325L96.5001 297L101.5 297Z" fill="#FFBE32"/>
<path d="M15.9998 297L16 325L11.0002 325L11 297L15.9998 297Z" fill="#FFBE32"/>
<path d="M98.5 294.5C98.5 293.672 99.1715 293 100 293V293C100.828 293 101.5 293.672 101.5 294.5V317C101.5 317.828 100.828 318.5 100 318.5V318.5C99.1716 318.5 98.5 317.829 98.5 317V294.5Z" fill="#FFD88F"/>
<path d="M11 294.5C11 293.672 11.6715 293 12.5 293V293C13.3284 293 14 293.672 14 294.5V317C14 317.828 13.3285 318.5 12.5 318.5V318.5C11.6716 318.5 11 317.829 11 317V294.5Z" fill="#FFD88F"/>
<path fill-rule="evenodd" clip-rule="evenodd" d="M17 56.2507C17 29.0869 39.0972 7.10695 66.2606 7.25144C93.2205 7.39484 115 29.2905 115 56.2507V65.0001C115 66.1047 114.105 67.0001 113 67.0001C111.895 67.0001 111 66.1047 111 65.0001V56.2507C111 31.4914 90.9984 11.3831 66.2394 11.2514C41.2934 11.1187 21 31.3044 21 56.2507V65.0001C21 66.1047 20.1046 67.0001 19 67.0001C17.8954 67.0001 17 66.1047 17 65.0001V56.2507Z" fill="#E7A922"/>
<path fill-rule="evenodd" clip-rule="evenodd" d="M37.5 156.5C37.5 140.484 50.4837 127.5 66.5 127.5C82.5163 127.5 95.5 140.484 95.5 156.5V158.875C95.5 159.98 94.6046 160.875 93.5 160.875C92.3954 160.875 91.5 159.98 91.5 158.875V156.5C91.5 142.693 80.3071 131.5 66.5 131.5C52.6929 131.5 41.5 142.693 41.5 156.5C41.5 157.605 40.6046 158.5 39.5 158.5C38.3954 158.5 37.5 157.605 37.5 156.5Z" fill="#E7A922"/>
<path fill-rule="evenodd" clip-rule="evenodd" d="M99.5 323.25C100.605 323.25 101.5 324.145 101.5 325.25V326.75C101.5 351.741 81.2409 372 56.25 372C31.2591 372 11 351.741 11 326.75V325.75C11 324.645 11.8954 323.75 13 323.75C14.1046 323.75 15 324.645 15 325.75V326.75C15 349.532 33.4683 368 56.25 368C79.0317 368 97.5 349.532 97.5 326.75V325.25C97.5 324.145 98.3954 323.25 99.5 323.25Z" fill="#E7A922"/>
<path fill-rule="evenodd" clip-rule="evenodd" d="M93 324C93.8284 324 94.5 324.672 94.5 325.5V327.5C94.5 348.625 77.3749 365.75 56.25 365.75C35.1251 365.75 18 348.625 18 327.5V326C18 325.172 18.6716 324.5 19.5 324.5C20.3284 324.5 21 325.172 21 326V327.5C21 346.968 36.782 362.75 56.25 362.75C75.718 362.75 91.5 346.968 91.5 327.5V325.5C91.5 324.672 92.1716 324 93 324Z" fill="#FFD88F"/>
<path fill-rule="evenodd" clip-rule="evenodd" d="M93.053 329.003C93.3276 329.032 93.5264 329.278 93.4971 329.553L93.3505 330.928C91.1858 351.222 73.1022 366 52.7839 364.08C36.3526 362.528 22.8991 350.353 19.718 334.159L19.5093 333.096C19.4561 332.825 19.6326 332.563 19.9036 332.509C20.1746 332.456 20.4374 332.633 20.4906 332.904L20.6992 333.966C23.795 349.726 36.8875 361.574 52.878 363.085C72.6511 364.953 90.2496 350.571 92.3561 330.822L92.5028 329.447C92.5321 329.172 92.7784 328.974 93.053 329.003Z" fill="#FFF6E2"/>
<path d="M95.4994 158L95.5 320C95.5 321.105 94.6046 322 93.5 322L-nan -nanL-nan -nanL93.5 322C92.3954 322 91.5 321.105 91.5 320L91.4994 158L95.4994 158Z" fill="#FBCB65"/>
<path d="M41.5 156L41.5 234.5L37.5 234.5L37.5 156L41.5 156Z" fill="#FBCB65"/>
<path d="M20.9994 58.0005L21 320.003C21 321.107 20.1047 322.002 19.0003 322.002L-nan -nanL-nan -nanL19.0003 322.002C17.8959 322.002 17.0006 321.107 17.0006 320.003L17 58.0005L20.9994 58.0005Z" fill="#FBCB65"/>
<path d="M31 239H41V240H31V239Z" fill="#C38B10"/>
<path d="M31.5 225H41.5V226H31.5V225Z" fill="#C38B10"/>
<path d="M31.5 211H41.5V212H31.5V211Z" fill="#C38B10"/>
<path fill-rule="evenodd" clip-rule="evenodd" d="M121 82H111V117.625V313C111 340.614 88.6142 363 61 363V365H111V367H121V365H173V362.961C172.337 362.987 171.67 363 171 363C143.386 363 121 340.614 121 313V224.5V117.625V82Z" fill="#FFBE32"/>
<path fill-rule="evenodd" clip-rule="evenodd" d="M119.5 80C120.328 80 121 80.6716 121 81.5V321C121 321.828 120.328 322.5 119.5 322.5C118.672 322.5 118 321.828 118 321V81.5C118 80.6716 118.672 80 119.5 80Z" fill="#FFD88F"/>
<path d="M114.999 58L115 320.002C115 321.107 114.105 322.002 113 322.002L-nan -nanL-nan -nanL113 322.002C111.896 322.002 111.001 321.107 111.001 320.002L111 58L114.999 58Z" fill="#FBCB65"/>
<path fill-rule="evenodd" clip-rule="evenodd" d="M118 313V339.5C118 353.583 129.417 365 143.5 365H173V362.961C172.337 362.987 171.67 363 171 363C143.386 363 121 340.614 121 313H118Z" fill="#FFD88F"/>
<path fill-rule="evenodd" clip-rule="evenodd" d="M115 313V337.5C115 351.583 103.583 363 89.5 363H61C88.6142 363 111 340.614 111 313H115Z" fill="#FBCB65"/>
<path fill-rule="evenodd" clip-rule="evenodd" d="M119.5 90.5C119.776 90.5 120 90.7239 120 91V316C120 316.276 119.776 316.5 119.5 316.5C119.224 316.5 119 316.276 119 316V91C119 90.7239 119.224 90.5 119.5 90.5Z" fill="#FFF6E2"/>
<path d="M59 366.5C59 365.672 59.6716 365 60.5 365H74.5C75.3284 365 76 365.672 76 366.5V366.5C76 367.328 75.3284 368 74.5 368H60.5C59.6716 368 59 367.328 59 366.5V366.5Z" fill="#C38B10"/>
<path d="M59 365C59 363.895 59.8954 363 61 363H174C175.105 363 176 363.895 176 365V365C176 366.105 175.105 367 174 367H61C59.8954 367 59 366.105 59 365V365Z" fill="#FFBE32"/>
<path d="M62 364C62 363.448 62.4477 363 63 363H173C173.552 363 174 363.448 174 364V364C174 364.552 173.552 365 173 365H63C62.4477 365 62 364.552 62 364V364Z" fill="#FFD88F"/>
<path d="M68 363.5C68 363.224 68.2239 363 68.5 363H171.5C171.776 363 172 363.224 172 363.5V363.5C172 363.776 171.776 364 171.5 364H68.5C68.2239 364 68 363.776 68 363.5V363.5Z" fill="#FFF6E2"/>
<path d="M74 239H77V240H74V239Z" fill="#C38B10"/>
<path d="M74 225H77V226H74V225Z" fill="#C38B10"/>
<path d="M74 211H77V212H74V211Z" fill="#C38B10"/>
<path fill-rule="evenodd" clip-rule="evenodd" d="M81 106V246C81 259.807 69.8071 271 56 271C42.1929 271 31 259.807 31 246V238H41V246C41 254.284 47.7157 261 56 261C64.2843 261 71 254.284 71 246V106H81Z" fill="#FFD88F"/>
<path d="M64 86H87V96C87 98.7614 84.7614 101 82 101H69C66.2386 101 64 98.7614 64 96V86Z" fill="#FFE6C2"/>
<path d="M65 86H86V96C86 98.7614 83.7614 101 81 101H70C67.2386 101 65 98.7614 65 96V86Z" fill="#FFCE8A"/>
<path d="M60 82.5C60 80.567 61.567 79 63.5 79H87.5C89.433 79 91 80.567 91 82.5V82.5C91 84.433 89.433 86 87.5 86H63.5C61.567 86 60 84.433 60 82.5V82.5Z" fill="#FFE6C2"/>
<path d="M61 84C61 82.8954 61.8954 82 63 82H88C89.1046 82 90 82.8954 90 84V84C90 85.1046 89.1046 86 88 86H63C61.8954 86 61 85.1046 61 84V84Z" fill="#FFCE8A"/>
<path d="M63 85C63 84.4477 63.4477 84 64 84H88C88.5523 84 89 84.4477 89 85V85C89 85.5523 88.5523 86 88 86H64C63.4477 86 63 85.5523 63 85V85Z" fill="#F2B764"/>
<path d="M63 85C63 84.4477 63.4477 84 64 84H88C88.5523 84 89 84.4477 89 85V85C89 85.5523 88.5523 86 88 86H64C63.4477 86 63 85.5523 63 85V85Z" fill="#F2B764"/>
<path d="M67 103.5C67 102.119 68.1193 101 69.5 101H82.5C83.8807 101 85 102.119 85 103.5V103.5C85 104.881 83.8807 106 82.5 106H69.5C68.1193 106 67 104.881 67 103.5V103.5Z" fill="#FFCE8A"/>
<path d="M70 105C70 104.448 70.4477 104 71 104H81C81.5523 104 82 104.448 82 105V105C82 105.552 81.5523 106 81 106H71C70.4477 106 70 105.552 70 105V105Z" fill="#F2B764"/>
<path d="M70 105C70 104.448 70.4477 104 71 104H81C81.5523 104 82 104.448 82 105V105C82 105.552 81.5523 106 81 106H71C70.4477 106 70 105.552 70 105V105Z" fill="#F2B764"/>
<path d="M69 102C69 101.448 69.4477 101 70 101H82C82.5523 101 83 101.448 83 102V102C83 102.552 82.5523 103 82 103H70C69.4477 103 69 102.552 69 102V102Z" fill="#FFE6C2"/>
<path d="M70 101.5C70 101.224 70.2239 101 70.5 101H81.5C81.7761 101 82 101.224 82 101.5V101.5C82 101.776 81.7761 102 81.5 102H70.5C70.2239 102 70 101.776 70 101.5V101.5Z" fill="#FFF6E2"/>
<path d="M64 80.5C64 79.6716 64.6716 79 65.5 79H86.5C87.3284 79 88 79.6716 88 80.5V80.5C88 81.3284 87.3284 82 86.5 82H65.5C64.6716 82 64 81.3284 64 80.5V80.5Z" fill="#FFF6E2"/>
<path fill-rule="evenodd" clip-rule="evenodd" d="M76 106V246C76 257.046 67.0457 266 56 266C44.9543 266 36 257.046 36 246V238H39V246C39 255.389 46.6112 263 56 263C65.3888 263 73 255.389 73 246V106H76Z" fill="#FFBE32"/>
<path fill-rule="evenodd" clip-rule="evenodd" d="M72 106C72.2761 106 72.5 106.224 72.5 106.5V172C72.5 172.276 72.2761 172.5 72 172.5C71.7239 172.5 71.5 172.276 71.5 172V106.5C71.5 106.224 71.7239 106 72 106ZM40 237.5C40.2761 237.5 40.5 237.724 40.5 238V246C40.5 254.56 47.4396 261.5 56 261.5C64.5604 261.5 71.5 254.56 71.5 246V238C71.5 237.724 71.7239 237.5 72 237.5C72.2761 237.5 72.5 237.724 72.5 238V246C72.5 255.113 65.1127 262.5 56 262.5C46.8873 262.5 39.5 255.113 39.5 246V238C39.5 237.724 39.7239 237.5 40 237.5Z" fill="#FFF6E2"/>
<path fill-rule="evenodd" clip-rule="evenodd" d="M33.5 235.5C34.8807 235.5 36 236.619 36 238V246C36 257.046 44.9543 266 56 266C67.0457 266 76 257.046 76 246V238C76 236.619 77.1193 235.5 78.5 235.5C79.8807 235.5 81 236.619 81 238V246C81 259.807 69.8071 271 56 271C42.1929 271 31 259.807 31 246V238C31 236.619 32.1193 235.5 33.5 235.5Z" fill="#E7A922"/>
<path d="M31 239H41V240H31V239Z" fill="#C38B10"/>
<path d="M31 236H41V239H31V236Z" fill="#E7A922"/>
<path d="M21 142H22V145H21V142Z" fill="#E7A922"/>
<path d="M21 139H22V142H21V139Z" fill="#FFBE32"/>
<path d="M21 136H22V139H21V136Z" fill="#FFD88F"/>
<path d="M21 139H22V138H21V139Z" fill="#FFF6E2"/>
<path d="M22.3098 138H69V143H22.3098V138Z" fill="#FFD88F"/>
<path d="M22.3098 142H69V143H22.3098V142Z" fill="#E7A922"/>
<path d="M22.3098 141H69V142H22.3098V141Z" fill="#FFBE32"/>
<path d="M22.3098 139H69V140H22.3098V139Z" fill="#FFF6E2"/>
<path d="M22 142H23V143H22V142Z" fill="#C38B10"/>
<path d="M22 141H23V142H22V141Z" fill="#E7A922"/>
<path d="M22 140H23V141H22V140Z" fill="#FFBE32"/>
<path d="M22 138H23V139H22V138Z" fill="#FFBE32"/>
<path d="M22 139H23V140H22V139Z" fill="#FFD88F"/>
<path d="M69 142H70V143H69V142Z" fill="#C38B10"/>
<path d="M69 141H70V142H69V141Z" fill="#E7A922"/>
<path d="M69 140H70V141H69V140Z" fill="#FFBE32"/>
<path d="M69 138H70V139H69V138Z" fill="#FFBE32"/>
<path d="M69 139H70V140H69V139Z" fill="#FFD88F"/>
<path d="M70 142H71V145H70V142Z" fill="#E7A922"/>
<path d="M70 139H71V142H70V139Z" fill="#FFBE32"/>
<path d="M70 136H71V139H70V136Z" fill="#FFD88F"/>
<path d="M70 139H71V138H70V139Z" fill="#FFF6E2"/>
<path d="M65 210L65 212L61 212L61 210L65 210Z" fill="#C38B10"/>
<path d="M65 216L65 214L61 214L61 216L65 216Z" fill="#E7A922"/>
<path d="M64 212L64 213L62 213L62 212L64 212Z" fill="#C38B10"/>
<path d="M64 214L64 213L62 213L62 214L64 214Z" fill="#E7A922"/>
<path d="M10 210L10 212L6 212L6 210L10 210Z" fill="#C38B10"/>
<path d="M10 216L10 214L6 214L6 216L10 216Z" fill="#E7A922"/>
<path d="M9 212L9 213L7 213L7 212L9 212Z" fill="#C38B10"/>
<path d="M9 214L9 213L7 213L7 214L9 214Z" fill="#E7A922"/>
<path d="M10 216L10 214L6 214L6 216L10 216Z" fill="#E7A922"/>
<path d="M65 224L65 226L61 226L61 224L65 224Z" fill="#C38B10"/>
<path d="M65 230L65 228L61 228L61 230L65 230Z" fill="#E7A922"/>
<path d="M64 226L64 227L62 227L62 226L64 226Z" fill="#C38B10"/>
<path d="M64 228L64 227L62 227L62 228L64 228Z" fill="#E7A922"/>
<path d="M10 224L10 226L6 226L6 224L10 224Z" fill="#C38B10"/>
<path d="M10 230L10 228L6 228L6 230L10 230Z" fill="#E7A922"/>
<path d="M9 226L9 227L7 227L7 226L9 226Z" fill="#C38B10"/>
<path d="M9 228L9 227L7 227L7 228L9 228Z" fill="#E7A922"/>
<path d="M3 201H68V211H3V201Z" fill="#FFD88F"/>
<path d="M3 207H68V211H3V207Z" fill="#E7A922"/>
<path d="M3 205H68V207H3V205Z" fill="#FFBE32"/>
<path d="M4 202H68V204H4V202Z" fill="#FFF6E2"/>
<path d="M1 200H4V212H1V200Z" fill="#FFD88F"/>
<path d="M1 208H4V212H1V208Z" fill="#C48B10"/>
<path d="M1 206H4V208H1V206Z" fill="#FFBE32"/>
<path d="M1 203C1 202.448 1.44772 202 2 202H3C3.55228 202 4 202.448 4 203V204C4 204.552 3.55228 205 3 205H2C1.44772 205 1 204.552 1 204V203Z" fill="#FFF6E2"/>
<path d="M68 200H71V212H68V200Z" fill="#FFD88F"/>
<path d="M68 208H71V212H68V208Z" fill="#C48B10"/>
<path d="M68 206H71V208H68V206Z" fill="#FFBE32"/>
<path d="M68 203C68 202.448 68.4477 202 69 202H70C70.5523 202 71 202.448 71 203V204C71 204.552 70.5523 205 70 205H69C68.4477 205 68 204.552 68 204V203Z" fill="#FFF6E2"/>
<path d="M74 201H77V211H74V201Z" fill="#FFD88F"/>
<path d="M74 208H77V211H74V208Z" fill="#C48B10"/>
<path d="M74 206H77V208H74V206Z" fill="#FFBE32"/>
<path d="M74 204C74 203.448 74.4477 203 75 203H76C76.5523 203 77 203.448 77 204V204C77 204.552 76.5523 205 76 205H75C74.4477 205 74 204.552 74 204V204Z" fill="#FFF6E2"/>
<path d="M71 205H74V207H71V205Z" fill="#E7A922"/>
<path d="M71 206H74V207H71V206Z" fill="#C38B10"/>
<path d="M4 207H5V211H4V207Z" fill="#C38B10"/>
<path d="M4 205H5V207H4V205Z" fill="#E7A922"/>
<path d="M4 204H5V205H4V204Z" fill="#FFBE32"/>
<path d="M4 201H5V202H4V201Z" fill="#FFBE32"/>
<path d="M4 202H5V204H4V202Z" fill="#FFD88F"/>
<path d="M30 207H31V211H30V207Z" fill="#C38B10"/>
<path d="M30 205H31V207H30V205Z" fill="#E7A922"/>
<path d="M30 204H31V205H30V204Z" fill="#FFBE32"/>
<path d="M30 201H31V202H30V201Z" fill="#FFBE32"/>
<path d="M30 202H31V204H30V202Z" fill="#FFD88F"/>
<path d="M41 207H42V211H41V207Z" fill="#C38B10"/>
<path d="M41 205H42V207H41V205Z" fill="#E7A922"/>
<path d="M41 204H42V205H41V204Z" fill="#FFBE32"/>
<path d="M41 201H42V202H41V201Z" fill="#FFBE32"/>
<path d="M41 202H42V204H41V202Z" fill="#FFD88F"/>
<path d="M21 207H22V211H21V207Z" fill="#C38B10"/>
<path d="M21 205H22V207H21V205Z" fill="#E7A922"/>
<path d="M21 204H22V205H21V204Z" fill="#FFBE32"/>
<path d="M21 201H22V202H21V201Z" fill="#FFBE32"/>
<path d="M21 202H22V204H21V202Z" fill="#FFD88F"/>
<path d="M10 207H11V211H10V207Z" fill="#C38B10"/>
<path d="M10 205H11V207H10V205Z" fill="#E7A922"/>
<path d="M10 204H11V205H10V204Z" fill="#FFBE32"/>
<path d="M10 201H11V202H10V201Z" fill="#FFBE32"/>
<path d="M10 202H11V204H10V202Z" fill="#FFD88F"/>
<path d="M67 207H68V211H67V207Z" fill="#C38B10"/>
<path d="M67 205H68V207H67V205Z" fill="#E7A922"/>
<path d="M67 204H68V205H67V204Z" fill="#FFBE32"/>
<path d="M67 201H68V202H67V201Z" fill="#FFBE32"/>
<path d="M67 202H68V204H67V202Z" fill="#FFD88F"/>
<path d="M70 208H71V212H70V208Z" fill="#C38B10"/>
<path d="M70 210H71V212H70V210Z" fill="#C38B10"/>
<path d="M70 206H71V208H70V206Z" fill="#E7A922"/>
<path d="M70 205H71V206H70V205Z" fill="#FFBE32"/>
<path d="M70 200H71V202H70V200Z" fill="#FFBE32"/>
<path d="M70 202H71V205H70V202Z" fill="#FFD88F"/>
<path d="M76 208H77V211H76V208Z" fill="#C38B10"/>
<path d="M76 206H77V208H76V206Z" fill="#E7A922"/>
<path d="M76 205H77V206H76V205Z" fill="#FFBE32"/>
<path d="M76 201H77V203H76V201Z" fill="#FFBE32"/>
<path d="M76 203H77V205H76V203Z" fill="#FFD88F"/>
<path d="M3 215H68V225H3V215Z" fill="#FFD88F"/>
<path d="M3 221H68V225H3V221Z" fill="#E7A922"/>
<path d="M3 219H68V221H3V219Z" fill="#FFBE32"/>
<path d="M4 216H68V218H4V216Z" fill="#FFF6E2"/>
<path d="M1 214H4V226H1V214Z" fill="#FFD88F"/>
<path d="M1 222H4V226H1V222Z" fill="#C48B10"/>
<path d="M1 220H4V222H1V220Z" fill="#FFBE32"/>
<path d="M1 217C1 216.448 1.44772 216 2 216H3C3.55228 216 4 216.448 4 217V218C4 218.552 3.55228 219 3 219H2C1.44772 219 1 218.552 1 218V217Z" fill="#FFF6E2"/>
<path d="M68 214H71V226H68V214Z" fill="#FFD88F"/>
<path d="M68 222H71V226H68V222Z" fill="#C48B10"/>
<path d="M68 220H71V222H68V220Z" fill="#FFBE32"/>
<path d="M68 217C68 216.448 68.4477 216 69 216H70C70.5523 216 71 216.448 71 217V218C71 218.552 70.5523 219 70 219H69C68.4477 219 68 218.552 68 218V217Z" fill="#FFF6E2"/>
<path d="M74 215H77V225H74V215Z" fill="#FFD88F"/>
<path d="M74 222H77V225H74V222Z" fill="#C48B10"/>
<path d="M74 220H77V222H74V220Z" fill="#FFBE32"/>
<path d="M74 218C74 217.448 74.4477 217 75 217H76C76.5523 217 77 217.448 77 218V218C77 218.552 76.5523 219 76 219H75C74.4477 219 74 218.552 74 218V218Z" fill="#FFF6E2"/>
<path d="M71 219H74V221H71V219Z" fill="#E7A922"/>
<path d="M71 220H74V221H71V220Z" fill="#C38B10"/>
<path d="M4 221H5V225H4V221Z" fill="#C38B10"/>
<path d="M4 219H5V221H4V219Z" fill="#E7A922"/>
<path d="M4 218H5V219H4V218Z" fill="#FFBE32"/>
<path d="M4 215H5V216H4V215Z" fill="#FFBE32"/>
<path d="M4 216H5V218H4V216Z" fill="#FFD88F"/>
<path d="M30 221H31V225H30V221Z" fill="#C38B10"/>
<path d="M30 219H31V221H30V219Z" fill="#E7A922"/>
<path d="M30 218H31V219H30V218Z" fill="#FFBE32"/>
<path d="M30 215H31V216H30V215Z" fill="#FFBE32"/>
<path d="M30 216H31V218H30V216Z" fill="#FFD88F"/>
<path d="M41 221H42V225H41V221Z" fill="#C38B10"/>
<path d="M41 219H42V221H41V219Z" fill="#E7A922"/>
<path d="M41 218H42V219H41V218Z" fill="#FFBE32"/>
<path d="M41 215H42V216H41V215Z" fill="#FFBE32"/>
<path d="M41 216H42V218H41V216Z" fill="#FFD88F"/>
<path d="M21 221H22V225H21V221Z" fill="#C38B10"/>
<path d="M21 219H22V221H21V219Z" fill="#E7A922"/>
<path d="M21 218H22V219H21V218Z" fill="#FFBE32"/>
<path d="M21 215H22V216H21V215Z" fill="#FFBE32"/>
<path d="M21 216H22V218H21V216Z" fill="#FFD88F"/>
<path d="M10 221H11V225H10V221Z" fill="#C38B10"/>
<path d="M10 219H11V221H10V219Z" fill="#E7A922"/>
<path d="M10 218H11V219H10V218Z" fill="#FFBE32"/>
<path d="M10 215H11V216H10V215Z" fill="#FFBE32"/>
<path d="M10 216H11V218H10V216Z" fill="#FFD88F"/>
<path d="M67 221H68V225H67V221Z" fill="#C38B10"/>
<path d="M67 219H68V221H67V219Z" fill="#E7A922"/>
<path d="M67 218H68V219H67V218Z" fill="#FFBE32"/>
<path d="M67 215H68V216H67V215Z" fill="#FFBE32"/>
<path d="M67 216H68V218H67V216Z" fill="#FFD88F"/>
<path d="M70 222H71V226H70V222Z" fill="#C38B10"/>
<path d="M70 224H71V226H70V224Z" fill="#C38B10"/>
<path d="M70 220H71V222H70V220Z" fill="#E7A922"/>
<path d="M70 219H71V220H70V219Z" fill="#FFBE32"/>
<path d="M70 214H71V216H70V214Z" fill="#FFBE32"/>
<path d="M70 216H71V219H70V216Z" fill="#FFD88F"/>
<path d="M76 222H77V225H76V222Z" fill="#C38B10"/>
<path d="M76 220H77V222H76V220Z" fill="#E7A922"/>
<path d="M76 219H77V220H76V219Z" fill="#FFBE32"/>
<path d="M76 215H77V217H76V215Z" fill="#FFBE32"/>
<path d="M76 217H77V219H76V217Z" fill="#FFD88F"/>
<path d="M3 229H68V239H3V229Z" fill="#FFD88F"/>
<path d="M3 235H68V239H3V235Z" fill="#E7A922"/>
<path d="M3 233H68V235H3V233Z" fill="#FFBE32"/>
<path d="M4 230H68V232H4V230Z" fill="#FFF6E2"/>
<path d="M1 228H4V240H1V228Z" fill="#FFD88F"/>
<path d="M1 236H4V240H1V236Z" fill="#C48B10"/>
<path d="M1 234H4V236H1V234Z" fill="#FFBE32"/>
<path d="M1 231C1 230.448 1.44772 230 2 230H3C3.55228 230 4 230.448 4 231V232C4 232.552 3.55228 233 3 233H2C1.44772 233 1 232.552 1 232V231Z" fill="#FFF6E2"/>
<path d="M68 228H71V240H68V228Z" fill="#FFD88F"/>
<path d="M68 236H71V240H68V236Z" fill="#C48B10"/>
<path d="M68 234H71V236H68V234Z" fill="#FFBE32"/>
<path d="M68 231C68 230.448 68.4477 230 69 230H70C70.5523 230 71 230.448 71 231V232C71 232.552 70.5523 233 70 233H69C68.4477 233 68 232.552 68 232V231Z" fill="#FFF6E2"/>
<path d="M74 229H77V239H74V229Z" fill="#FFD88F"/>
<path d="M74 236H77V239H74V236Z" fill="#C48B10"/>
<path d="M74 234H77V236H74V234Z" fill="#FFBE32"/>
<path d="M74 232C74 231.448 74.4477 231 75 231H76C76.5523 231 77 231.448 77 232V232C77 232.552 76.5523 233 76 233H75C74.4477 233 74 232.552 74 232V232Z" fill="#FFF6E2"/>
<path d="M71 233H74V235H71V233Z" fill="#E7A922"/>
<path d="M71 234H74V235H71V234Z" fill="#C38B10"/>
<path d="M4 235H5V239H4V235Z" fill="#C38B10"/>
<path d="M4 233H5V235H4V233Z" fill="#E7A922"/>
<path d="M4 232H5V233H4V232Z" fill="#FFBE32"/>
<path d="M4 229H5V230H4V229Z" fill="#FFBE32"/>
<path d="M4 230H5V232H4V230Z" fill="#FFD88F"/>
<path d="M30 235H31V239H30V235Z" fill="#C38B10"/>
<path d="M30 233H31V235H30V233Z" fill="#E7A922"/>
<path d="M30 232H31V233H30V232Z" fill="#FFBE32"/>
<path d="M30 229H31V230H30V229Z" fill="#FFBE32"/>
<path d="M30 230H31V232H30V230Z" fill="#FFD88F"/>
<path d="M41 235H42V239H41V235Z" fill="#C38B10"/>
<path d="M41 233H42V235H41V233Z" fill="#E7A922"/>
<path d="M41 232H42V233H41V232Z" fill="#FFBE32"/>
<path d="M41 229H42V230H41V229Z" fill="#FFBE32"/>
<path d="M41 230H42V232H41V230Z" fill="#FFD88F"/>
<path d="M21 235H22V239H21V235Z" fill="#C38B10"/>
<path d="M21 233H22V235H21V233Z" fill="#E7A922"/>
<path d="M21 232H22V233H21V232Z" fill="#FFBE32"/>
<path d="M21 229H22V230H21V229Z" fill="#FFBE32"/>
<path d="M21 230H22V232H21V230Z" fill="#FFD88F"/>
<path d="M10 235H11V239H10V235Z" fill="#C38B10"/>
<path d="M10 233H11V235H10V233Z" fill="#E7A922"/>
<path d="M10 232H11V233H10V232Z" fill="#FFBE32"/>
<path d="M10 229H11V230H10V229Z" fill="#FFBE32"/>
<path d="M10 230H11V232H10V230Z" fill="#FFD88F"/>
<path d="M67 235H68V239H67V235Z" fill="#C38B10"/>
<path d="M67 233H68V235H67V233Z" fill="#E7A922"/>
<path d="M67 232H68V233H67V232Z" fill="#FFBE32"/>
<path d="M67 229H68V230H67V229Z" fill="#FFBE32"/>
<path d="M67 230H68V232H67V230Z" fill="#FFD88F"/>
<path d="M70 236H71V240H70V236Z" fill="#C38B10"/>
<path d="M70 238H71V240H70V238Z" fill="#C38B10"/>
<path d="M70 234H71V236H70V234Z" fill="#E7A922"/>
<path d="M70 233H71V234H70V233Z" fill="#FFBE32"/>
<path d="M70 228H71V230H70V228Z" fill="#FFBE32"/>
<path d="M70 230H71V233H70V230Z" fill="#FFD88F"/>
<path d="M76 236H77V239H76V236Z" fill="#C38B10"/>
<path d="M76 234H77V236H76V234Z" fill="#E7A922"/>
<path d="M76 233H77V234H76V233Z" fill="#FFBE32"/>
<path d="M76 229H77V231H76V229Z" fill="#FFBE32"/>
<path d="M76 231H77V233H76V231Z" fill="#FFD88F"/>
<path d="M10 216L10 215L6 215L6 216L10 216Z" fill="#FFBE32"/>
<path d="M65 216L65 215L61 215L61 216L65 216Z" fill="#FFBE32"/>
<path d="M10 230L10 229L6 229L6 230L10 230Z" fill="#FFBE32"/>
<path d="M65 230L65 229L61 229L61 230L65 230Z" fill="#FFBE32"/>
<path d="M11 219C11 216.239 13.2386 214 16 214V214C18.7614 214 21 216.239 21 219V221C21 223.761 18.7614 226 16 226V226C13.2386 226 11 223.761 11 221V219Z" fill="#C38B10"/>
<path d="M31 219C31 216.239 33.2386 214 36 214V214C38.7614 214 41 216.239 41 219V221C41 223.761 38.7614 226 36 226V226C33.2386 226 31 223.761 31 221V219Z" fill="#C38B10"/>
<path d="M11 212C11 209.239 13.2386 207 16 207V207C18.7614 207 21 209.239 21 212V220C21 222.761 18.7614 225 16 225V225C13.2386 225 11 222.761 11 220L11 212Z" fill="#E7A922"/>
<path d="M31 212C31 209.239 33.2386 207 36 207V207C38.7614 207 41 209.239 41 212V220C41 222.761 38.7614 225 36 225V225C33.2386 225 31 222.761 31 220L31 212Z" fill="#E7A922"/>
<path fill-rule="evenodd" clip-rule="evenodd" d="M36 224C33.2386 224 31 221.761 31 219L31 201C31 198.239 28.7614 196 26 196C23.2386 196 21 198.239 21 201L21 219C21 221.761 18.7614 224 16 224C13.2386 224 11 221.761 11 219L11 201C11 192.716 17.7157 186 26 186C34.2843 186 41 192.716 41 201L41 219C41 221.761 38.7614 224 36 224Z" fill="#FFBE32"/>
<path fill-rule="evenodd" clip-rule="evenodd" d="M12.5 220C11.6716 220 11 219.328 11 218.5L11 201C11 192.716 17.7157 186 26 186C34.2843 186 41 192.716 41 201L41.0001 209.5C41.0001 210.328 40.3285 211 39.5001 211C38.6716 211 38.0001 210.328 38.0001 209.5L38 201C38 194.373 32.6274 189 26 189C19.3726 189 14 194.373 14 201L14 218.5C14 219.328 13.3284 220 12.5 220Z" fill="#FFD88F"/>
<path fill-rule="evenodd" clip-rule="evenodd" d="M33.5 204.5C32.1193 204.5 31 203.381 31 202L31 201.254C31 198.558 28.8616 196.347 26.1665 196.257C23.3414 196.163 20.9999 198.428 21 201.254L21 201.5C21 202.881 19.8807 204 18.5 204C17.1193 204 16 202.881 16 201.5L16 201.254C15.9999 195.601 20.6828 191.071 26.3331 191.26C31.7232 191.439 35.9999 195.861 36 201.254L36 202C36 203.381 34.8807 204.5 33.5 204.5Z" fill="#E7A922"/>
<path d="M31 202L36 202V217.5C36 218.881 34.8807 220 33.5 220V220C32.1193 220 31 218.881 31 217.5L31 202Z" fill="#FBCB65"/>
<path d="M16 202L21 202V216.5C21 217.881 19.8807 219 18.5 219V219C17.1193 219 16 217.881 16 216.5L16 202Z" fill="#FBCB65"/>
<path fill-rule="evenodd" clip-rule="evenodd" d="M11.9999 218.5C11.7238 218.5 11.4999 218.276 11.4999 218L11.4999 203.5C11.4999 203.224 11.7238 203 11.9999 203C12.2761 203 12.4999 203.224 12.4999 203.5L12.4999 218C12.4999 218.276 12.2761 218.5 11.9999 218.5ZM39.9999 210C39.7238 210 39.4999 209.776 39.4999 209.5L39.4999 201C39.4999 193.544 33.4558 187.5 25.9999 187.5C18.5441 187.5 12.4999 193.544 12.4999 201L12.4999 201.5C12.4999 201.776 12.2761 202 11.9999 202C11.7238 202 11.4999 201.776 11.4999 201.5L11.4999 201C11.4999 192.992 17.9918 186.5 25.9999 186.5C34.008 186.5 40.4999 192.992 40.4999 201L40.4999 209.5C40.4999 209.776 40.2761 210 39.9999 210Z" fill="#FFF6E2"/>
</svg>
