<svg width="168" height="345" viewBox="0 0 168 345" fill="none" xmlns="http://www.w3.org/2000/svg">
<path fill-rule="evenodd" clip-rule="evenodd" d="M80.5001 1C78.5671 1 77.0001 2.56689 77.0001 4.5C77.0001 6.43311 78.5671 8 80.5001 8H88.002C88.6921 8.51855 89.3477 9.08081 89.9645 9.68237L92.7899 18.3757C94.7518 24.4126 96.1024 30.6267 96.824 36.9243C97.4456 46.7034 98.3776 61.4221 99.4763 78.9504L104.798 168H91.5002V165.25C91.5001 140.259 71.241 120 46.2501 120C21.2592 120 1.00012 140.259 1.00012 165.25V186L1.00018 186.019L1 274L1.00024 274.082V274.971L1.00006 275L1.00024 275.07V289C1.00024 289.691 1.01294 290.378 1.03821 291.063C1.01172 291.213 0.998596 291.368 1.00024 291.525C1.26373 317.347 20.1102 338.708 44.8185 342.863C48.429 343.608 52.1689 344 56.0002 344H67.5002C69.3148 344 71.0998 343.941 72.8542 343.823C103.695 343.739 128.975 319.668 130.884 289.207C131.119 287.826 131.325 286.424 131.5 285C132.566 276.355 133.94 257.166 135.417 232.911C135.454 232.71 135.479 232.504 135.491 232.295L141.46 131.332C143.162 130.978 144.917 130.771 146.711 130.723L149.241 130.655C150.794 132.688 153.244 134 156 134H157C161.695 134 165.5 130.194 165.5 125.5V124.5C165.5 119.806 161.695 116 157 116H156C152.958 116 150.29 117.598 148.788 120H147.5C145.671 120 143.871 120.124 142.108 120.365L146.686 42.9177C147.194 34.3298 148.866 25.8508 151.656 17.7129L154.586 9.16504C154.687 9.07373 154.789 8.9834 154.892 8.89404C155.028 8.77588 155.166 8.65942 155.305 8.54468C155.532 8.35815 155.763 8.17651 155.998 8H163.5C165.433 8 167 6.43311 167 4.5C167 2.56689 165.433 1 163.5 1H80.5001ZM91.5002 173L91.5003 281.305C91.5298 285.836 95.212 289.5 99.7501 289.5C104.306 289.5 108 285.806 108 281.25V221.582L105.097 173H91.5002ZM21.0001 168.254C21.0001 165.558 18.8618 163.347 16.1667 163.257C13.3484 163.163 11.0115 165.417 11.0001 168.233V173.968L11.0002 174L11 196H12.0001V198H20.0001V196H21.0001V205H20.0001V203H12.0001V205H11L11.0002 273.529C11.0157 276.277 13.2484 278.5 16.0001 278.5C18.7484 278.5 20.9787 276.283 21 273.54L21.0001 273.5L21.0002 186.034L21.0001 186V168.254ZM31.0001 168H36.0001V171H35.0001V174.913C36.5776 174.144 38.2521 173.543 40.0001 173.133V171H39.0001V168H44.0001V165H39.0001V162H51.0001V165H46.0001V168H51.0001V171H50.0001V172.921C51.7405 173.251 53.4146 173.77 55.0001 174.454V171H54.0001V168H59.0001V165H54.0001V162H66.0001V165H61.0001V168H66.0001V171H65.0001V182.506C67.5052 185.99 69.0994 190.174 69.4341 194.708C70.8738 194.248 72.408 194 74.0001 194C76.7322 194 79.2939 194.73 81.5002 196.007V165.25C81.5001 145.782 65.7181 130 46.2501 130C30.9832 130 17.983 139.706 13.0833 153.283C14.0268 153.097 15.0021 153 16.0001 153C22.1511 153 27.4373 156.702 29.752 162H36.0001V165H30.7001C30.8969 165.969 31.0001 166.973 31.0001 168ZM31.5003 238V285.5C31.5002 299.307 42.6932 310.5 56.5003 310.5C57.5154 310.5 58.5165 310.439 59.4999 310.322L59.5 281.855C59.1738 280.625 59 279.333 59 278C59 277.902 59.0057 277.805 59.0167 277.71C59.0098 277.563 59.0051 277.415 59.0025 277.267C59.001 277.178 59.0002 277.089 59.0002 277V238H54.0001V235H55.0001V223H53.0001V222H52.0001V223H50.0001V235H51.0001V238H39.0001V235H40.0001V223H38.0001V222H37.0001V223H35.0001V235H36.0001V238H31.5003ZM35.0001 219H37.0001V220H38.0001V219H40.0001V201H38.0001V200H37.0001V201H35.0001V219ZM35.0001 197V187.24C36.3675 185.69 38.0726 184.446 40.0001 183.622V197H38.0001V198H37.0001V197H35.0001ZM52.0001 220V219H50.0001V201H52.0001V200H53.0001V201H55.0001V219H53.0001V220H52.0001ZM50.0001 183.239C51.8773 183.875 53.5757 184.9 55.0001 186.216V197H53.0001V198H52.0001V197H50.0001V183.239ZM69.4999 306.859V292.313C70.9205 292.76 72.4322 293 74.0001 293C76.4508 293 78.7643 292.412 80.8073 291.37C79.2333 297.911 75.0878 303.45 69.4999 306.859ZM69.5 278.682C70.3103 280.35 72.0209 281.5 74.0001 281.5C76.7485 281.5 78.9789 279.283 78.9999 276.539L79.0001 276.5L79.0002 244H78.0001V242H70.0001V244H69.5V278.682ZM79.0002 227.034V235H78.0001V237H70.0001V235H69.5001V206.818C70.3104 205.15 72.0209 204 74.0001 204C76.7615 204 79.0001 206.239 79.0001 209V227L79.0002 227.034ZM11.0005 289.146C11.0163 294.119 11.8387 298.902 13.3438 303.371C19.3442 320.832 35.9114 333.5 55.5645 333.5H67.4894C89.3929 333.5 107.498 317.521 110.926 296.679C107.838 299.074 103.961 300.5 99.7501 300.5C95.9304 300.5 92.3847 299.326 89.454 297.32C84.6061 310.834 71.682 320.5 56.5003 320.5C38.3154 320.5 23.3698 306.632 21.6628 288.894C19.9155 289.607 18.0037 290 16.0001 290C14.2471 290 12.5643 289.699 11.0005 289.146Z" fill="#FFD88F"/>
<path fill-rule="evenodd" clip-rule="evenodd" d="M1.00013 186V165.25C1.00013 140.259 21.2592 120 46.2501 120C71.241 120 91.5001 140.259 91.5002 165.25V168H104.798L99.4763 78.9504C98.3776 61.4221 97.4456 46.7034 96.824 36.9243C96.1024 30.6267 94.7518 24.4126 92.7899 18.3757L89.9645 9.68237C89.3477 9.08081 88.6921 8.51855 88.002 8H80.5001C78.5671 8 77.0001 6.43311 77.0001 4.5C77.0001 2.56689 78.5671 1 80.5001 1H163.5C165.433 1 167 2.56689 167 4.5C167 6.43311 165.433 8 163.5 8H155.998C155.763 8.17651 155.532 8.35815 155.305 8.54468C155.166 8.65942 155.028 8.77588 154.892 8.89404C154.789 8.9834 154.687 9.07373 154.586 9.16504L151.656 17.7129C148.866 25.8508 147.194 34.3298 146.686 42.9177L142.108 120.365C142.443 120.319 142.779 120.278 143.117 120.24C144.556 120.082 146.019 120 147.5 120H148.788C150.29 117.598 152.958 116 156 116H157C161.695 116 165.5 119.806 165.5 124.5V125.5C165.5 130.194 161.695 134 157 134H156C153.244 134 150.794 132.688 149.241 130.655L146.711 130.723C144.917 130.771 143.162 130.978 141.46 131.332L135.491 232.295C135.479 232.504 135.454 232.71 135.417 232.911C133.94 257.166 132.566 276.355 131.5 285C131.325 286.424 131.119 287.826 130.884 289.207C128.975 319.668 103.695 343.739 72.8543 343.823C71.0998 343.941 69.3148 344 67.5002 344H56.0002C52.1689 344 48.429 343.608 44.8185 342.863C20.1102 338.708 1.26374 317.347 1.00025 291.525C0.998601 291.368 1.01172 291.213 1.03821 291.063C1.01294 290.378 1.00025 289.691 1.00025 289V275.07L1.00007 275L1.00025 274.971V274.082L1 274L1.00019 186.019L1.00013 186ZM0.000187635 186.019L0.000121355 186L0.0001266 165.25C0.0001266 139.707 20.7069 119 46.2501 119C71.7933 119 92.5001 139.707 92.5002 165.25V167H103.736L98.4783 79.013L98.4781 79.0101C97.3804 61.4986 96.4491 46.7915 95.8277 37.0131C95.1129 30.7904 93.7775 24.6501 91.8388 18.6848L89.0907 10.2292C88.6357 9.79661 88.1594 9.38625 87.6634 9H80.5001C78.0149 9 76.0001 6.98541 76.0001 4.5C76.0001 2.01459 78.0149 0 80.5001 0H163.5C165.985 0 168 2.01459 168 4.5C168 6.98541 165.985 9 163.5 9H156.337C156.203 9.10383 156.072 9.20943 155.941 9.31676C155.808 9.42605 155.677 9.5369 155.548 9.64932C155.514 9.67836 155.481 9.70752 155.448 9.73679L152.602 18.0372C149.841 26.0895 148.187 34.4792 147.684 42.9767L143.177 119.228C144.598 119.077 146.04 119 147.5 119H148.253C149.974 116.581 152.802 115 156 115H157C162.247 115 166.5 119.253 166.5 124.5V125.5C166.5 130.747 162.247 135 157 135H156C153.107 135 150.515 133.706 148.774 131.668L146.737 131.722C145.265 131.762 143.821 131.912 142.412 132.166L136.49 232.354C136.476 232.583 136.45 232.808 136.412 233.029C134.937 257.247 133.562 276.448 132.493 285.122C132.317 286.543 132.113 287.943 131.879 289.322C129.911 320.271 104.227 344.721 72.8891 344.823C71.1222 344.941 69.3256 345 67.5002 345H56.0002C52.1068 345 48.3052 344.602 44.6341 343.846C19.4644 339.604 0.268741 317.842 0.000303268 291.536C-0.0015862 291.355 0.0104406 291.177 0.0353768 291.002C0.0119921 290.337 0.000248671 289.67 0.000248671 289V275.07L4.52995e-05 274.994L0.000248671 274.971V274.082L0 274L0.000187635 186.019ZM21.0001 186V168.254C21.0001 165.558 18.8618 163.347 16.1667 163.257C13.3485 163.163 11.0115 165.417 11.0001 168.233V173.968L11.0002 174L11.0001 196H12.0001V198H20.0001V196H21.0001V205H20.0002L20.0001 203H12.0001V205H11.0001L11.0002 273.529C11.0158 276.277 13.2484 278.5 16.0001 278.5C18.7484 278.5 20.9787 276.283 21 273.54L21.0001 273.5L21.0002 186.034L21.0001 186ZM20.0002 186.034L20.0001 186L20.0001 168.254C20.0001 166.097 18.2894 164.328 16.1334 164.257C13.8795 164.181 12.0104 165.983 12.0001 168.235V173.968L12.0003 174L12.0001 195H13.0001V197H19.0001V195H20.0001L20.0002 186.034ZM20.0001 206H19.0001V204H13.0001V206H12.0001L12.0002 273.523C12.0002 273.524 12.0002 273.525 12.0002 273.526C12.0141 275.723 13.7996 277.5 16.0001 277.5C18.1978 277.5 19.9817 275.728 20 273.534C20 273.533 20 273.533 20 273.532L20.0001 273.5L20.0001 273.497L20.0001 206ZM40.0001 171H39.0001V168H44.0001V165H39.0001V162H51.0001V165H46.0001V168H51.0001V171H50.0001V172.921C51.3788 173.183 52.7157 173.562 54.0001 174.049C54.3371 174.176 54.6705 174.311 55.0001 174.454V171H54.0001V168H59.0001V165H54.0001V162H66.0001V165H61.0001V168H66.0001V171H65.0001V182.506C67.3167 185.728 68.8544 189.548 69.3374 193.69C69.3767 194.027 69.409 194.366 69.4342 194.708C69.7567 194.605 70.084 194.512 70.4156 194.431C71.5642 194.149 72.7647 194 74.0001 194C76.3288 194 78.5337 194.531 80.5002 195.478C80.8409 195.642 81.1744 195.818 81.5002 196.007V165.25C81.5001 145.782 65.7181 130 46.2501 130C31.3944 130 18.685 139.19 13.4968 152.195C13.3531 152.555 13.2153 152.918 13.0833 153.283C13.456 153.21 13.8336 153.15 14.2156 153.105C14.8008 153.036 15.3963 153 16.0001 153C22.1511 153 27.4373 156.702 29.752 162H36.0001V165H30.7001C30.767 165.33 30.8231 165.663 30.868 166C30.9551 166.654 31.0001 167.322 31.0001 168H36.0001V171H35.0001V174.913C35.3293 174.752 35.6627 174.599 36.0001 174.454C37.2796 173.902 38.6168 173.458 40.0001 173.133V171ZM39.0001 172.354V172H38.0001V167H43.0001V166H38.0001V161H52.0001V166H47.0001V167H52.0001V172H51.0001V172.107C52.0253 172.337 53.0267 172.631 54.0001 172.982V172H53.0001V167H58.0001V166H53.0001V161H67.0001V166H62.0001V167H67.0001V172H66.0001V182.187C68.2814 185.449 69.8047 189.281 70.313 193.427C71.4975 193.148 72.732 193 74.0001 193C76.313 193 78.5132 193.491 80.5002 194.376V165.25C80.5001 146.334 65.1659 131 46.2501 131C32.0113 131 19.7996 139.689 14.6329 152.058C15.0837 152.019 15.5398 152 16.0001 152C22.3279 152 27.7957 155.673 30.3913 161H37.0001V166H31.8762C31.9175 166.33 31.9486 166.664 31.9694 167H37.0001V172H36.0001V173.369C36.9709 172.97 37.9724 172.63 39.0001 172.354ZM53.0001 239V234H54.0001V224H51.0001V234H52.0001V239H38.0001V234H39.0001V224H36.0001V234H37.0001V239H32.5003V285.5C32.5003 298.755 43.2455 309.5 56.5003 309.5C57.1739 309.5 57.8408 309.472 58.4999 309.418L58.5 281.983C58.1734 280.709 58 279.374 58 278C58 277.893 58.0049 277.786 58.0144 277.681C58.0089 277.549 58.0049 277.417 58.0027 277.284C58.001 277.19 58.0002 277.095 58.0002 277V239H53.0001ZM59.0002 238V277C59.0002 277.089 59.001 277.178 59.0025 277.267C59.0051 277.415 59.0098 277.563 59.0167 277.71C59.0057 277.805 59 277.902 59 278C59 279.333 59.1738 280.625 59.5 281.855L59.4999 310.322C58.5165 310.439 57.5154 310.5 56.5003 310.5C42.6932 310.5 31.5002 299.307 31.5003 285.5V238H36.0001V235H35.0001V223H37.0001V222H38.0001V223H40.0001V235H39.0001V238H51.0001V235H50.0001V223H52.0001V222H53.0001V223H55.0001V235H54.0001V238H59.0002ZM39.0001 218V202H36.0001V218H39.0001ZM35.0001 201H37.0001V200H38.0001V201H40.0001V219H38.0001V220H37.0001V219H35.0001V201ZM39.0001 196V185.239C37.8851 185.884 36.8744 186.69 36.0001 187.626V196H39.0001ZM35.0001 187.24C36.1259 185.964 37.4807 184.895 39.0001 184.097C39.326 183.926 39.6596 183.767 40.0001 183.622V197H38.0001V198H37.0001V197H35.0001V187.24ZM54.0001 218V202H51.0001V218H54.0001ZM50.0001 201H52.0001V200H53.0001V201H55.0001V219H53.0001V220H52.0001V219H50.0001V201ZM54.0001 196V186.663C53.0992 185.884 52.0906 185.227 51.0001 184.717V196H54.0001ZM50.0001 183.239C50.3394 183.354 50.673 183.482 51.0001 183.622C52.4824 184.255 53.8332 185.138 55.0001 186.216V197H53.0001V198H52.0001V197H50.0001V183.239ZM70.0001 244H69.5V278.682C70.3103 280.35 72.0209 281.5 74.0001 281.5C76.7485 281.5 78.9789 279.283 78.9999 276.539L79.0001 276.5L79.0002 244H78.0002L78.0001 242H70.0001V244ZM71.0001 243V245H70.5V278.438C71.1835 279.67 72.4957 280.5 74.0001 280.5C76.1979 280.5 77.9817 278.728 78 276.534C78 276.533 78 276.533 78 276.532L78.0001 276.5L78.0001 276.495L78.0002 245H77.0001V243H71.0001ZM79.0001 227V209C79.0001 206.239 76.7615 204 74.0001 204C72.0209 204 70.3104 205.15 69.5001 206.818V235H70.0001V237H78.0001V235H79.0001L79.0002 227.034L79.0001 227ZM78.0002 227.038L78.0002 227.034L78.0001 227L78.0001 209C78.0001 206.791 76.2092 205 74.0001 205C72.4957 205 71.1836 205.83 70.5001 207.062V234H71.0001V236H77.0001V234H78.0001L78.0002 227.038ZM92.5003 281.298C92.5003 281.299 92.5003 281.3 92.5003 281.302C92.528 285.282 95.7633 288.5 99.7501 288.5C103.754 288.5 107 285.254 107 281.25V221.612L104.155 174H92.5002L92.5003 281.298ZM105.097 173L108 221.582V281.25C108 285.806 104.306 289.5 99.7501 289.5C95.212 289.5 91.5298 285.836 91.5003 281.305L91.5002 173H105.097ZM69.4999 306.859C69.8387 306.652 70.1721 306.438 70.4999 306.216C75.2274 303.015 78.8008 298.238 80.4661 292.639C80.5906 292.221 80.7045 291.798 80.8073 291.37C80.4262 291.565 80.0356 291.743 79.6364 291.905C77.8963 292.611 75.9936 293 74.0001 293C72.7949 293 71.6229 292.858 70.4999 292.589C70.162 292.509 69.8286 292.416 69.4999 292.313V306.859ZM70.4999 293.616V304.996C74.5507 302.082 77.6557 297.938 79.2683 293.112C77.6178 293.687 75.8447 294 74.0001 294C72.7986 294 71.6272 293.867 70.4999 293.616ZM12.0254 290.502C12.1721 294.878 12.9574 299.09 14.2905 303.049C20.1581 320.119 36.3548 332.5 55.5645 332.5H67.4894C88.0657 332.5 105.214 318.07 109.487 298.859C106.63 300.537 103.302 301.5 99.7501 301.5C96.1743 301.5 92.8241 300.524 89.9538 298.824C84.6579 312.109 71.677 321.5 56.5003 321.5C38.2326 321.5 23.1439 307.895 20.8127 290.263C19.2928 290.742 17.6758 291 16.0001 291C14.629 291 13.2971 290.827 12.0254 290.502ZM11.0162 290.208C11.1372 294.8 11.9461 299.221 13.3438 303.371C19.3442 320.832 35.9114 333.5 55.5645 333.5H67.4894C88.8897 333.5 106.664 318.247 110.667 298.107C110.761 297.634 110.848 297.158 110.926 296.679C110.55 296.97 110.163 297.248 109.764 297.51C106.889 299.4 103.448 300.5 99.7501 300.5C96.2977 300.5 93.0693 299.541 90.3163 297.876C90.0234 297.698 89.7359 297.513 89.454 297.32C89.3381 297.643 89.2176 297.964 89.0925 298.283C83.9869 311.291 71.3191 320.5 56.5003 320.5C38.6691 320.5 23.9524 307.166 21.7773 289.925C21.7342 289.583 21.696 289.239 21.6628 288.894C21.345 289.024 21.0217 289.143 20.6935 289.251C19.217 289.737 17.6392 290 16.0001 290C14.6158 290 13.2753 289.812 12.0026 289.461C11.6636 289.368 11.3294 289.263 11.0005 289.146C11.0016 289.501 11.0069 289.855 11.0162 290.208Z" fill="white"/>
<path d="M24 162H36V165H24V162Z" fill="#FFBE32"/>
<path d="M24 162H36V163H24V162Z" fill="#FBCB65"/>
<path d="M24 164H36V165H24V164Z" fill="#E7A922"/>
<path d="M24 163H28V164H24V163Z" fill="#FBCB65"/>
<path d="M24 163H28V164H24V163Z" fill="#FBCB65"/>
<path d="M32 163H36V164H32V163Z" fill="#FFBE32"/>
<path d="M24 168H36V171H24V168Z" fill="#FFBE32"/>
<path d="M24 168H36V170H24V168Z" fill="#FBCB65"/>
<path d="M29 165H31V168H29V165Z" fill="#C38B10"/>
<path d="M25 169H27V169.5C27 169.776 26.7761 170 26.5 170H25.5C25.2239 170 25 169.776 25 169.5V169Z" fill="#FFF6E2"/>
<path d="M24 162.5C24 162.224 24.2239 162 24.5 162H35.5C35.7761 162 36 162.224 36 162.5C36 162.776 35.7761 163 35.5 163H24.5C24.2239 163 24 162.776 24 162.5Z" fill="#FFF6E2"/>
<path d="M25 170H26V171H25V170Z" fill="#FBCB65"/>
<path d="M24 170H25V171H24V170Z" fill="#FBCB65"/>
<path d="M35 170H36V171H35V170Z" fill="#FBCB65"/>
<path d="M34 170H35V171H34V170Z" fill="#FBCB65"/>
<path d="M25 171H35V235H25V171Z" fill="#FFBE32"/>
<path d="M25 173H29V235H25V173Z" fill="#FFD88F"/>
<path d="M26 173.5C26 173.224 26.2239 173 26.5 173C26.7761 173 27 173.224 27 173.5V225.5C27 225.776 26.7761 226 26.5 226C26.2239 226 26 225.776 26 225.5V173.5Z" fill="#FFF6E2"/>
<path d="M31 173H35V216H31V173Z" fill="#FFD88F"/>
<path d="M24 235H36V238H24V235Z" fill="#FFBE32"/>
<path d="M25 171H35V172H25V171Z" fill="#E7A922"/>
<path d="M24 168H36V169H24V168Z" fill="#E7A922"/>
<path d="M24 237H36V238H24V237Z" fill="#C38B10"/>
<path d="M24 235.5C24 235.224 24.2239 235 24.5 235H35.5C35.7761 235 36 235.224 36 235.5C36 235.776 35.7761 236 35.5 236H24.5C24.2239 236 24 235.776 24 235.5Z" fill="#FFF6E2"/>
<path d="M25 234H35V235H25V234Z" fill="#FFBE32"/>
<path d="M33 173H34V234H33V173Z" fill="#FBCB65"/>
<path d="M25 190H35V191H25V190Z" fill="#E7A922"/>
<path d="M26 190H27V191H26V190Z" fill="#FBCB65"/>
<path d="M33 190H34V191H33V190Z" fill="#FFBE32"/>
<path d="M29 190H31V191H29V190Z" fill="#FBCB65"/>
<path d="M25 209H35V210H25V209Z" fill="#E7A922"/>
<path d="M26 209H27V210H26V209Z" fill="#FBCB65"/>
<path d="M33 209H34V210H33V209Z" fill="#FFBE32"/>
<path d="M29 209H31V210H29V209Z" fill="#FBCB65"/>
<path d="M39 162H51V165H39V162Z" fill="#FFBE32"/>
<path d="M39 162H51V163H39V162Z" fill="#FBCB65"/>
<path d="M39 164H51V165H39V164Z" fill="#E7A922"/>
<path d="M39 163H43V164H39V163Z" fill="#FBCB65"/>
<path d="M39 163H43V164H39V163Z" fill="#FBCB65"/>
<path d="M47 163H51V164H47V163Z" fill="#FFBE32"/>
<path d="M39 168H51V171H39V168Z" fill="#FFBE32"/>
<path d="M39 168H51V170H39V168Z" fill="#FBCB65"/>
<path d="M44 165H46V168H44V165Z" fill="#C38B10"/>
<path d="M40 169H42V169.5C42 169.776 41.7761 170 41.5 170H40.5C40.2239 170 40 169.776 40 169.5V169Z" fill="#FFF6E2"/>
<path d="M39 162.5C39 162.224 39.2239 162 39.5 162H50.5C50.7761 162 51 162.224 51 162.5C51 162.776 50.7761 163 50.5 163H39.5C39.2239 163 39 162.776 39 162.5Z" fill="#FFF6E2"/>
<path d="M40 170H41V171H40V170Z" fill="#FBCB65"/>
<path d="M39 170H40V171H39V170Z" fill="#FBCB65"/>
<path d="M50 170H51V171H50V170Z" fill="#FBCB65"/>
<path d="M49 170H50V171H49V170Z" fill="#FBCB65"/>
<path d="M40 171H50V235H40V171Z" fill="#FFBE32"/>
<path d="M40 173H44V235H40V173Z" fill="#FFD88F"/>
<path d="M41 173.5C41 173.224 41.2239 173 41.5 173C41.7761 173 42 173.224 42 173.5V225.5C42 225.776 41.7761 226 41.5 226C41.2239 226 41 225.776 41 225.5V173.5Z" fill="#FFF6E2"/>
<path d="M46 173H50V216H46V173Z" fill="#FFD88F"/>
<path d="M39 235H51V238H39V235Z" fill="#FFBE32"/>
<path d="M40 171H50V172H40V171Z" fill="#E7A922"/>
<path d="M39 168H51V169H39V168Z" fill="#E7A922"/>
<path d="M39 237H51V238H39V237Z" fill="#C38B10"/>
<path d="M39 235.5C39 235.224 39.2239 235 39.5 235H50.5C50.7761 235 51 235.224 51 235.5C51 235.776 50.7761 236 50.5 236H39.5C39.2239 236 39 235.776 39 235.5Z" fill="#FFF6E2"/>
<path d="M40 234H50V235H40V234Z" fill="#FFBE32"/>
<path d="M48 173H49V234H48V173Z" fill="#FBCB65"/>
<path d="M40 190H50V191H40V190Z" fill="#E7A922"/>
<path d="M41 190H42V191H41V190Z" fill="#FBCB65"/>
<path d="M48 190H49V191H48V190Z" fill="#FFBE32"/>
<path d="M44 190H46V191H44V190Z" fill="#FBCB65"/>
<path d="M40 209H50V210H40V209Z" fill="#E7A922"/>
<path d="M41 209H42V210H41V209Z" fill="#FBCB65"/>
<path d="M48 209H49V210H48V209Z" fill="#FFBE32"/>
<path d="M44 209H46V210H44V209Z" fill="#FBCB65"/>
<path d="M54 162H66V165H54V162Z" fill="#FFBE32"/>
<path d="M54 162H66V163H54V162Z" fill="#FBCB65"/>
<path d="M54 164H66V165H54V164Z" fill="#E7A922"/>
<path d="M54 163H58V164H54V163Z" fill="#FBCB65"/>
<path d="M54 163H58V164H54V163Z" fill="#FBCB65"/>
<path d="M62 163H66V164H62V163Z" fill="#FFBE32"/>
<path d="M54 168H66V171H54V168Z" fill="#FFBE32"/>
<path d="M54 168H66V170H54V168Z" fill="#FBCB65"/>
<path d="M59 165H61V168H59V165Z" fill="#C38B10"/>
<path d="M55 169H57V169.5C57 169.776 56.7761 170 56.5 170H55.5C55.2239 170 55 169.776 55 169.5V169Z" fill="#FFF6E2"/>
<path d="M54 162.5C54 162.224 54.2239 162 54.5 162H65.5C65.7761 162 66 162.224 66 162.5C66 162.776 65.7761 163 65.5 163H54.5C54.2239 163 54 162.776 54 162.5Z" fill="#FFF6E2"/>
<path d="M55 170H56V171H55V170Z" fill="#FBCB65"/>
<path d="M54 170H55V171H54V170Z" fill="#FBCB65"/>
<path d="M65 170H66V171H65V170Z" fill="#FBCB65"/>
<path d="M64 170H65V171H64V170Z" fill="#FBCB65"/>
<path d="M55 171H65V235H55V171Z" fill="#FFBE32"/>
<path d="M55 173H59V235H55V173Z" fill="#FFD88F"/>
<path d="M56 173.5C56 173.224 56.2239 173 56.5 173C56.7761 173 57 173.224 57 173.5V225.5C57 225.776 56.7761 226 56.5 226C56.2239 226 56 225.776 56 225.5V173.5Z" fill="#FFF6E2"/>
<path d="M61 173H65V216H61V173Z" fill="#FFD88F"/>
<path d="M54 235H66V238H54V235Z" fill="#FFBE32"/>
<path d="M55 171H65V172H55V171Z" fill="#E7A922"/>
<path d="M54 168H66V169H54V168Z" fill="#E7A922"/>
<path d="M54 237H66V238H54V237Z" fill="#C38B10"/>
<path d="M54 235.5C54 235.224 54.2239 235 54.5 235H65.5C65.7761 235 66 235.224 66 235.5C66 235.776 65.7761 236 65.5 236H54.5C54.2239 236 54 235.776 54 235.5Z" fill="#FFF6E2"/>
<path d="M55 234H65V235H55V234Z" fill="#FFBE32"/>
<path d="M63 173H64V234H63V173Z" fill="#FBCB65"/>
<path d="M55 190H65V191H55V190Z" fill="#E7A922"/>
<path d="M56 190H57V191H56V190Z" fill="#FBCB65"/>
<path d="M63 190H64V191H63V190Z" fill="#FFBE32"/>
<path d="M59 190H61V191H59V190Z" fill="#FBCB65"/>
<path d="M55 209H65V210H55V209Z" fill="#E7A922"/>
<path d="M56 209H57V210H56V209Z" fill="#FBCB65"/>
<path d="M63 209H64V210H63V209Z" fill="#FFBE32"/>
<path d="M59 209H61V210H59V209Z" fill="#FBCB65"/>
<path d="M30 235C31.1046 235 32 234.105 32 233L32 173C32 171.895 31.1046 171 30 171C28.8954 171 28 171.895 28 173L28 233C28 234.105 28.8954 235 30 235Z" fill="#E7A922"/>
<path d="M79 241L78 241L78 244L79 244L79 241Z" fill="#E7A922"/>
<path d="M79 238L78 238L78 241L79 241L79 238Z" fill="#FFBE32"/>
<path d="M79 235L78 235L78 238L79 238L79 235Z" fill="#FFD88F"/>
<path d="M79 238L78 238L78 237L79 237L79 238Z" fill="#FFF6E2"/>
<path d="M78 237L70 237L70 242L78 242L78 237Z" fill="#FFD88F"/>
<path d="M78 241L70 241L70 242L78 242L78 241Z" fill="#E7A922"/>
<path d="M78 240L70 240L70 241L78 241L78 240Z" fill="#FFBE32"/>
<path d="M78 238L70 238L70 239L78 239L78 238Z" fill="#FFF6E2"/>
<path d="M78 241L77 241L77 242L78 242L78 241Z" fill="#C38B10"/>
<path d="M78 240L77 240L77 241L78 241L78 240Z" fill="#E7A922"/>
<path d="M78 239L77 239L77 240L78 240L78 239Z" fill="#FFBE32"/>
<path d="M78 237L77 237L77 238L78 238L78 237Z" fill="#FFBE32"/>
<path d="M78 238L77 238L77 239L78 239L78 238Z" fill="#FFD88F"/>
<path d="M71 241L70 241L70 242L71 242L71 241Z" fill="#C38B10"/>
<path d="M71 240L70 240L70 241L71 241L71 240Z" fill="#E7A922"/>
<path d="M71 239L70 239L70 240L71 240L71 239Z" fill="#FFBE32"/>
<path d="M71 237L70 237L70 238L71 238L71 237Z" fill="#FFBE32"/>
<path d="M71 238L70 238L70 239L71 239L71 238Z" fill="#FFD88F"/>
<path d="M70 241L69 241L69 244L70 244L70 241Z" fill="#E7A922"/>
<path d="M70 238L69 238L69 241L70 241L70 238Z" fill="#FFBE32"/>
<path d="M70 235L69 235L69 238L70 238L70 235Z" fill="#FFD88F"/>
<path d="M70 238L69 238L69 237L70 237L70 238Z" fill="#FFF6E2"/>
<path d="M21 250L20 250L20 253L21 253L21 250Z" fill="#E7A922"/>
<path d="M21 247L20 247L20 250L21 250L21 247Z" fill="#FFBE32"/>
<path d="M21 244L20 244L20 247L21 247L21 244Z" fill="#FFD88F"/>
<path d="M21 247L20 247L20 246L21 246L21 247Z" fill="#FFF6E2"/>
<path d="M20 246L12 246L12 251L20 251L20 246Z" fill="#FFD88F"/>
<path d="M20 250L12 250L12 251L20 251L20 250Z" fill="#E7A922"/>
<path d="M20 249L12 249L12 250L20 250L20 249Z" fill="#FFBE32"/>
<path d="M20 247L12 247L12 248L20 248L20 247Z" fill="#FFF6E2"/>
<path d="M20 250L19 250L19 251L20 251L20 250Z" fill="#C38B10"/>
<path d="M20 249L19 249L19 250L20 250L20 249Z" fill="#E7A922"/>
<path d="M20 248L19 248L19 249L20 249L20 248Z" fill="#FFBE32"/>
<path d="M20 246L19 246L19 247L20 247L20 246Z" fill="#FFBE32"/>
<path d="M20 247L19 247L19 248L20 248L20 247Z" fill="#FFD88F"/>
<path d="M13 250L12 250L12 251L13 251L13 250Z" fill="#C38B10"/>
<path d="M13 249L12 249L12 250L13 250L13 249Z" fill="#E7A922"/>
<path d="M13 248L12 248L12 249L13 249L13 248Z" fill="#FFBE32"/>
<path d="M13 246L12 246L12 247L13 247L13 246Z" fill="#FFBE32"/>
<path d="M13 247L12 247L12 248L13 248L13 247Z" fill="#FFD88F"/>
<path d="M12 250L11 250L11 253L12 253L12 250Z" fill="#E7A922"/>
<path d="M12 247L11 247L11 250L12 250L12 247Z" fill="#FFBE32"/>
<path d="M12 244L11 244L11 247L12 247L12 244Z" fill="#FFD88F"/>
<path d="M12 247L11 247L11 246L12 246L12 247Z" fill="#FFF6E2"/>
<path d="M21 202L20 202L20 205L21 205L21 202Z" fill="#E7A922"/>
<path d="M21 199L20 199L20 202L21 202L21 199Z" fill="#FFBE32"/>
<path d="M21 196L20 196L20 199L21 199L21 196Z" fill="#FFD88F"/>
<path d="M21 199L20 199L20 198L21 198L21 199Z" fill="#FFF6E2"/>
<path d="M20 198L12 198L12 203L20 203L20 198Z" fill="#FFD88F"/>
<path d="M20 202L12 202L12 203L20 203L20 202Z" fill="#E7A922"/>
<path d="M20 201L12 201L12 202L20 202L20 201Z" fill="#FFBE32"/>
<path d="M20 199L12 199L12 200L20 200L20 199Z" fill="#FFF6E2"/>
<path d="M20 202L19 202L19 203L20 203L20 202Z" fill="#C38B10"/>
<path d="M20 201L19 201L19 202L20 202L20 201Z" fill="#E7A922"/>
<path d="M20 200L19 200L19 201L20 201L20 200Z" fill="#FFBE32"/>
<path d="M20 198L19 198L19 199L20 199L20 198Z" fill="#FFBE32"/>
<path d="M20 199L19 199L19 200L20 200L20 199Z" fill="#FFD88F"/>
<path d="M13 202L12 202L12 203L13 203L13 202Z" fill="#C38B10"/>
<path d="M13 201L12 201L12 202L13 202L13 201Z" fill="#E7A922"/>
<path d="M13 200L12 200L12 201L13 201L13 200Z" fill="#FFBE32"/>
<path d="M13 198L12 198L12 199L13 199L13 198Z" fill="#FFBE32"/>
<path d="M13 199L12 199L12 200L13 200L13 199Z" fill="#FFD88F"/>
<path d="M12 202L11 202L11 205L12 205L12 202Z" fill="#E7A922"/>
<path d="M12 199L11 199L11 202L12 202L12 199Z" fill="#FFBE32"/>
<path d="M12 196L11 196L11 199L12 199L12 196Z" fill="#FFD88F"/>
<path d="M12 199L11 199L11 198L12 198L12 199Z" fill="#FFF6E2"/>
<path d="M117 172L116 172L116 175L117 175L117 172Z" fill="#E7A922"/>
<path d="M117 169L116 169L116 172L117 172L117 169Z" fill="#FFBE32"/>
<path d="M117 166L116 166L116 169L117 169L117 166Z" fill="#FFD88F"/>
<path d="M117 169L116 169L116 168L117 168L117 169Z" fill="#FFF6E2"/>
<path d="M115.69 168L86 168L86 173L115.69 173L115.69 168Z" fill="#FFD88F"/>
<path d="M115.69 172L86 172L86 173L115.69 173L115.69 172Z" fill="#E7A922"/>
<path d="M115.69 171L86 171L86 172L115.69 172L115.69 171Z" fill="#FFBE32"/>
<path d="M115.69 169L86 169L86 170L115.69 170L115.69 169Z" fill="#FFF6E2"/>
<path d="M116 172L115 172L115 173L116 173L116 172Z" fill="#C38B10"/>
<path d="M116 171L115 171L115 172L116 172L116 171Z" fill="#E7A922"/>
<path d="M116 170L115 170L115 171L116 171L116 170Z" fill="#FFBE32"/>
<path d="M116 168L115 168L115 169L116 169L116 168Z" fill="#FFBE32"/>
<path d="M116 169L115 169L115 170L116 170L116 169Z" fill="#FFD88F"/>
<path d="M88 172L87 172L87 173L88 173L88 172Z" fill="#C38B10"/>
<path d="M88 171L87 171L87 172L88 172L88 171Z" fill="#E7A922"/>
<path d="M88 170L87 170L87 171L88 171L88 170Z" fill="#FFBE32"/>
<path d="M88 168L87 168L87 169L88 169L88 168Z" fill="#FFBE32"/>
<path d="M88 169L87 169L87 170L88 170L88 169Z" fill="#FFD88F"/>
<path d="M87 172L86 172L86 175L87 175L87 172Z" fill="#E7A922"/>
<path d="M87 169L86 169L86 172L87 172L87 169Z" fill="#FFBE32"/>
<path d="M87 166L86 166L86 169L87 169L87 166Z" fill="#FFD88F"/>
<path d="M87 169L86 169L86 168L87 168L87 169Z" fill="#FFF6E2"/>
<path fill-rule="evenodd" clip-rule="evenodd" d="M56.0002 334C31.1473 334 11.0002 313.853 11.0001 289L11 165.25C11 145.782 26.782 130 46.25 130C65.7181 130 81.5 145.782 81.5001 165.25L81.5002 285.5C81.5002 294.546 76.696 302.469 69.4999 306.859L69.5 196.5C69.5 183.245 58.7549 172.5 45.5001 172.5C32.2453 172.5 21.5002 183.245 21.5002 196.5L21.5002 285.5C21.5002 304.83 37.1702 320.5 56.5002 320.5C75.8302 320.5 91.5002 304.83 91.5002 285.5L91.5001 165.25C91.5 140.259 71.2409 120 46.25 120C21.2591 120 1.00003 140.259 1.00005 165.25L1.00013 289C1.00016 319.376 25.6245 344 56.0002 344L56.0002 334ZM59.4999 310.322C58.5164 310.439 57.5154 310.5 56.5002 310.5C42.6931 310.5 31.5002 299.307 31.5002 285.5L31.5002 196.5C31.5002 188.768 37.7682 182.5 45.5001 182.5C53.232 182.5 59.5 188.768 59.5 196.5L59.4999 310.322Z" fill="#FFBE32"/>
<path fill-rule="evenodd" clip-rule="evenodd" d="M111.5 290.2C111.5 265.899 96 24 96 24L146 24C146 24 136 248.5 131.5 285C127 321.5 102.846 344 67.5 344H56.0002L56.0002 334L67.5 334C91.8005 334 111.5 314.5 111.5 290.2Z" fill="#FFBE32"/>
<path fill-rule="evenodd" clip-rule="evenodd" d="M128.5 283C129.881 283 131 284.119 131 285.5C131 317.986 104.457 344.211 71.974 343.819L52.9689 343.59C24.374 343.246 1.29192 320.121 1.00013 291.526C0.986045 290.145 2.09385 289.014 3.47449 289C4.85513 288.986 5.98578 290.094 5.99987 291.474C6.26393 317.352 27.1521 338.279 53.0291 338.591L72.0342 338.82C101.733 339.177 126 315.201 126 285.5C126 284.119 127.119 283 128.5 283Z" fill="#E7A922"/>
<path fill-rule="evenodd" clip-rule="evenodd" d="M84 172C82.6193 172 81.5 170.881 81.5 169.5L81.5 165.25C81.5 145.782 65.718 130 46.2499 130C26.8033 130 11 146.01 11 165.5C11 166.881 9.88071 168 8.49999 168C7.11928 168 5.99999 166.881 5.99999 165.5C5.99999 143.292 23.9991 125 46.2499 125C68.4794 125 86.5 143.021 86.5 165.25L86.5 169.5C86.5 170.881 85.3807 172 84 172Z" fill="#E7A922"/>
<path fill-rule="evenodd" clip-rule="evenodd" d="M2.49932 281.5C1.67089 281.5 0.999313 280.828 0.999313 280L0.998995 165.25C0.998929 140.259 21.2581 119.999 46.2491 119.999C71.24 119.999 91.4991 140.258 91.4991 165.249L91.4992 278.5C91.4992 279.328 90.8276 280 89.9992 280C89.1708 280 88.4992 279.328 88.4992 278.5L88.4991 165.249C88.4991 141.915 69.5831 122.999 46.2491 122.999C22.915 122.999 3.99894 141.915 3.999 165.249L3.99931 280C3.99931 280.828 3.32774 281.5 2.49932 281.5Z" fill="#FFD88F"/>
<path fill-rule="evenodd" clip-rule="evenodd" d="M2.49883 214.5C2.22268 214.5 1.99883 214.276 1.99883 214L1.99882 165.249C1.99882 140.81 21.8103 120.999 46.2489 120.999C70.6876 120.999 90.499 140.81 90.499 165.249L90.499 175.5C90.499 175.776 90.2752 176 89.999 176C89.7229 176 89.499 175.776 89.499 175.5L89.499 165.249C89.499 141.363 70.1353 121.999 46.2489 121.999C22.3625 121.999 2.99882 141.363 2.99882 165.249L2.99883 214C2.99883 214.276 2.77497 214.5 2.49883 214.5Z" fill="#FFF6E2"/>
<path fill-rule="evenodd" clip-rule="evenodd" d="M62 224.5C60.6193 224.5 59.5 223.381 59.5 222L59.5 196.5C59.5 188.768 53.2319 182.5 45.4999 182.5C37.768 182.5 31.5 188.768 31.5 196.5L31.5 218C31.5 219.381 30.3807 220.5 29 220.5C27.6193 220.5 26.5 219.381 26.5 218L26.5 196.5C26.5 186.007 35.0065 177.5 45.4999 177.5C55.9933 177.5 64.5 186.007 64.5 196.5L64.5 222C64.5 223.381 63.3807 224.5 62 224.5Z" fill="#E7A922"/>
<path fill-rule="evenodd" clip-rule="evenodd" d="M68 302C67.1716 302 66.5 301.328 66.5 300.5L66.5 196.5C66.5 184.902 57.0979 175.5 45.4999 175.5C33.902 175.5 24.5 184.902 24.5 196.5L24.5 276.5C24.5 277.328 23.8284 278 23 278C22.1716 278 21.5 277.328 21.5 276.5L21.5 196.5C21.5 183.245 32.2451 172.5 45.4999 172.5C58.7548 172.5 69.5 183.245 69.5 196.5L69.5 300.5C69.5 301.328 68.8284 302 68 302Z" fill="#FFD88F"/>
<path fill-rule="evenodd" clip-rule="evenodd" d="M22.5 249.5C22.2239 249.5 22 249.276 22 249L22 196.5C22 183.521 32.5213 173 45.5 173C58.4787 173 69 183.521 69.0001 196.5L69.0001 229.5C69.0001 229.776 68.7763 230 68.5001 230C68.224 230 68.0001 229.776 68.0001 229.5L68.0001 196.5C68 184.074 57.9264 174 45.5 174C33.0736 174 23 184.074 23 196.5L23 249C23 249.276 22.7761 249.5 22.5 249.5Z" fill="#FFF6E2"/>
<path fill-rule="evenodd" clip-rule="evenodd" d="M24 282.5C25.3807 282.5 26.5 283.619 26.5 285V285.5C26.5 302.068 39.9316 315.5 56.5002 315.5C73.0687 315.5 86.5001 302.068 86.5001 285.5C86.5001 284.119 87.6194 283 89.0001 283C90.3808 283 91.5001 284.119 91.5001 285.5C91.5001 304.83 75.8301 320.5 56.5002 320.5C37.1702 320.5 21.5 304.83 21.5 285.5V285C21.5 283.619 22.6193 282.5 24 282.5Z" fill="#E7A922"/>
<path fill-rule="evenodd" clip-rule="evenodd" d="M30 283C30.8284 283 31.5 283.672 31.5 284.5V285.5C31.5 299.307 42.6929 310.5 56.5001 310.5C70.3072 310.5 81.5 299.307 81.5 285.5V284.5C81.5 283.672 82.1716 283 83 283C83.8284 283 84.5 283.672 84.5 284.5V285.5C84.5 300.964 71.964 313.5 56.5001 313.5C41.0361 313.5 28.5 300.964 28.5 285.5V284.5C28.5 283.672 29.1716 283 30 283Z" fill="#FFD88F"/>
<path fill-rule="evenodd" clip-rule="evenodd" d="M9.57724 285.002C10.4046 285.045 11.0407 285.75 10.998 286.577C9.68286 312.092 30.016 333.5 55.5644 333.5H67.4893C92.172 333.5 112.031 313.209 111.5 288.532C111.483 287.704 112.14 287.018 112.968 287C113.796 286.983 114.482 287.64 114.5 288.468C115.067 314.827 93.8542 336.5 67.4893 336.5H55.5644C28.2985 336.5 6.59842 313.653 8.00201 286.423C8.04466 285.595 8.74991 284.959 9.57724 285.002Z" fill="#FFD88F"/>
<path fill-rule="evenodd" clip-rule="evenodd" d="M83.0094 284.501C83.2855 284.506 83.5051 284.734 83.4999 285.01L83.4904 285.512C83.2129 300.221 71.2097 312 56.498 312C41.5874 312.001 29.5 299.911 29.5 285.001C29.5 284.725 29.7239 284.501 30 284.501C30.2761 284.501 30.5 284.725 30.5 285.001C30.5 299.359 42.1398 311.001 56.498 311C70.6648 311 82.2234 299.657 82.4906 285.493L82.5001 284.991C82.5053 284.715 82.7333 284.496 83.0094 284.501Z" fill="#FFF6E2"/>
<path fill-rule="evenodd" clip-rule="evenodd" d="M83.0094 284.501C83.2855 284.506 83.5051 284.734 83.4999 285.01L83.4904 285.512C83.2129 300.221 71.2097 312 56.498 312C41.5874 312.001 29.5 299.911 29.5 285.001C29.5 284.725 29.7239 284.501 30 284.501C30.2761 284.501 30.5 284.725 30.5 285.001C30.5 299.359 42.1398 311.001 56.498 311C70.6648 311 82.2234 299.657 82.4906 285.493L82.5001 284.991C82.5053 284.715 82.7333 284.496 83.0094 284.501Z" fill="#FFF6E2"/>
<path fill-rule="evenodd" clip-rule="evenodd" d="M9.52105 286.5C9.79695 286.512 10.0112 286.745 9.99957 287.021C8.91598 312.756 29.2889 334.31 55.0444 334.676L65.5127 334.825C91.3543 335.192 112.5 314.345 112.5 288.501C112.5 288.225 112.724 288.001 113 288.001C113.276 288.001 113.5 288.225 113.5 288.501C113.5 314.903 91.8979 336.2 65.4985 335.825L55.0302 335.676C28.7115 335.302 7.89317 313.277 9.00046 286.979C9.01208 286.703 9.24515 286.489 9.52105 286.5Z" fill="#FFF6E2"/>
<path fill-rule="evenodd" clip-rule="evenodd" d="M8.50007 285C7.11936 285 6.00006 283.881 6.00006 282.5L5.99976 164L10.9998 164L11.0001 282.5C11.0001 283.881 9.88078 285 8.50007 285Z" fill="#FBCB65"/>
<path fill-rule="evenodd" clip-rule="evenodd" d="M28.9998 280.5C27.6191 280.5 26.4998 279.381 26.4998 278L26.4992 195.5L31.4992 195.5L31.4998 278C31.4998 279.381 30.3805 280.5 28.9998 280.5Z" fill="#FBCB65"/>
<path fill-rule="evenodd" clip-rule="evenodd" d="M62.0003 290.5C60.6196 290.5 59.5003 289.381 59.5003 288L59.5 195.5L64.5 195.5L64.5003 288C64.5003 289.381 63.381 290.5 62.0003 290.5Z" fill="#FBCB65"/>
<path fill-rule="evenodd" clip-rule="evenodd" d="M84.0003 279C82.6195 279 81.5002 277.881 81.5002 276.5L81.5 168.5L86.5 168.5L86.5002 276.5C86.5002 277.881 85.381 279 84.0003 279Z" fill="#FBCB65"/>
<path fill-rule="evenodd" clip-rule="evenodd" d="M122 24H96C96 15.1416 90.2407 7.62817 82.2623 5H122H161.738C153.759 7.62817 148 15.1416 148 24H122Z" fill="#FFBE32"/>
<path fill-rule="evenodd" clip-rule="evenodd" d="M116.798 284.991C114.042 285.156 111.674 283.055 111.509 280.298L97.2723 42.0718C96.7908 34.0148 95.2845 26.052 92.7897 18.3759L88.6994 5.79034L98.2098 2.69949L102.3 15.285C105.057 23.7692 106.722 32.5702 107.254 41.4753L121.491 279.702C121.656 282.458 119.555 284.826 116.798 284.991Z" fill="#FBCB65"/>
<path fill-rule="evenodd" clip-rule="evenodd" d="M114.092 280.497C113.265 280.548 112.553 279.918 112.503 279.091L98.1807 44.8552C97.4143 32.321 94.2582 20.049 88.8825 8.70019L87.5023 5.78647L90.2135 4.5022L91.5937 7.41592C97.1331 19.1104 100.385 31.7562 101.175 44.6721L115.497 278.908C115.548 279.735 114.918 280.447 114.092 280.497Z" fill="#FFD88F"/>
<path fill-rule="evenodd" clip-rule="evenodd" d="M130.205 236.991C132.962 237.154 135.328 235.052 135.491 232.295L146.686 42.9178C147.194 34.3299 148.866 25.8508 151.656 17.713L154.851 8.39198L145.392 5.14874L142.196 14.4697C139.112 23.4642 137.265 32.8358 136.703 42.3277L125.509 231.705C125.346 234.462 127.448 236.828 130.205 236.991Z" fill="#FBCB65"/>
<path fill-rule="evenodd" clip-rule="evenodd" d="M154.771 9H89.2291C88.8856 8.6969 88.5317 8.4054 88.168 8.12613C88.2563 8.04766 88.3726 8 88.5 8H155.5C155.627 8 155.744 8.04766 155.832 8.12613C155.468 8.4054 155.114 8.6969 154.771 9Z" fill="#C38B10"/>
<path d="M77 4.5C77 2.567 78.567 1 80.5 1H163.5C165.433 1 167 2.567 167 4.5C167 6.433 165.433 8 163.5 8H80.5C78.567 8 77 6.433 77 4.5Z" fill="#FFBE32"/>
<path d="M79 2.5C79 1.67157 79.6716 1 80.5 1H161.5C162.328 1 163 1.67157 163 2.5C163 3.32843 162.328 4 161.5 4H80.5C79.6716 4 79 3.32843 79 2.5Z" fill="#FFD88F"/>
<path d="M79 6.5C79 5.67157 79.6716 5 80.5 5H161.5C162.328 5 163 5.67157 163 6.5C163 7.32843 162.328 8 161.5 8H80.5C79.6716 8 79 7.32843 79 6.5Z" fill="#FBCB65"/>
<path d="M85 2.5C85 2.22386 85.2239 2 85.5 2H158.5C158.776 2 159 2.22386 159 2.5C159 2.77614 158.776 3 158.5 3H85.5C85.2239 3 85 2.77614 85 2.5Z" fill="#FFF6E2"/>
<path d="M50 219H52V221H50V219Z" fill="#C38B10"/>
<path d="M53 219H55V223H53V219Z" fill="#C38B10"/>
<path d="M50 219H52V223H50V219Z" fill="#C38B10"/>
<path d="M50 219H52V221H50V219Z" fill="#E7A922"/>
<path d="M53 219H55V221H53V219Z" fill="#E7A922"/>
<path d="M52 220H53V221H52V220Z" fill="#E7A922"/>
<path d="M52 221H53V222H52V221Z" fill="#C38B10"/>
<path d="M38 219H40V223H38V219Z" fill="#C38B10"/>
<path d="M35 219H37V223H35V219Z" fill="#C38B10"/>
<path d="M35 219H37V221H35V219Z" fill="#E7A922"/>
<path d="M38 219H40V221H38V219Z" fill="#E7A922"/>
<path d="M37 220H38V221H37V220Z" fill="#E7A922"/>
<path d="M37 221H38V222H37V221Z" fill="#C38B10"/>
<path d="M53 197H55V201H53V197Z" fill="#C38B10"/>
<path d="M50 197H52V201H50V197Z" fill="#C38B10"/>
<path d="M50 197H52V199H50V197Z" fill="#E7A922"/>
<path d="M53 197H55V199H53V197Z" fill="#E7A922"/>
<path d="M52 198H53V199H52V198Z" fill="#E7A922"/>
<path d="M52 199H53V200H52V199Z" fill="#C38B10"/>
<path d="M38 197H40V201H38V197Z" fill="#C38B10"/>
<path d="M35 197H37V201H35V197Z" fill="#C38B10"/>
<path d="M35 197H37V199H35V197Z" fill="#E7A922"/>
<path d="M38 197H40V199H38V197Z" fill="#E7A922"/>
<path d="M37 198H38V199H37V198Z" fill="#E7A922"/>
<path d="M37 199H38V200H37V199Z" fill="#C38B10"/>
<path d="M49 183C50.1046 183 51 182.105 51 181L51 175C51 173.895 50.1046 173 49 173C47.8954 173 47 173.895 47 175L47 181C47 182.105 47.8954 183 49 183Z" fill="#E7A922"/>
<path d="M64.5001 297C67.2615 297 69.5 294.761 69.5 292L69.5 225C69.5 222.239 67.2615 220 64.5001 220C61.7387 220 59.5002 222.239 59.5002 225L59.5002 292C59.5002 294.761 61.7387 297 64.5001 297Z" fill="#E7A922"/>
<path d="M5.99989 294C8.76127 294 10.9998 291.761 10.9998 289L10.9998 222C10.9998 219.239 8.76128 217 5.9999 217C3.23852 217 0.999981 219.239 0.999981 222L0.999972 289C0.999972 291.761 3.23851 294 5.99989 294Z" fill="#E7A922"/>
<path d="M26.4999 290C29.2613 290 31.4998 287.761 31.4998 285L31.4998 218C31.4998 215.239 29.2613 213 26.4999 213C23.7385 213 21.5 215.239 21.5 218L21.5 285C21.5 287.761 23.7385 290 26.4999 290Z" fill="#E7A922"/>
<path d="M86.25 289C89.1495 289 91.5 286.65 91.5 283.75L91.5 217.25C91.5 214.35 89.1495 212 86.25 212C83.3505 212 81.0001 214.35 81.0001 217.25L81 283.75C81 286.65 83.3505 289 86.25 289Z" fill="#E7A922"/>
<path d="M115 284C117.761 284 120 281.761 120 279L120 163C120 160.239 117.761 158 115 158C112.239 158 110 160.239 110 163L110 279C110 281.761 112.239 284 115 284Z" fill="#E7A922"/>
<path d="M41 183C42.1046 183 43 182.105 43 181L43 175C43 173.895 42.1046 173 41 173C39.8954 173 39 173.895 39 175L39 181C39 182.105 39.8954 183 41 183Z" fill="#E7A922"/>
<path fill-rule="evenodd" clip-rule="evenodd" d="M26.0001 191C23.2386 191 21.0001 188.761 21.0001 186L21.0001 168C21.0001 165.239 18.7615 163 16.0001 163C13.2386 163 11.0001 165.239 11.0001 168L11.0001 186C11.0001 188.761 8.76149 191 6.00007 191C3.23864 191 1.00007 188.761 1.00006 186L1.00006 168C1.00006 159.716 7.71579 153 16.0001 153C24.2843 153 31.0001 159.716 31.0001 168L31.0001 186C31.0001 188.761 28.7615 191 26.0001 191Z" fill="#FFBE32"/>
<path fill-rule="evenodd" clip-rule="evenodd" d="M3.50006 272.5C2.11935 272.5 1.00006 273.619 1.00006 275C1.00006 283.284 7.71584 290 16.0001 290C24.2844 290 31.0001 283.284 31.0001 275C31.0001 273.619 29.8808 272.5 28.5001 272.5C27.1194 272.5 26.0001 273.619 26.0001 275C26.0001 280.523 21.523 285 16.0001 285C10.4772 285 6.00006 280.523 6.00006 275C6.00006 273.619 4.88078 272.5 3.50006 272.5Z" fill="#C38B10"/>
<path fill-rule="evenodd" clip-rule="evenodd" d="M26.0003 169C23.2388 169 21.0003 171.239 21.0002 174L21 274C21 276.761 18.7614 279 16 279C13.2386 279 11 276.761 11 274L11.0002 174C11.0003 171.239 8.76168 169 6.00026 169C3.23883 169 1.00025 171.239 1.00025 174L1.00001 274C0.999986 282.284 7.71571 289 16 289C24.2843 289 31 282.284 31 274L31.0002 174C31.0003 171.239 28.7617 169 26.0003 169Z" fill="#FFBE32"/>
<path fill-rule="evenodd" clip-rule="evenodd" d="M9.50012 250C8.67169 250 8.00012 250.672 8.00012 251.5L8.00012 273.5C8.00012 277.918 11.5818 281.5 16.0001 281.5C20.4184 281.5 24.0001 277.918 24.0001 273.5L24.0002 255.5C24.0002 254.672 23.3286 254 22.5002 254C21.6718 254 21.0002 254.672 21.0002 255.5L21.0001 273.5C21.0001 276.262 18.7615 278.5 16.0001 278.5C13.2387 278.5 11.0001 276.261 11.0001 273.5L11.0001 251.5C11.0001 250.672 10.3285 250 9.50012 250Z" fill="#FFD88F"/>
<path fill-rule="evenodd" clip-rule="evenodd" d="M3.50006 271.5C2.11935 271.5 1.00006 272.619 1.00006 274C1.00006 282.284 7.71584 289 16.0001 289C24.2844 289 31.0001 282.284 31.0001 274C31.0001 272.619 29.8808 271.5 28.5001 271.5C27.1194 271.5 26.0001 272.619 26.0001 274C26.0001 279.523 21.523 284 16.0001 284C10.4772 284 6.00006 279.523 6.00006 274C6.00006 272.619 4.88078 271.5 3.50006 271.5Z" fill="#E7A922"/>
<path d="M8.50018 193C9.8809 193 11.0002 191.881 11.0002 190.5L11.0002 176.5C11.0002 175.119 9.8809 174 8.50019 174C7.11948 174 6.00019 175.119 6.00019 176.5L6.00019 190.5C6.00019 191.881 7.11947 193 8.50018 193Z" fill="#FBCB65"/>
<path d="M23.5001 250C24.8808 250 26.0001 248.881 26.0001 247.5L26.0001 174.5C26.0001 173.119 24.8808 172 23.5001 172C22.1194 172 21.0001 173.119 21.0001 174.5L21.0001 247.5C21.0001 248.881 22.1194 250 23.5001 250Z" fill="#FBCB65"/>
<path d="M28.0001 258.5C28.0001 259.328 28.6717 260 29.5001 260C30.3286 260 31.0001 259.328 31.0001 258.5L31.0001 173.5C31.0001 172.672 30.3286 172 29.5001 172C28.6717 172 28.0001 172.672 28.0001 173.5L28.0001 258.5Z" fill="#FFD88F"/>
<path d="M1.00012 259.5C1.00012 260.328 1.6717 261 2.50013 261C3.32856 261 4.00013 260.328 4.00013 259.5L4.00014 174.5C4.00014 173.672 3.32857 173 2.50014 173C1.67171 173 1.00014 173.672 1.00014 174.5L1.00012 259.5Z" fill="#FFD88F"/>
<path fill-rule="evenodd" clip-rule="evenodd" d="M10.0001 257.5C9.72396 257.5 9.5001 257.724 9.5001 258L9.50009 263.5C9.50009 263.776 9.72395 264 10.0001 264C10.2762 264 10.5001 263.776 10.5001 263.5L10.5001 258C10.5001 257.724 10.2762 257.5 10.0001 257.5ZM10.0001 265C9.72394 265 9.50009 265.224 9.50009 265.5L9.50009 274C9.50009 277.59 12.4102 280.5 16.0001 280.5C19.5899 280.5 22.5 277.59 22.5 274L22.5 268.5C22.5 268.224 22.2761 268 22 268C21.7239 268 21.5 268.224 21.5 268.5L21.5 274C21.5 277.038 19.0376 279.5 16.0001 279.5C12.9625 279.5 10.5001 277.038 10.5001 274L10.5001 265.5C10.5001 265.224 10.2762 265 10.0001 265Z" fill="#FFF6E2"/>
<path fill-rule="evenodd" clip-rule="evenodd" d="M2.00018 201.5C1.72404 201.5 1.50018 201.724 1.50018 202L1.50018 258.5C1.50018 258.776 1.72404 259 2.00018 259C2.27632 259 2.50018 258.776 2.50018 258.5L2.50018 202C2.50018 201.724 2.27632 201.5 2.00018 201.5Z" fill="#FFF6E2"/>
<path fill-rule="evenodd" clip-rule="evenodd" d="M30.0002 195.5C29.724 195.5 29.5002 195.724 29.5002 196L29.5002 252.5C29.5002 252.776 29.724 253 30.0002 253C30.2763 253 30.5002 252.776 30.5002 252.5L30.5002 196C30.5002 195.724 30.2763 195.5 30.0002 195.5Z" fill="#FFF6E2"/>
<path fill-rule="evenodd" clip-rule="evenodd" d="M2.50007 187C1.67164 187 1.00007 186.328 1.00007 185.5L1.00007 168C1.00008 159.716 7.71581 153 16.0001 153C24.2844 153 31.0001 159.716 31.0001 168L31.0001 176.5C31.0001 177.328 30.3286 178 29.5001 178C28.6717 178 28.0001 177.328 28.0001 176.5L28.0001 168C28.0001 161.373 22.6275 156 16.0001 156C9.37267 156 4.00008 161.373 4.00007 168L4.00007 185.5C4.00007 186.328 3.3285 187 2.50007 187Z" fill="#FFD88F"/>
<path fill-rule="evenodd" clip-rule="evenodd" d="M23.5001 171.5C22.1194 171.5 21.0001 170.381 21.0001 169L21.0001 168.254C21 165.558 18.8617 163.347 16.1666 163.257C13.3414 163.163 11 165.428 11 168.254L11 168.5C11.0001 169.881 9.88079 171 8.50008 171C7.11937 171 6.00006 169.881 6.00005 168.5L6.00004 168.254C5.99998 162.601 10.6828 158.071 16.3332 158.26C21.7233 158.439 26 162.861 26.0001 168.254L26.0001 169C26.0001 170.381 24.8808 171.5 23.5001 171.5Z" fill="#E7A922"/>
<path d="M21.0001 169L26.0001 169L26.0001 184.5C26.0001 185.881 24.8808 187 23.5001 187C22.1193 187 21.0001 185.881 21.0001 184.5L21.0001 169Z" fill="#FBCB65"/>
<path d="M6.00006 169L11.0001 169L11.0001 234.5C11.0001 235.881 9.88077 237 8.50005 237C7.11934 237 6.00005 235.881 6.00005 234.5L6.00006 169Z" fill="#FBCB65"/>
<path fill-rule="evenodd" clip-rule="evenodd" d="M2 185.5C1.72385 185.5 1.5 185.276 1.5 185L1.50001 170.5C1.50001 170.224 1.72386 170 2.00001 170C2.27615 170 2.50001 170.224 2.50001 170.5L2.5 185C2.5 185.276 2.27614 185.5 2 185.5ZM30 177C29.7239 177 29.5 176.776 29.5 176.5L29.5 168C29.5 160.544 23.4558 154.5 16 154.5C8.54416 154.5 2.5 160.544 2.5 168L2.5 168.5C2.5 168.776 2.27614 169 2 169C1.72385 169 1.5 168.776 1.5 168.5L1.5 168C1.5 159.992 7.99187 153.5 16 153.5C24.0081 153.5 30.5 159.992 30.5 168L30.5 176.5C30.5 176.776 30.2761 177 30 177Z" fill="#FFF6E2"/>
<path fill-rule="evenodd" clip-rule="evenodd" d="M157.499 127.933C157.536 129.313 156.447 130.462 155.067 130.499L146.711 130.723C131.472 131.13 119.04 143.052 117.994 158.26C117.899 159.637 116.706 160.677 115.328 160.583C113.951 160.488 112.911 159.294 113.006 157.917C114.228 140.138 128.763 126.201 146.577 125.724L154.933 125.501C156.313 125.464 157.462 126.553 157.499 127.933ZM115.5 271.743C116.881 271.743 118 272.862 118 274.243V282.25C118 292.329 109.829 300.5 99.75 300.5C89.6708 300.5 81.5 292.329 81.5 282.25V278.442C81.5 277.062 82.6193 275.942 84 275.942C85.3807 275.942 86.5 277.062 86.5 278.442V282.25C86.5 289.568 92.4322 295.5 99.75 295.5C107.068 295.5 113 289.568 113 282.25V274.243C113 272.862 114.119 271.743 115.5 271.743Z" fill="#C38B10"/>
<path d="M147.5 124.5C147.5 119.806 151.306 116 156 116H157C161.694 116 165.5 119.806 165.5 124.5V125.5C165.5 130.194 161.694 134 157 134H156C151.306 134 147.5 130.194 147.5 125.5V124.5Z" fill="#FFE6C2"/>
<path d="M149.5 125C149.5 121.134 152.634 118 156.5 118C160.366 118 163.5 121.134 163.5 125C163.5 128.866 160.366 132 156.5 132C152.634 132 149.5 128.866 149.5 125Z" fill="#F2B764"/>
<path fill-rule="evenodd" clip-rule="evenodd" d="M147.5 130C131.208 130 118 143.208 118 159.5V281.25C118 291.329 109.829 299.5 99.75 299.5C89.6708 299.5 81.5 291.329 81.5 281.25V226.5C81.5 223.739 83.7386 221.5 86.5 221.5C89.2614 221.5 91.5 223.739 91.5 226.5V281.25C91.5 285.806 95.1937 289.5 99.75 289.5C104.306 289.5 108 285.806 108 281.25V159.5C108 137.685 125.685 120 147.5 120H155C157.761 120 160 122.239 160 125C160 127.761 157.761 130 155 130H147.5Z" fill="#FFBE32"/>
<path fill-rule="evenodd" clip-rule="evenodd" d="M157.499 127.433C157.536 128.814 156.447 129.962 155.067 129.999L146.625 130.224C131.435 130.629 119.04 142.512 117.994 157.672C117.899 159.049 116.705 160.089 115.328 159.994C113.951 159.899 112.911 158.705 113.006 157.328C114.229 139.598 128.726 125.7 146.492 125.226L154.933 125.001C156.314 124.964 157.462 126.053 157.499 127.433ZM115.5 270.813C116.881 270.813 118 271.932 118 273.313V281.25C118 291.329 109.829 299.5 99.75 299.5C89.6708 299.5 81.5 291.329 81.5 281.25V277.5C81.5 276.119 82.6193 275 84 275C85.3807 275 86.5 276.119 86.5 277.5V281.25C86.5 288.568 92.4322 294.5 99.75 294.5C107.068 294.5 113 288.568 113 281.25V273.313C113 271.932 114.119 270.813 115.5 270.813Z" fill="#E7A922"/>
<path fill-rule="evenodd" clip-rule="evenodd" d="M147.528 123C126.795 123 110.212 140.225 110.999 160.943C111.03 161.771 110.385 162.467 109.557 162.499C108.729 162.53 108.033 161.885 108.001 161.057C107.15 138.638 125.094 120 147.528 120L155 120C155.828 120 156.5 120.672 156.5 121.5C156.5 122.328 155.828 123 155 123L147.528 123ZM109.5 266.5C110.328 266.5 111 267.172 111 268V281.25C111 287.463 105.963 292.5 99.75 292.5C93.5368 292.5 88.5 287.463 88.5 281.25V269C88.5 268.172 89.1716 267.5 90 267.5C90.8284 267.5 91.5 268.172 91.5 269V281.25C91.5 285.806 95.1937 289.5 99.75 289.5C104.306 289.5 108 285.806 108 281.25V268C108 267.172 108.672 266.5 109.5 266.5Z" fill="#FFD88F"/>
<path fill-rule="evenodd" clip-rule="evenodd" d="M147.503 121.5C126.322 121.5 109.228 138.814 109.5 159.994C109.503 160.27 109.283 160.496 109.006 160.5C108.73 160.503 108.504 160.283 108.5 160.006C108.221 138.27 125.765 120.5 147.503 120.5H154.5C154.776 120.5 155 120.724 155 121C155 121.276 154.776 121.5 154.5 121.5H147.503ZM90.5 269.5C90.7761 269.5 91 269.724 91 270V281.75C91 286.582 94.9175 290.5 99.75 290.5C104.582 290.5 108.5 286.582 108.5 281.75V271C108.5 270.724 108.724 270.5 109 270.5C109.276 270.5 109.5 270.724 109.5 271V281.75C109.5 287.135 105.135 291.5 99.75 291.5C94.3652 291.5 90 287.135 90 281.75V270C90 269.724 90.2239 269.5 90.5 269.5Z" fill="#FFF6E2"/>
<path d="M89 267C90.3807 267 91.5 265.881 91.5 264.5L91.5 229.5C91.5 228.119 90.3807 227 89 227C87.6193 227 86.5 228.119 86.5 229.5L86.5 264.5C86.5 265.881 87.6193 267 89 267Z" fill="#FBCB65"/>
<path d="M116.5 264C117.328 264 118 263.328 118 262.5L118 164.5C118 163.672 117.328 163 116.5 163C115.672 163 115 163.672 115 164.5L115 262.5C115 263.328 115.672 264 116.5 264Z" fill="#FBCB65"/>
<path fill-rule="evenodd" clip-rule="evenodd" d="M61.4999 275.5C60.1192 275.5 58.9999 276.619 58.9999 278C58.9999 286.284 65.7157 293 74 293C82.2842 293 89 286.284 89 278C89 276.619 87.8807 275.5 86.5 275.5C85.1193 275.5 84 276.619 84 278C84 283.523 79.5228 288 74 288C68.4771 288 63.9999 283.523 63.9999 278C63.9999 276.619 62.8807 275.5 61.4999 275.5Z" fill="#C38B10"/>
<path fill-rule="evenodd" clip-rule="evenodd" d="M84 232C81.2386 232 79 229.761 79 227L79 209C79 206.239 76.7614 204 74 204C71.2386 204 69 206.239 69 209L69 227C69 229.761 66.7614 232 64 232C61.2386 232 59 229.761 59 227L59 209C59 200.716 65.7157 194 74 194C82.2843 194 89 200.716 89 209L89 227C89 229.761 86.7614 232 84 232Z" fill="#FFBE32"/>
<path fill-rule="evenodd" clip-rule="evenodd" d="M60.5 228C59.6716 228 59 227.328 59 226.5L59 209C59 200.716 65.7158 194 74 194C82.2843 194 89 200.716 89 209L89.0001 217.5C89.0001 218.328 88.3285 219 87.5001 219C86.6716 219 86.0001 218.328 86.0001 217.5L86 209C86 202.373 80.6274 197 74 197C67.3726 197 62 202.373 62 209L62 226.5C62 227.328 61.3284 228 60.5 228Z" fill="#FFD88F"/>
<path fill-rule="evenodd" clip-rule="evenodd" d="M81.5 212.5C80.1193 212.5 79 211.381 79 210L79 209.254C79 206.558 76.8616 204.347 74.1665 204.257C71.3414 204.163 68.9999 206.428 69 209.254L69 209.5C69 210.881 67.8807 212 66.5 212C65.1193 212 64 210.881 64 209.5L64 209.254C63.9999 203.601 68.6828 199.071 74.3331 199.26C79.7232 199.439 83.9999 203.861 84 209.254L84 210C84 211.381 82.8807 212.5 81.5 212.5Z" fill="#E7A922"/>
<path fill-rule="evenodd" clip-rule="evenodd" d="M59.9999 226.5C59.7238 226.5 59.4999 226.276 59.4999 226L59.4999 211.5C59.4999 211.224 59.7238 211 59.9999 211C60.2761 211 60.4999 211.224 60.4999 211.5L60.4999 226C60.4999 226.276 60.2761 226.5 59.9999 226.5ZM87.9999 218C87.7238 218 87.4999 217.776 87.4999 217.5L87.4999 209C87.4999 201.544 81.4558 195.5 73.9999 195.5C66.5441 195.5 60.4999 201.544 60.4999 209L60.4999 209.5C60.4999 209.776 60.2761 210 59.9999 210C59.7238 210 59.4999 209.776 59.4999 209.5L59.4999 209C59.4999 200.992 65.9918 194.5 73.9999 194.5C82.008 194.5 88.4999 200.992 88.4999 209L88.4999 217.5C88.4999 217.776 88.2761 218 87.9999 218Z" fill="#FFF6E2"/>
<path fill-rule="evenodd" clip-rule="evenodd" d="M84.0001 220C81.2387 220 79.0001 222.239 79.0001 225L78.9999 277C78.9999 279.761 76.7614 282 74 282C71.2386 282 69.0001 279.761 69.0001 277L69.0001 225C69.0001 222.239 66.7615 220 64.0001 220C61.2387 220 59.0001 222.239 59.0001 225L59.0001 277C59.0001 285.284 65.7158 292 74 292C82.2842 292 88.9999 285.284 88.9999 277L89.0001 225C89.0001 222.239 86.7616 220 84.0001 220Z" fill="#FFBE32"/>
<path fill-rule="evenodd" clip-rule="evenodd" d="M67.5001 253C66.6716 253 66.0001 253.672 66.0001 254.5L66.0001 276.5C66.0001 280.918 69.5818 284.5 74.0001 284.5C78.4183 284.5 82 280.918 82.0001 276.5L82.0001 258.5C82.0001 257.672 81.3286 257 80.5001 257C79.6717 257 79.0001 257.672 79.0001 258.5L79.0001 276.5C79.0001 279.262 76.7615 281.5 74.0001 281.5C71.2386 281.5 69.0001 279.261 69.0001 276.5L69.0001 254.5C69.0001 253.672 68.3285 253 67.5001 253Z" fill="#FFD88F"/>
<path fill-rule="evenodd" clip-rule="evenodd" d="M61.4999 274.5C60.1192 274.5 58.9999 275.619 58.9999 277C58.9999 285.284 65.7157 292 74 292C82.2842 292 89 285.284 89 277C89 275.619 87.8807 274.5 86.5 274.5C85.1193 274.5 84 275.619 84 277C84 282.523 79.5228 287 74 287C68.4771 287 63.9999 282.523 63.9999 277C63.9999 275.619 62.8807 274.5 61.4999 274.5Z" fill="#E7A922"/>
<path d="M66.5 250C67.8807 250 69 248.881 69 247.5L69 209L64 209L64 247.5C64 248.881 65.1193 250 66.5 250Z" fill="#FBCB65"/>
<path d="M81.5 253C82.8807 253 84 251.881 84 250.5L84.0001 209L79.0001 209L79.0001 250.5C79.0001 251.881 80.1193 253 81.5 253Z" fill="#FBCB65"/>
<path d="M86 261.5C86 262.328 86.6716 263 87.5 263C88.3284 263 89 262.328 89 261.5L89 222C89 221.172 88.3284 220.5 87.5 220.5C86.6716 220.5 86 221.172 86 222L86 261.5Z" fill="#FFD88F"/>
<path d="M59 262.5C59 263.328 59.6716 264 60.5 264C61.3284 264 62 263.328 62 262.5L62 221C62 220.172 61.3284 219.5 60.5 219.5C59.6716 219.5 59 220.172 59 221L59 262.5Z" fill="#FFD88F"/>
<path fill-rule="evenodd" clip-rule="evenodd" d="M68 260.5C67.7239 260.5 67.5 260.724 67.5 261L67.5 266.5C67.5 266.776 67.7239 267 68 267C68.2762 267 68.5 266.776 68.5 266.5L68.5 261C68.5 260.724 68.2762 260.5 68 260.5ZM68 268C67.7239 268 67.5 268.224 67.5 268.5L67.5 277C67.5 280.59 70.4102 283.5 74 283.5C77.5898 283.5 80.4999 280.59 80.4999 277L80.4999 271.5C80.4999 271.224 80.2761 271 79.9999 271C79.7238 271 79.4999 271.224 79.4999 271.5L79.4999 277C79.4999 280.038 77.0375 282.5 74 282.5C70.9625 282.5 68.5 280.038 68.5 277L68.5 268.5C68.5 268.224 68.2762 268 68 268Z" fill="#FFF6E2"/>
<path fill-rule="evenodd" clip-rule="evenodd" d="M60.0001 219.5C59.7239 219.5 59.5001 219.724 59.5001 220L59.5001 261.5C59.5001 261.776 59.7239 262 60.0001 262C60.2762 262 60.5001 261.776 60.5001 261.5L60.5001 220C60.5001 219.724 60.2762 219.5 60.0001 219.5Z" fill="#FFF6E2"/>
<path fill-rule="evenodd" clip-rule="evenodd" d="M88.0001 221C87.7239 221 87.5001 221.224 87.5001 221.5L87.5001 255.5C87.5001 255.776 87.7239 256 88.0001 256C88.2762 256 88.5001 255.776 88.5001 255.5L88.5001 221.5C88.5001 221.224 88.2762 221 88.0001 221Z" fill="#FFF6E2"/>
</svg>
