<svg width="769" height="327" viewBox="0 0 769 327" fill="none" xmlns="http://www.w3.org/2000/svg">
<path d="M730.382 238.104C713.97 238.104 703.03 231.825 697.559 219.268C692.089 206.587 689.354 193.035 689.354 178.613C689.354 164.688 691.467 153.561 695.694 145.231C699.921 136.777 705.019 130.871 710.987 127.514C717.079 124.157 723.171 122.479 729.263 122.479C740.701 122.479 749.341 125.525 755.185 131.617C761.028 137.585 764.758 144.734 766.374 153.064C767.991 161.269 768.799 170.532 768.799 180.851C768.799 189.181 767.369 197.821 764.509 206.773C761.774 215.6 757.485 223.06 751.642 229.152C745.922 235.12 738.836 238.104 730.382 238.104ZM729.076 201.924C733.179 201.924 736.163 199.997 738.028 196.143C740.017 192.289 741.012 187.627 741.012 182.156C741.012 175.07 740.079 170.096 738.214 167.237C736.474 164.253 733.801 162.761 730.195 162.761C722.487 162.761 718.633 169.723 718.633 183.648C718.633 188.87 719.316 193.221 720.684 196.703C722.052 200.184 724.849 201.924 729.076 201.924Z" />
<path d="M623.39 234.374C622.644 234.374 620.531 234.249 617.05 234.001C613.693 233.628 610.709 233.441 608.098 233.441C606.109 233.441 603.622 233.565 600.638 233.814L596.722 234.001C594.857 234.001 593.925 233.255 593.925 231.763L594.111 228.219L593.738 214.232C593.614 209.011 593.427 202.484 593.179 194.651C593.054 186.818 593.054 182.094 593.179 180.478C593.303 179.483 593.365 175.94 593.365 169.848V162.947C593.241 159.093 593.303 152.69 593.552 143.739L593.738 127.887C593.738 123.784 593.614 118.625 593.365 112.408C593.117 109.549 592.992 105.943 592.992 101.592L592.806 98.4215C592.806 97.0539 593.117 96.3079 593.738 96.1836C594.484 96.0593 595.292 96.0593 596.163 96.1836C597.157 96.1836 598.152 96.1836 599.146 96.1836C600.638 96.3079 603.187 96.3701 606.793 96.3701C610.771 96.3701 613.693 96.3079 615.558 96.1836C616.801 96.1836 618.044 96.1836 619.287 96.1836C620.655 96.0593 621.774 96.0593 622.644 96.1836C623.017 96.1836 623.328 96.4322 623.577 96.9295C623.95 97.3025 624.136 97.6133 624.136 97.862L623.763 101.032L624.323 111.103L624.136 126.022L624.509 127.514C630.974 124.157 637.439 122.479 643.904 122.479C649.25 122.479 653.54 123.225 656.772 124.717C660.129 126.209 663.175 129.13 665.91 133.482C668.77 138.082 670.759 142.496 671.878 146.723C672.5 149.707 672.81 153.436 672.81 157.912L673.183 164.812C673.929 175.256 674.302 182.778 674.302 187.378C674.302 190.237 674.178 193.656 673.929 197.635L673.743 203.603C673.743 204.473 673.681 206.773 673.556 210.503C673.556 214.108 673.556 220.262 673.556 228.965C673.556 229.587 673.619 230.146 673.743 230.644C673.867 231.141 673.929 231.701 673.929 232.322C673.929 233.192 673.308 233.69 672.064 233.814C670.821 233.938 667.899 234.001 663.299 234.001C655.964 234.001 650.867 233.938 648.007 233.814C647.137 233.814 646.142 233.876 645.023 234.001C643.904 234.249 642.972 234.374 642.226 234.374C641.356 234.249 640.92 233.752 640.92 232.882C640.423 228.654 640.174 219.268 640.174 204.721L640.361 191.294C640.61 184.829 640.734 179.918 640.734 176.561C640.734 170.594 640.174 166.118 639.055 163.134C638.061 160.026 635.947 158.472 632.715 158.472C631.223 158.472 629.98 158.658 628.985 159.031C627.99 159.28 626.934 159.777 625.815 160.523L626.001 197.075C626.374 207.146 626.561 214.481 626.561 219.081C626.561 224.054 626.436 227.536 626.188 229.525V230.084C626.188 230.582 626.25 231.141 626.374 231.763C626.498 232.384 626.498 232.819 626.374 233.068C626.374 233.938 625.379 234.374 623.39 234.374Z" />
<path d="M499.615 234.001C498.869 234.001 498.309 233.814 497.936 233.441C497.687 233.068 497.563 232.447 497.563 231.576L497.377 221.133C496.755 196.889 496.506 182.902 496.631 179.172V125.09C496.631 123.349 497.439 122.479 499.055 122.479H502.412L506.515 122.666C507.509 122.666 508.007 123.722 508.007 125.836L507.82 132.55L513.415 129.752C518.264 127.39 522.553 125.649 526.283 124.53C530.137 123.287 534.986 122.666 540.829 122.666C546.548 122.666 551.273 123.598 555.002 125.463C558.857 127.203 562.4 130.312 565.632 134.787C569.114 139.015 570.854 148.215 570.854 162.388L571.041 194.838L570.854 206.027C570.606 213.984 570.481 219.827 570.481 223.557C570.481 226.79 570.543 228.717 570.668 229.338C570.916 230.582 571.041 231.266 571.041 231.39C571.041 232.136 570.854 232.695 570.481 233.068C570.233 233.317 569.735 233.503 568.989 233.628C567.995 233.876 566.378 234.001 564.14 234.001C562.027 234.001 554.549 234.001 554.051 234.001C553.181 234.001 552.622 233.752 552.373 233.255C552.124 232.757 552 231.576 552 229.711L552.746 198.754L553.119 181.41L553.305 168.356C553.305 156.918 552.497 157.958 550.881 154.477C549.265 151.244 550 151 548 150C546.757 148.384 543.738 149.122 541.5 148.5C539.386 147.754 539.103 148.5 535 148.5C530.027 148.5 529.47 148.886 524 151C518.654 153.114 521.481 150.561 518 153.171C518 162.993 518.062 163.072 518.186 170.407V196.143C518.435 202.359 518.622 208.949 518.746 215.911C518.87 222.873 518.932 227.909 518.932 231.017C518.932 232.012 518.622 232.757 518 233.255C517.503 233.752 516.446 234.001 514.83 234.001H499.615Z" />
<path d="M463.722 116.512C460.365 116.512 457.257 115.206 454.398 112.595C451.538 109.984 450.108 106.752 450.108 102.898C450.108 99.5408 451.352 96.557 453.838 93.9461C456.325 91.2109 459.309 89.8433 462.79 89.8433C466.893 89.8433 470.56 90.9 473.793 93.0136C477.025 95.1272 478.642 98.0489 478.642 101.779C478.642 104.887 477.833 107.56 476.217 109.798C474.601 112.036 472.612 113.714 470.249 114.833C468.012 115.952 465.836 116.512 463.722 116.512ZM446.938 235.493C445.197 235.617 444.079 235.306 443.581 234.56C443.208 233.814 442.96 232.571 442.835 230.831C442.587 229.96 442.711 227.971 443.208 224.863C443.208 224.117 443.27 223.06 443.395 221.693C443.643 220.201 443.768 218.895 443.768 217.776C443.768 216.906 444.203 209.944 445.073 196.889C445.197 193.408 445.384 190.3 445.633 187.565C445.881 184.829 446.006 182.716 446.006 181.224L446.379 166.118L446.752 152.131L447.125 143.739L447.498 138.331V131.804C447.498 129.566 447.808 128.012 448.43 127.142C449.052 126.271 449.922 125.836 451.041 125.836C451.538 125.836 451.973 125.898 452.346 126.023C453.465 126.147 454.709 126.209 456.076 126.209C457.568 126.085 458.936 126.023 460.179 126.023H466.147C470.125 126.023 472.736 126.085 473.979 126.209C475.347 126.333 476.279 126.582 476.777 126.955C477.398 127.328 477.709 127.887 477.709 128.633C477.709 129.255 477.647 129.877 477.523 130.498C477.398 130.996 477.274 131.493 477.15 131.99C475.906 139.823 475.223 148.774 475.098 158.845C474.974 161.58 474.912 165.683 474.912 171.153L475.098 189.803C475.223 191.294 475.285 192.849 475.285 194.465L475.471 200.619C475.72 205.841 475.844 209.819 475.844 212.554C475.844 214.419 475.782 215.601 475.658 216.098C475.533 216.471 475.471 217.652 475.471 219.641L475.658 227.847C475.782 229.214 475.844 230.831 475.844 232.696C475.969 234.809 474.228 235.742 470.622 235.493H446.938Z" />
<path d="M408.208 234.747C402.24 234.747 397.764 234.063 394.78 232.695C391.921 231.203 389.994 229.152 388.999 226.541C388.129 223.806 387.694 220.2 387.694 215.725L387.88 203.789C388.005 201.676 388.067 198.132 388.067 193.159L387.88 171.34C387.756 169.475 387.694 167.486 387.694 165.372C387.569 163.01 387.507 160.399 387.507 157.539C387.632 154.556 387.694 151.82 387.694 149.334V139.263V133.482H380.607C379.985 133.482 379.55 133.358 379.302 133.109C379.053 132.86 378.929 132.674 378.929 132.55C378.804 131.555 378.742 130.374 378.742 129.006C378.742 128.012 378.867 126.893 379.115 125.649H387.694L387.88 124.344L388.067 117.257V109.238C387.942 106.254 388.129 104.265 388.626 103.27C389.248 102.152 390.118 101.592 391.237 101.592C391.859 101.592 392.356 101.654 392.729 101.779C393.724 101.903 394.78 101.965 395.899 101.965C397.143 101.841 398.262 101.779 399.256 101.779H403.918C407.151 101.779 409.389 101.841 410.632 101.965C412 102.089 412.932 102.4 413.43 102.897C414.051 103.395 414.362 104.141 414.362 105.135C414.362 105.508 414.238 106.938 413.989 109.425C413.865 110.171 413.616 111.911 413.243 114.646C412.994 117.257 412.746 120.801 412.497 125.276L426.67 125.463H427.603C429.343 125.463 430.276 125.836 430.4 126.582L430.773 130.125C430.898 130.995 430.96 131.244 430.96 130.871C431.084 130.498 431.146 130.623 431.146 131.244C431.146 131.741 430.96 132.177 430.587 132.55C430.338 132.923 430.027 133.109 429.654 133.109L425.365 133.296C421.262 133.669 416.973 133.855 412.497 133.855V134.601V140.382V152.691C412.621 155.799 412.684 160.15 412.684 165.745L412.497 182.156L412.87 189.616C413.243 198.567 413.43 203.105 413.43 203.23V206.96C413.43 209.446 413.74 211.249 414.362 212.368C415.108 213.362 416.165 213.86 417.532 213.86C420.641 213.86 422.816 213.798 424.06 213.673C425.303 213.425 426.36 213.3 427.23 213.3C427.727 213.3 428.162 213.86 428.535 214.979C428.908 216.098 429.157 216.968 429.281 217.59L430.773 222.998C431.271 224.863 431.892 226.417 432.638 227.66C432.762 227.784 432.825 227.971 432.825 228.22C432.825 228.717 432.514 229.276 431.892 229.898C428.535 232.012 425.178 233.379 421.822 234.001C418.465 234.498 413.927 234.747 408.208 234.747Z" />
<path d="M313.281 236.052C304.206 236.052 296.932 234.25 291.462 230.644C285.992 227.039 283.256 220.636 283.256 211.435C283.878 205.468 283.256 183.606 291.462 180.746C299.668 177.887 312.743 174.992 322.938 174.992C326.17 174.992 330.024 174.743 334.5 174.246C338.976 173.749 344.239 183 347.969 183C347.471 169.573 346.585 174.075 345.342 166.491C344.223 158.783 342.233 153.002 339.374 149.147C336.639 145.293 333.597 143.5 328.5 143.5C324.77 143.5 320.352 144.236 316.995 145.977C313.638 147.718 309.473 150.453 304.5 154.183C300.397 157.167 298.5 155 298.5 155C298.376 155 298 155 297 154.5C296.378 154.873 295.813 154.307 295.192 154.183C294.073 153.934 293.513 153.375 293.513 152.504C293.016 151.758 292.394 150.08 291.648 147.469C291.027 144.858 290.716 142.993 290.716 141.874C290.716 141.128 291.462 140.258 292.954 139.263C299.295 134.539 304.641 131.058 308.992 128.82C313.468 126.458 317.26 124.966 320.368 124.344C323.601 123.722 327.33 123.412 331.558 123.412C343.99 123.412 352.32 127.452 356.547 135.534C360.899 143.491 363.075 154.121 363.075 167.424C363.075 170.905 362.95 175.629 362.702 181.597C362.702 185.202 362.453 190.486 361.956 197.449L361.769 201.924L361.956 212.927C362.204 217.9 362.329 221.692 362.329 224.303L362.142 229.898C361.893 232.758 360.775 234.187 358.785 234.187L357.293 234.001H349.647C349.15 234.001 348.653 233.814 348.155 233.441C347.782 232.944 347.596 232.385 347.596 231.763V230.271C340.136 232.385 334.168 233.877 329.693 234.747C325.217 235.617 319.746 236.052 313.281 236.052ZM313.468 217.074C326.771 217.074 338.147 209.987 347.596 205.511L348.155 201.365C345.358 192.27 337.277 192.27 333.049 192.27L322.046 192.457C316.079 192.457 310.733 193.638 306.008 196C301.284 198.238 298.735 201.408 298.362 205.511C298.362 209.987 299.419 213.033 301.532 214.649C303.646 216.266 307.625 217.074 313.468 217.074Z" />
<path d="M197.828 236.985C196.211 236.985 195.092 236.674 194.471 236.052C193.974 235.431 193.725 234.374 193.725 232.882L193.911 228.593L193.538 217.776C192.792 204.846 192.419 193.594 192.419 184.021C192.419 179.048 192.606 175.629 192.979 173.764C193.601 170.656 193.911 161.891 193.911 147.469C193.911 132.425 193.663 121.049 193.165 113.341C193.041 112.346 192.979 110.979 192.979 109.238C192.979 107.249 193.165 105.819 193.538 104.949C193.911 104.079 194.284 103.643 194.657 103.643C195.155 103.519 195.963 103.457 197.082 103.457L201.185 103.084C209.763 102.089 216.601 101.592 221.699 101.592C235.623 101.592 246.067 105.198 253.029 112.409C260.116 119.495 263.659 128.758 263.659 140.196C263.659 149.272 260.737 157.975 254.894 166.304C252.407 169.91 249.548 173.142 246.315 176.002L259.37 199.686C268.943 216.844 274.538 226.541 276.154 228.779C277.895 231.514 278.765 233.317 278.765 234.187C278.765 234.685 278.454 234.995 277.832 235.12C277.211 235.244 276.651 235.306 276.154 235.306C275.781 235.306 275.47 235.306 275.222 235.306L254.148 235.866C253.153 235.866 252.345 235.431 251.724 234.56C251.226 233.69 250.48 232.136 249.486 229.898C248.864 228.033 247.745 225.547 246.129 222.438C243.642 217.963 239.353 209.57 233.261 197.262L223.75 178.799L224.309 188.683L225.242 202.857C225.988 219.517 226.609 228.717 227.107 230.457C227.231 230.955 227.293 231.576 227.293 232.322C227.293 234.56 226.112 235.679 223.75 235.679C223.004 235.679 222.382 235.617 221.885 235.493C219.896 235.244 215.047 235.493 207.339 236.239C202.117 236.736 198.947 236.985 197.828 236.985ZM222.631 153.996C224.496 153.996 226.174 153.623 227.666 152.877C231.147 151.261 232.888 147.966 232.888 142.993C232.888 139.388 232.329 136.715 231.21 134.974C230.091 133.233 228.661 132.363 226.92 132.363C225.553 132.363 224.372 132.86 223.377 133.855C223.253 133.979 223.253 134.85 223.377 136.466C223.501 138.082 223.563 139.698 223.563 141.315C223.563 142.682 223.501 143.677 223.377 144.299C222.88 146.412 222.631 148.588 222.631 150.826L222.445 152.504L222.631 153.996Z" />
<path d="M160.885 236.239C157.155 236.239 153.985 234.995 151.374 232.509C148.763 229.898 147.458 226.168 147.458 221.319C147.458 216.346 148.701 212.989 151.187 211.249C153.798 209.508 157.031 208.638 160.885 208.638C170.334 208.638 175.058 214.171 175.058 225.236C175.058 228.22 173.566 230.83 170.582 233.068C167.723 235.182 164.49 236.239 160.885 236.239Z" />
<path fill-rule="evenodd" clip-rule="evenodd" d="M36.9789 311.403C48.0249 321.416 63.6735 326.423 83.9245 326.423C122.586 326.423 141.916 293.931 141.916 228.949V219.141C141.916 217.71 141.814 216.178 141.609 214.543C141.609 212.704 141.712 211.069 141.916 209.639L142.53 10.4217C142.734 6.13038 142.428 3.47388 141.609 2.45215C140.791 1.22608 138.643 0.510871 135.166 0.306515C134.143 0.102172 132.507 0 130.256 0C128.006 0 125.552 0.204351 122.892 0.613049C120.233 0.817393 118.29 1.02174 117.063 1.22608C114.403 1.22608 112.358 1.94129 110.926 3.37172C109.494 4.59779 108.983 7.76515 109.392 12.8738L109.085 42.6061C109.085 49.9626 109.289 56.706 109.699 62.8364L108.864 235.084C107.664 233.006 106.401 230.995 105.076 229.048C97.5446 217.981 89.9181 208.636 82.1967 201.014C74.3846 193.259 65.1691 188.313 54.5502 186.175C43.8407 183.903 32.356 186.939 20.0961 195.282C13.5664 199.725 8.2617 205.969 4.18204 214.013C0.235639 221.966 -0.917743 232.018 0.721938 244.169C1.95224 253.714 6.82397 263.397 12.7851 275.245C14.329 278.314 15.9459 281.527 17.5916 284.922C17.7543 285.161 17.9179 285.397 18.0824 285.631C22.0459 294.675 28.3448 303.266 36.9789 311.403Z" />
</svg>
