<?xml version="1.0" encoding="UTF-8" standalone="no"?>
<!-- Created with Inkscape (http://www.inkscape.org/) -->

<svg
   viewBox="0 0 256 108"
   version="1.1"
   id="svg1"
   xml:space="preserve"
   inkscape:version="1.4 (e7c3feb100, 2024-10-09)"
   sodipodi:docname="marca.svg"
   width="256"
   height="108"
   xmlns:inkscape="http://www.inkscape.org/namespaces/inkscape"
   xmlns:sodipodi="http://sodipodi.sourceforge.net/DTD/sodipodi-0.dtd"
   xmlns="http://www.w3.org/2000/svg"
   xmlns:svg="http://www.w3.org/2000/svg"><sodipodi:namedview
     id="namedview1"
     pagecolor="#ffffff"
     bordercolor="#000000"
     borderopacity="0.25"
     inkscape:showpageshadow="2"
     inkscape:pageopacity="0.0"
     inkscape:pagecheckerboard="0"
     inkscape:deskcolor="#333333"
     inkscape:document-units="mm"
     inkscape:zoom="0.70710678"
     inkscape:cx="55.861436"
     inkscape:cy="71.417785"
     inkscape:window-width="1366"
     inkscape:window-height="750"
     inkscape:window-x="0"
     inkscape:window-y="18"
     inkscape:window-maximized="1"
     inkscape:current-layer="layer1" /><defs
     id="defs1" /><g
     inkscape:label="Layer 1"
     inkscape:groupmode="layer"
     id="layer1"
     transform="translate(-3.7971924,-186.41565)"><g
       id="g65"
       transform="matrix(1.2500661,0,0,1.2503632,-0.94954917,-46.671617)"
       style="stroke-width:0.799863"><path
         style="fill:#aea434;fill-opacity:1;stroke-width:0.799863"
         d="m 125.9418,217.05076 c -1.87911,-0.74931 -2.71503,-2.72152 -1.97492,-4.65949 0.5684,-1.48831 1.6483,-2.18469 3.39001,-2.18603 3.33487,-0.003 5.05198,2.40718 3.58067,5.02503 -0.97617,1.73686 -3.186,2.54214 -4.99576,1.82049 z"
         id="path13" /><path
         style="fill:#af7a5d;fill-opacity:1;stroke-width:0.799863"
         d="m 136.14071,240.30066 c -0.0993,-4.40201 -0.14272,-11.03974 -0.0965,-14.75052 l 0.0839,-6.74688 h 1.45521 1.45521 l 0.0797,1.2333 0.0797,1.2333 1.90469,-0.87712 c 2.72654,-1.25559 3.97453,-1.54588 6.66719,-1.55082 2.97837,-0.005 4.6766,0.6546 6.23281,2.42254 1.91526,2.17585 1.96927,2.60185 1.96927,15.53047 v 11.37708 l -2.59466,0.0759 -2.59467,0.0759 0.18677,-9.86549 c 0.18478,-9.76034 0.1807,-9.87739 -0.38276,-10.98113 -0.31324,-0.6136 -0.79944,-1.23867 -1.08044,-1.38906 -0.81844,-0.43802 -3.97217,-0.31101 -5.70507,0.22976 l -1.5875,0.49539 -0.0691,10.7455 -0.0691,10.7455 h -2.87705 -2.87706 z"
         id="path12" /><path
         style="fill:#865033;fill-opacity:1;stroke-width:0.799863"
         d="m 165.63376,248.37075 c -1.81649,-0.0461 -3.40745,-0.18847 -3.53547,-0.31649 -0.12855,-0.12855 -0.25196,-8.2982 -0.27564,-18.24761 l -0.0429,-18.01485 h 4.17366 4.17366 l 0.0551,1.91823 c 0.0303,1.05503 0.0172,2.85735 -0.0291,4.00516 -0.0959,2.37657 -0.37528,2.23271 2.61985,1.34889 1.99762,-0.58948 4.89957,-0.3869 6.39312,0.44629 1.2651,0.70574 2.59999,2.51016 3.34479,4.52127 0.73633,1.98824 1.12193,9.31968 0.92434,17.57428 l -0.1595,6.66308 -4.25918,0.0864 c -2.34256,0.0475 -4.34849,0.0484 -4.45763,0.002 -0.10914,-0.0464 -0.20516,-4.03612 -0.21337,-8.8661 -0.0103,-6.07722 -0.11219,-9.06523 -0.33073,-9.70214 -0.37678,-1.09812 -1.3799,-1.56915 -2.49861,-1.17327 l -0.7276,0.25749 0.0597,9.63767 c 0.0638,10.29343 0.0875,10.1041 -1.25036,9.99659 -0.3638,-0.0292 -2.14767,-0.0908 -3.96415,-0.13688 z"
         id="path11" /><path
         style="fill:#af7a5d;fill-opacity:1;stroke-width:0.799863"
         d="m 109.78663,248.31795 c -1.20133,-0.36453 -1.82262,-0.80662 -2.22378,-1.58239 -0.32785,-0.63399 -0.40133,-2.74986 -0.44537,-12.82445 l -0.0528,-12.06519 h -1.14486 -1.14487 v -1.19063 -1.19062 h 1.19062 1.19063 v -2.87802 c 0,-1.98756 0.10233,-2.95835 0.33073,-3.13765 0.36931,-0.28992 6.07408,-0.23062 6.55753,0.0682 0.29457,0.18206 0.16125,4.28677 -0.17814,5.48449 -0.11802,0.41652 0.10921,0.46302 2.26284,0.46302 2.31213,0 2.39954,0.0219 2.5548,0.64053 0.36953,1.47229 0.17873,1.60212 -2.47585,1.6846 l -2.45141,0.0762 0.14529,9.94038 c 0.0863,5.90759 0.25399,10.14349 0.41322,10.44102 0.21978,0.41065 0.57072,0.50064 1.9524,0.50064 h 1.68446 l 0.67375,2.05052 0.67374,2.05052 -0.63342,0.57033 c -0.34838,0.31367 -1.24103,0.70063 -1.98366,0.85989 -1.52277,0.32658 -5.86684,0.35095 -6.8959,0.0387 z"
         id="path10" /><path
         style="fill:#aea434;fill-opacity:1;stroke-width:0.799863"
         d="m 121.9743,248.43821 c -0.26146,-0.31504 -0.24084,-1.72398 0.10161,-6.94531 0.23629,-3.60256 0.5535,-9.8835 0.70492,-13.95765 0.15142,-4.07415 0.36835,-7.50059 0.48207,-7.61431 0.11372,-0.11372 1.92382,-0.17361 4.02245,-0.13308 l 3.81569,0.0737 -0.0282,0.79375 c -0.0155,0.43657 -0.17067,2.46063 -0.3448,4.49792 -0.22117,2.58758 -0.26061,6.6431 -0.13085,13.45379 0.15645,8.21131 0.12736,9.7866 -0.18436,9.98397 -0.20357,0.12889 -2.11172,0.23617 -4.24033,0.2384 -3.11374,0.003 -3.93432,-0.0732 -4.1982,-0.39116 z"
         id="path9" /><path
         id="path7"
         style="fill:#2c59ef;fill-opacity:1;stroke-width:0.799863"
         d="m 91.942708,219.08017 c -3.466403,0.0145 -4.454412,0.35198 -8.269779,2.8236 l -2.505274,1.62264 0.157614,1.14876 c 0.261074,1.90474 0.790349,2.65192 2.026749,2.86081 0.986758,0.16671 1.23847,0.075 2.960026,-1.08004 2.364848,-1.58664 3.670719,-2.04809 5.349545,-1.89032 2.266837,0.21302 3.22601,1.76065 4.380611,7.06985 0.174056,0.80037 0.275519,1.80338 0.225309,2.22881 l -0.09147,0.77359 -1.272791,-1.10432 c -1.428715,-1.23944 -1.296832,-1.22047 -6.003251,-0.85576 -3.076438,0.2384 -7.227553,1.12608 -7.914246,1.6924 -0.798231,0.6583 -1.353064,2.54564 -1.580782,5.37848 -0.442436,5.50399 0.396538,7.31627 3.978052,8.59483 1.919426,0.68521 7.842343,0.53866 10.790039,-0.26717 1.6618,-0.4543 2.009386,-0.48067 2.248958,-0.17001 0.172543,0.22373 0.890982,0.39293 1.837614,0.43253 2.266728,0.0948 2.374158,-0.11741 2.186438,-4.31395 -0.0825,-1.8442 -0.0337,-5.68352 0.108,-8.5323 0.48435,-9.73992 -0.643803,-13.94149 -4.2137,-15.69465 -1.35707,-0.6664 -1.742116,-0.72888 -4.397665,-0.71778 z m 0.472323,18.39319 c 1.446972,4e-5 2.029028,0.0998 2.530595,0.35915 0.930901,0.48139 1.706565,1.75591 1.459859,2.39882 -0.196021,0.51082 -3.111743,2.0188 -5.285982,2.7342 -3.028759,0.99656 -6.12492,0.90667 -7.024378,-0.20412 -0.692848,-0.85562 -0.649005,-2.64949 0.08372,-3.43597 1.195274,-1.28298 2.729942,-1.71511 6.47144,-1.82107 0.703543,-0.0199 1.282426,-0.031 1.76475,-0.031 z" /><path
         id="path5"
         style="fill:#f1474a;fill-opacity:1;stroke-width:0.799863"
         d="m 62.168298,213.22213 c -0.971894,0.0165 -2.023514,0.0833 -3.166215,0.1974 l -3.571875,0.35657 -0.179317,11.1125 c -0.170537,10.57995 -0.06886,22.31051 0.204639,23.63421 l 0.127124,0.61547 4.28966,-0.18913 c 2.634939,-0.11612 4.369578,-0.30252 4.497917,-0.48318 0.11491,-0.16176 0.147537,-0.82982 0.07235,-1.48466 -0.236832,-2.06274 -0.741432,-11.93067 -0.6165,-12.0556 0.06565,-0.0657 1.715746,3.03419 3.66696,6.88899 l 3.547587,7.00887 3.307292,0.001 c 1.819011,4.6e-4 3.473051,-0.1042 3.675744,-0.23255 0.302797,-0.19174 0.250215,-0.43871 -0.296106,-1.38493 -2.541133,-4.40122 -6.675288,-11.69771 -7.267773,-12.82712 l -0.711585,-1.35651 1.118278,-1.27072 c 1.477546,-1.67858 2.8998,-4.61538 3.22771,-6.66368 0.54095,-3.37907 -0.585257,-7.00422 -2.814298,-9.05888 -2.182063,-2.01136 -4.900046,-2.8797 -9.111589,-2.80809 z m 2.076359,8.35918 c 1.484802,0 2.118931,3.27064 0.888318,4.58163 -0.338915,0.36106 -0.907937,0.71221 -1.264005,0.78031 l -0.646989,0.12351 0.160197,-2.41174 c 0.195027,-2.92813 0.236228,-3.07371 0.862479,-3.07371 z" /><path
         style="fill:#2c59ef;fill-opacity:1;stroke-width:0.799863"
         d="m 45.632345,248.82521 c -1.714554,-0.5163 -2.50526,-1.79493 -2.50526,-4.05119 0,-1.62325 0.486619,-2.45386 1.745873,-2.98001 2.003371,-0.83706 4.37842,-0.15952 5.199028,1.48316 0.579095,1.15922 0.605983,3.3829 0.0505,4.17597 -0.815756,1.16466 -2.981349,1.8264 -4.490137,1.37207 z"
         id="path4" /><path
         id="path2"
         style="fill:#ffc000;fill-opacity:1;stroke-width:0.799863"
         d="m 198.30521,218.82902 c -1.83585,0.008 -2.73456,0.14848 -3.92379,0.61443 -2.92232,1.14497 -5.34672,4.33815 -6.44405,8.48786 -0.65559,2.47906 -0.64777,8.65813 0.0145,11.50937 1.36745,5.88745 3.10702,8.36722 6.66315,9.49813 0.90886,0.28908 2.07734,0.39216 3.82251,0.33796 3.06472,-0.0951 4.08197,-0.55078 6.05906,-2.71404 1.65091,-1.80636 2.42818,-3.27335 3.37964,-6.37946 0.65328,-2.13277 0.71303,-2.70016 0.71003,-6.69571 -0.006,-6.80237 -0.91679,-9.87613 -3.67522,-12.39718 -1.89282,-1.72993 -3.48445,-2.27476 -6.6058,-2.26136 z m 0.0553,10.72596 c 1.65377,-0.0539 2.71973,1.76567 2.71973,4.85862 0,2.02421 -0.37033,3.34626 -1.22111,4.35736 -0.55669,0.66158 -0.87196,0.80201 -1.80093,0.80201 -1.90551,0 -2.58058,-1.26623 -2.57658,-4.83329 0.003,-2.77866 0.63889,-4.43486 1.90272,-4.95836 0.34351,-0.14228 0.66992,-0.21637 0.97617,-0.22634 z" /><path
         style="fill:#ffc000;fill-opacity:1;stroke-width:0.799863"
         d="m 23.186248,272.63279 c -4.304214,-0.47953 -7.296186,-1.80553 -10.049568,-4.45384 -1.001109,-0.96291 -2.267509,-2.40628 -2.814222,-3.2075 -1.386184,-2.03147 -4.9067149,-9.13705 -5.6695433,-11.44297 -2.5995705,-7.85815 0.8567289,-14.95716 8.5609573,-17.58363 3.828062,-1.30504 8.15906,-0.27569 11.884388,2.82456 1.595674,1.32793 4.90367,5.19697 6.655778,7.78462 l 1.054297,1.55706 0.06615,-16.10915 c 0.03638,-8.86003 0.02477,-22.10078 -0.0258,-29.42389 -0.05057,-7.32311 -0.01524,-13.72362 0.07851,-14.22336 0.246812,-1.31562 0.955012,-1.64208 4.015667,-1.8511 3.326126,-0.22716 4.540016,-0.0309 4.849929,0.78427 0.129008,0.33931 0.136208,15.1154 0.01647,33.78629 -0.204696,31.91696 -0.233652,33.29429 -0.758795,36.09364 -2.204535,11.7516 -7.790442,16.5873 -17.864209,15.465 z"
         id="path1" /></g></g></svg>
