<svg width="93" height="120" viewBox="0 0 93 120" fill="none" xmlns="http://www.w3.org/2000/svg">
<rect y="80" width="60" height="40" rx="20" fill="black"/>
<path d="M50 5C50 2.23858 52.2386 0 55 0C57.7614 0 60 2.23858 60 5V100H50V5Z" fill="black"/>
<path d="M53 9.66016L58 0.999902L88.3109 18.4999C90.7024 19.8806 91.5217 22.9386 90.141 25.33C88.7603 27.7215 85.7024 28.5409 83.3109 27.1602L53 9.66016Z" fill="black"/>
<path d="M52 25.6602L57 16.9999L87.3109 34.4999C89.7024 35.8806 90.5217 38.9386 89.141 41.33C87.7603 43.7215 84.7024 44.5409 82.3109 43.1602L52 25.6602Z" fill="black"/>
<path d="M51 41.6602L56 32.9999L86.3109 50.4999C88.7024 51.8806 89.5217 54.9386 88.141 57.33C86.7603 59.7215 83.7024 60.5409 81.3109 59.1602L51 41.6602Z" fill="black"/>
</svg>
