<svg width="85" height="165" viewBox="0 0 85 165" fill="none" xmlns="http://www.w3.org/2000/svg">
<path d="M15 140V140C15 151.046 23.9543 160 35 160H35.9431C50.2379 160 60.3301 145.99 55.8097 132.429C46.2852 103.856 38.7737 81.3212 28.2549 49.7648C26.1731 43.5193 26.654 36.692 29.5982 30.8036L37.6491 14.7018C41.2654 7.46911 50.9048 5.90484 56.6228 11.6228V11.6228C61.2494 16.2494 61.2494 23.7506 56.6228 28.3772L12.8555 72.1445C7.82573 77.1743 5 83.9962 5 91.1094V91.1094C5 99.257 8.70363 106.963 15.0659 112.053L17.3304 113.864C22.2952 117.836 28.4639 120 34.8219 120H54.9098C61.3705 120 67.6073 117.393 72.1756 112.824V112.824C79.7383 105.262 81.4973 93.5519 76.3922 84.1538V84.1538C69.3429 71.1767 52.399 67.5124 40.6175 76.417L33.4974 81.7985C25.9342 87.5149 24.1767 98.1552 29.5 106V106" stroke="black" stroke-width="10" stroke-linecap="round" stroke-linejoin="round"/>
<circle cx="19.5" cy="140.5" r="9.5" fill="black"/>
</svg>
